<svg width="28" height="30" viewBox="0 0 28 30" fill="none" xmlns="http://www.w3.org/2000/svg">
<path d="M7.70333 0.445081C7.93667 0.416748 8.195 0.416748 8.495 0.416748H19.505C19.805 0.416748 20.0633 0.416748 20.2967 0.445081C21.1249 0.548128 21.8952 0.924553 22.4853 1.51474C23.0755 2.10493 23.452 2.87515 23.555 3.70341L23.56 3.75008H24.9033C25.2567 3.74675 26.0317 3.74008 26.6717 4.16841C27.5 4.72008 27.75 5.66841 27.75 6.66675C27.75 11.2101 25.3283 14.2434 22.2367 15.9284C20.5117 19.0684 17.325 21.2501 14 21.2501C11.4683 21.2501 9.06667 19.8801 7.33833 17.9851C6.76405 17.3585 6.25994 16.6711 5.835 15.9351C2.745 14.2584 0.25 11.2284 0.25 6.66675C0.25 5.66675 0.5 4.72008 1.32667 4.16841C1.96833 3.74008 2.74333 3.74675 3.09667 3.75008H4.44L4.445 3.70341C4.54805 2.87515 4.92447 2.10493 5.51466 1.51474C6.10485 0.924553 6.87507 0.548128 7.70333 0.445081ZM25.22 6.25841C25.0913 6.25065 24.9623 6.24787 24.8333 6.25008H23.5783L23.525 11.7334C24.5883 10.4534 25.25 8.78341 25.25 6.66675C25.25 6.47008 25.235 6.34008 25.22 6.25841ZM2.75 6.66675C2.75 8.72841 3.39667 10.3667 4.43333 11.6367C4.32333 10.3934 4.35333 9.13008 4.38333 7.87341C4.39889 7.32897 4.40833 6.78786 4.41167 6.25008H3.16667C2.985 6.25008 2.87 6.25008 2.78167 6.25841C2.75824 6.39322 2.74764 6.52994 2.75 6.66675ZM14.3833 5.92508C14.3513 5.84992 14.2979 5.78583 14.2297 5.74078C14.1616 5.69573 14.0817 5.67171 14 5.67171C13.9183 5.67171 13.8384 5.69573 13.7703 5.74078C13.7021 5.78583 13.6487 5.84992 13.6167 5.92508L12.775 7.94508C12.7456 8.01558 12.6975 8.07665 12.6357 8.12162C12.574 8.16659 12.5011 8.19373 12.425 8.20008L10.2433 8.37508C10.1613 8.38158 10.083 8.41224 10.0183 8.4632C9.95366 8.51416 9.90555 8.58312 9.88005 8.6614C9.85455 8.73967 9.85281 8.82374 9.87505 8.903C9.89729 8.98226 9.94251 9.05316 10.005 9.10675L11.6667 10.5301C11.7247 10.5801 11.7679 10.6451 11.7914 10.718C11.815 10.7909 11.8179 10.8689 11.8 10.9434L11.2933 13.0701C11.2738 13.1503 11.2786 13.2346 11.307 13.3121C11.3355 13.3897 11.3863 13.457 11.4531 13.5056C11.5199 13.5542 11.5996 13.5818 11.6822 13.585C11.7647 13.5882 11.8463 13.5667 11.9167 13.5234L13.7833 12.3834C13.8486 12.3437 13.9236 12.3226 14 12.3226C14.0764 12.3226 14.1514 12.3437 14.2167 12.3834L16.0833 13.5234C16.1537 13.5667 16.2353 13.5882 16.3178 13.585C16.4004 13.5818 16.4801 13.5542 16.5469 13.5056C16.6137 13.457 16.6645 13.3897 16.693 13.3121C16.7214 13.2346 16.7262 13.1503 16.7067 13.0701L16.1983 10.9434C16.1804 10.8689 16.1834 10.7909 16.2069 10.718C16.2304 10.6451 16.2736 10.5801 16.3317 10.5301L17.995 9.10675C18.0581 9.05329 18.1038 8.98227 18.1264 8.90274C18.149 8.82321 18.1474 8.73876 18.1218 8.66013C18.0963 8.58151 18.0479 8.51226 17.9829 8.4612C17.9179 8.41014 17.8391 8.37959 17.7567 8.37341L15.5767 8.20008C15.5003 8.19403 15.427 8.16702 15.365 8.12203C15.3029 8.07704 15.2545 8.01582 15.225 7.94508L14.3833 5.92508ZM14 22.0834C14.3315 22.0834 14.6495 22.2151 14.8839 22.4495C15.1183 22.684 15.25 23.0019 15.25 23.3334V27.0834H20.6667C20.9982 27.0834 21.3161 27.2151 21.5506 27.4495C21.785 27.684 21.9167 28.0019 21.9167 28.3334C21.9167 28.6649 21.785 28.9829 21.5506 29.2173C21.3161 29.4517 20.9982 29.5834 20.6667 29.5834H7.33333C7.00181 29.5834 6.68387 29.4517 6.44945 29.2173C6.21503 28.9829 6.08333 28.6649 6.08333 28.3334C6.08333 28.0019 6.21503 27.684 6.44945 27.4495C6.68387 27.2151 7.00181 27.0834 7.33333 27.0834H12.75V23.3334C12.75 23.0019 12.8817 22.684 13.1161 22.4495C13.3505 22.2151 13.6685 22.0834 14 22.0834Z" fill="black"/>
</svg>
