<svg width="1920" height="822" viewBox="0 0 1920 822" fill="none" xmlns="http://www.w3.org/2000/svg">
<g clip-path="url(#clip0_20_553)">
<rect width="60" height="60" stroke="#EEEEEE" stroke-opacity="0.46" stroke-width="1.82857"/>
<rect x="60" width="60" height="60" stroke="#EEEEEE" stroke-opacity="0.46" stroke-width="1.82857"/>
<rect x="120" width="60" height="60" stroke="#EEEEEE" stroke-opacity="0.46" stroke-width="1.82857"/>
<rect x="180" width="60" height="60" stroke="#EEEEEE" stroke-opacity="0.46" stroke-width="1.82857"/>
<rect x="240" width="60" height="60" stroke="#EEEEEE" stroke-opacity="0.46" stroke-width="1.82857"/>
<rect x="300" width="60" height="60" stroke="#EEEEEE" stroke-opacity="0.46" stroke-width="1.82857"/>
<rect x="360" width="60" height="60" stroke="#EEEEEE" stroke-opacity="0.46" stroke-width="1.82857"/>
<rect x="420" width="60" height="60" stroke="#EEEEEE" stroke-opacity="0.46" stroke-width="1.82857"/>
<rect x="480" width="60" height="60" stroke="#EEEEEE" stroke-opacity="0.46" stroke-width="1.82857"/>
<rect x="540" width="60" height="60" stroke="#EEEEEE" stroke-opacity="0.46" stroke-width="1.82857"/>
<rect x="600" width="60" height="60" stroke="#EEEEEE" stroke-opacity="0.46" stroke-width="1.82857"/>
<rect x="660" width="60" height="60" stroke="#EEEEEE" stroke-opacity="0.46" stroke-width="1.82857"/>
<rect x="720" width="60" height="60" stroke="#EEEEEE" stroke-opacity="0.46" stroke-width="1.82857"/>
<rect x="780" width="60" height="60" stroke="#EEEEEE" stroke-opacity="0.46" stroke-width="1.82857"/>
<rect x="840" width="60" height="60" stroke="#EEEEEE" stroke-opacity="0.46" stroke-width="1.82857"/>
<rect x="900" width="60" height="60" stroke="#EEEEEE" stroke-opacity="0.46" stroke-width="1.82857"/>
<rect x="960" width="60" height="60" stroke="#EEEEEE" stroke-opacity="0.46" stroke-width="1.82857"/>
<rect x="1020" width="60" height="60" stroke="#EEEEEE" stroke-opacity="0.46" stroke-width="1.82857"/>
<rect x="1080" width="60" height="60" stroke="#EEEEEE" stroke-opacity="0.46" stroke-width="1.82857"/>
<rect x="1140" width="60" height="60" stroke="#EEEEEE" stroke-opacity="0.46" stroke-width="1.82857"/>
<rect x="1200" width="60" height="60" stroke="#EEEEEE" stroke-opacity="0.46" stroke-width="1.82857"/>
<rect x="1260" width="60" height="60" stroke="#EEEEEE" stroke-opacity="0.46" stroke-width="1.82857"/>
<rect x="1320" width="60" height="60" stroke="#EEEEEE" stroke-opacity="0.46" stroke-width="1.82857"/>
<rect x="1380" width="60" height="60" stroke="#EEEEEE" stroke-opacity="0.46" stroke-width="1.82857"/>
<rect x="1440" width="60" height="60" stroke="#EEEEEE" stroke-opacity="0.46" stroke-width="1.82857"/>
<rect x="1500" width="60" height="60" stroke="#EEEEEE" stroke-opacity="0.46" stroke-width="1.82857"/>
<rect x="1560" width="60" height="60" stroke="#EEEEEE" stroke-opacity="0.46" stroke-width="1.82857"/>
<rect x="1620" width="60" height="60" stroke="#EEEEEE" stroke-opacity="0.46" stroke-width="1.82857"/>
<rect x="1680" width="60" height="60" stroke="#EEEEEE" stroke-opacity="0.46" stroke-width="1.82857"/>
<rect x="1740" width="60" height="60" stroke="#EEEEEE" stroke-opacity="0.46" stroke-width="1.82857"/>
<rect x="1800" width="60" height="60" stroke="#EEEEEE" stroke-opacity="0.46" stroke-width="1.82857"/>
<rect x="1860" width="60" height="60" stroke="#EEEEEE" stroke-opacity="0.46" stroke-width="1.82857"/>
<rect y="60" width="60" height="60" stroke="#EEEEEE" stroke-opacity="0.46" stroke-width="1.82857"/>
<rect x="60" y="60" width="60" height="60" stroke="#EEEEEE" stroke-opacity="0.46" stroke-width="1.82857"/>
<rect x="120" y="60" width="60" height="60" fill="#B3B3B3" fill-opacity="0.2" stroke="#EEEEEE" stroke-opacity="0.46" stroke-width="1.82857"/>
<rect x="180" y="60" width="60" height="60" stroke="#EEEEEE" stroke-opacity="0.46" stroke-width="1.82857"/>
<rect x="240" y="60" width="60" height="60" stroke="#EEEEEE" stroke-opacity="0.46" stroke-width="1.82857"/>
<rect x="300" y="60" width="60" height="60" stroke="#EEEEEE" stroke-opacity="0.46" stroke-width="1.82857"/>
<rect x="360" y="60" width="60" height="60" stroke="#EEEEEE" stroke-opacity="0.46" stroke-width="1.82857"/>
<rect x="420" y="60" width="60" height="60" stroke="#EEEEEE" stroke-opacity="0.46" stroke-width="1.82857"/>
<rect x="480" y="60" width="60" height="60" stroke="#EEEEEE" stroke-opacity="0.46" stroke-width="1.82857"/>
<rect x="540" y="60" width="60" height="60" stroke="#EEEEEE" stroke-opacity="0.46" stroke-width="1.82857"/>
<rect x="600" y="60" width="60" height="60" stroke="#EEEEEE" stroke-opacity="0.46" stroke-width="1.82857"/>
<rect x="660" y="60" width="60" height="60" stroke="#EEEEEE" stroke-opacity="0.46" stroke-width="1.82857"/>
<rect x="720" y="60" width="60" height="60" stroke="#EEEEEE" stroke-opacity="0.46" stroke-width="1.82857"/>
<rect x="780" y="60" width="60" height="60" stroke="#EEEEEE" stroke-opacity="0.46" stroke-width="1.82857"/>
<rect x="840" y="60" width="60" height="60" fill="#B3B3B3" fill-opacity="0.2" stroke="#EEEEEE" stroke-opacity="0.46" stroke-width="1.82857"/>
<rect x="900" y="60" width="60" height="60" stroke="#EEEEEE" stroke-opacity="0.46" stroke-width="1.82857"/>
<rect x="960" y="60" width="60" height="60" stroke="#EEEEEE" stroke-opacity="0.46" stroke-width="1.82857"/>
<rect x="1020" y="60" width="60" height="60" stroke="#EEEEEE" stroke-opacity="0.46" stroke-width="1.82857"/>
<rect x="1080" y="60" width="60" height="60" stroke="#EEEEEE" stroke-opacity="0.46" stroke-width="1.82857"/>
<rect x="1140" y="60" width="60" height="60" stroke="#EEEEEE" stroke-opacity="0.46" stroke-width="1.82857"/>
<rect x="1200" y="60" width="60" height="60" stroke="#EEEEEE" stroke-opacity="0.46" stroke-width="1.82857"/>
<rect x="1260" y="60" width="60" height="60" stroke="#EEEEEE" stroke-opacity="0.46" stroke-width="1.82857"/>
<rect x="1320" y="60" width="60" height="60" stroke="#EEEEEE" stroke-opacity="0.46" stroke-width="1.82857"/>
<rect x="1380" y="60" width="60" height="60" stroke="#EEEEEE" stroke-opacity="0.46" stroke-width="1.82857"/>
<rect x="1440" y="60" width="60" height="60" stroke="#EEEEEE" stroke-opacity="0.46" stroke-width="1.82857"/>
<rect x="1500" y="60" width="60" height="60" stroke="#EEEEEE" stroke-opacity="0.46" stroke-width="1.82857"/>
<rect x="1560" y="60" width="60" height="60" stroke="#EEEEEE" stroke-opacity="0.46" stroke-width="1.82857"/>
<rect x="1620" y="60" width="60" height="60" stroke="#EEEEEE" stroke-opacity="0.46" stroke-width="1.82857"/>
<rect x="1680" y="60" width="60" height="60" stroke="#EEEEEE" stroke-opacity="0.46" stroke-width="1.82857"/>
<rect x="1740" y="60" width="60" height="60" fill="#B3B3B3" fill-opacity="0.2" stroke="#EEEEEE" stroke-opacity="0.46" stroke-width="1.82857"/>
<rect x="1800" y="60" width="60" height="60" stroke="#EEEEEE" stroke-opacity="0.46" stroke-width="1.82857"/>
<rect x="1860" y="60" width="60" height="60" stroke="#EEEEEE" stroke-opacity="0.46" stroke-width="1.82857"/>
<rect y="120" width="60" height="60" stroke="#EEEEEE" stroke-opacity="0.46" stroke-width="1.82857"/>
<rect x="60" y="120" width="60" height="60" stroke="#EEEEEE" stroke-opacity="0.46" stroke-width="1.82857"/>
<rect x="120" y="120" width="60" height="60" stroke="#EEEEEE" stroke-opacity="0.46" stroke-width="1.82857"/>
<rect x="180" y="120" width="60" height="60" stroke="#EEEEEE" stroke-opacity="0.46" stroke-width="1.82857"/>
<rect x="240" y="120" width="60" height="60" stroke="#EEEEEE" stroke-opacity="0.46" stroke-width="1.82857"/>
<rect x="300" y="120" width="60" height="60" stroke="#EEEEEE" stroke-opacity="0.46" stroke-width="1.82857"/>
<rect x="360" y="120" width="60" height="60" stroke="#EEEEEE" stroke-opacity="0.46" stroke-width="1.82857"/>
<rect x="420" y="120" width="60" height="60" stroke="#EEEEEE" stroke-opacity="0.46" stroke-width="1.82857"/>
<rect x="480" y="120" width="60" height="60" stroke="#EEEEEE" stroke-opacity="0.46" stroke-width="1.82857"/>
<rect x="540" y="120" width="60" height="60" fill="#B3B3B3" fill-opacity="0.2" stroke="#EEEEEE" stroke-opacity="0.46" stroke-width="1.82857"/>
<rect x="600" y="120" width="60" height="60" stroke="#EEEEEE" stroke-opacity="0.46" stroke-width="1.82857"/>
<rect x="660" y="120" width="60" height="60" stroke="#EEEEEE" stroke-opacity="0.46" stroke-width="1.82857"/>
<rect x="720" y="120" width="60" height="60" stroke="#EEEEEE" stroke-opacity="0.46" stroke-width="1.82857"/>
<rect x="780" y="120" width="60" height="60" stroke="#EEEEEE" stroke-opacity="0.46" stroke-width="1.82857"/>
<rect x="840" y="120" width="60" height="60" stroke="#EEEEEE" stroke-opacity="0.46" stroke-width="1.82857"/>
<rect x="900" y="120" width="60" height="60" stroke="#EEEEEE" stroke-opacity="0.46" stroke-width="1.82857"/>
<rect x="960" y="120" width="60" height="60" stroke="#EEEEEE" stroke-opacity="0.46" stroke-width="1.82857"/>
<rect x="1020" y="120" width="60" height="60" stroke="#EEEEEE" stroke-opacity="0.46" stroke-width="1.82857"/>
<rect x="1080" y="120" width="60" height="60" stroke="#EEEEEE" stroke-opacity="0.46" stroke-width="1.82857"/>
<rect x="1140" y="120" width="60" height="60" stroke="#EEEEEE" stroke-opacity="0.46" stroke-width="1.82857"/>
<rect x="1200" y="120" width="60" height="60" stroke="#EEEEEE" stroke-opacity="0.46" stroke-width="1.82857"/>
<rect x="1260" y="120" width="60" height="60" fill="#B3B3B3" fill-opacity="0.2" stroke="#EEEEEE" stroke-opacity="0.46" stroke-width="1.82857"/>
<rect x="1320" y="120" width="60" height="60" stroke="#EEEEEE" stroke-opacity="0.46" stroke-width="1.82857"/>
<rect x="1380" y="120" width="60" height="60" stroke="#EEEEEE" stroke-opacity="0.46" stroke-width="1.82857"/>
<rect x="1440" y="120" width="60" height="60" stroke="#EEEEEE" stroke-opacity="0.46" stroke-width="1.82857"/>
<rect x="1500" y="120" width="60" height="60" stroke="#EEEEEE" stroke-opacity="0.46" stroke-width="1.82857"/>
<rect x="1560" y="120" width="60" height="60" stroke="#EEEEEE" stroke-opacity="0.46" stroke-width="1.82857"/>
<rect x="1620" y="120" width="60" height="60" stroke="#EEEEEE" stroke-opacity="0.46" stroke-width="1.82857"/>
<rect x="1680" y="120" width="60" height="60" stroke="#EEEEEE" stroke-opacity="0.46" stroke-width="1.82857"/>
<rect x="1740" y="120" width="60" height="60" stroke="#EEEEEE" stroke-opacity="0.46" stroke-width="1.82857"/>
<rect x="1800" y="120" width="60" height="60" stroke="#EEEEEE" stroke-opacity="0.46" stroke-width="1.82857"/>
<rect x="1860" y="120" width="60" height="60" stroke="#EEEEEE" stroke-opacity="0.46" stroke-width="1.82857"/>
<rect y="180" width="60" height="60" stroke="#EEEEEE" stroke-opacity="0.46" stroke-width="1.82857"/>
<rect x="60" y="180" width="60" height="60" stroke="#EEEEEE" stroke-opacity="0.46" stroke-width="1.82857"/>
<rect x="120" y="180" width="60" height="60" stroke="#EEEEEE" stroke-opacity="0.46" stroke-width="1.82857"/>
<rect x="180" y="180" width="60" height="60" stroke="#EEEEEE" stroke-opacity="0.46" stroke-width="1.82857"/>
<rect x="240" y="180" width="60" height="60" stroke="#EEEEEE" stroke-opacity="0.46" stroke-width="1.82857"/>
<rect x="300" y="180" width="60" height="60" stroke="#EEEEEE" stroke-opacity="0.46" stroke-width="1.82857"/>
<rect x="360" y="180" width="60" height="60" stroke="#EEEEEE" stroke-opacity="0.46" stroke-width="1.82857"/>
<rect x="420" y="180" width="60" height="60" stroke="#EEEEEE" stroke-opacity="0.46" stroke-width="1.82857"/>
<rect x="480" y="180" width="60" height="60" stroke="#EEEEEE" stroke-opacity="0.46" stroke-width="1.82857"/>
<rect x="540" y="180" width="60" height="60" stroke="#EEEEEE" stroke-opacity="0.46" stroke-width="1.82857"/>
<rect x="600" y="180" width="60" height="60" stroke="#EEEEEE" stroke-opacity="0.46" stroke-width="1.82857"/>
<rect x="660" y="180" width="60" height="60" stroke="#EEEEEE" stroke-opacity="0.46" stroke-width="1.82857"/>
<rect x="720" y="180" width="60" height="60" stroke="#EEEEEE" stroke-opacity="0.46" stroke-width="1.82857"/>
<rect x="780" y="180" width="60" height="60" stroke="#EEEEEE" stroke-opacity="0.46" stroke-width="1.82857"/>
<rect x="840" y="180" width="60" height="60" stroke="#EEEEEE" stroke-opacity="0.46" stroke-width="1.82857"/>
<rect x="900" y="180" width="60" height="60" stroke="#EEEEEE" stroke-opacity="0.46" stroke-width="1.82857"/>
<rect x="960" y="180" width="60" height="60" stroke="#EEEEEE" stroke-opacity="0.46" stroke-width="1.82857"/>
<rect x="1020" y="180" width="60" height="60" stroke="#EEEEEE" stroke-opacity="0.46" stroke-width="1.82857"/>
<rect x="1080" y="180" width="60" height="60" stroke="#EEEEEE" stroke-opacity="0.46" stroke-width="1.82857"/>
<rect x="1140" y="180" width="60" height="60" stroke="#EEEEEE" stroke-opacity="0.46" stroke-width="1.82857"/>
<rect x="1200" y="180" width="60" height="60" stroke="#EEEEEE" stroke-opacity="0.46" stroke-width="1.82857"/>
<rect x="1260" y="180" width="60" height="60" stroke="#EEEEEE" stroke-opacity="0.46" stroke-width="1.82857"/>
<rect x="1320" y="180" width="60" height="60" stroke="#EEEEEE" stroke-opacity="0.46" stroke-width="1.82857"/>
<rect x="1380" y="180" width="60" height="60" stroke="#EEEEEE" stroke-opacity="0.46" stroke-width="1.82857"/>
<rect x="1440" y="180" width="60" height="60" stroke="#EEEEEE" stroke-opacity="0.46" stroke-width="1.82857"/>
<rect x="1500" y="180" width="60" height="60" stroke="#EEEEEE" stroke-opacity="0.46" stroke-width="1.82857"/>
<rect x="1560" y="180" width="60" height="60" stroke="#EEEEEE" stroke-opacity="0.46" stroke-width="1.82857"/>
<rect x="1620" y="180" width="60" height="60" stroke="#EEEEEE" stroke-opacity="0.46" stroke-width="1.82857"/>
<rect x="1680" y="180" width="60" height="60" stroke="#EEEEEE" stroke-opacity="0.46" stroke-width="1.82857"/>
<rect x="1740" y="180" width="60" height="60" stroke="#EEEEEE" stroke-opacity="0.46" stroke-width="1.82857"/>
<rect x="1800" y="180" width="60" height="60" stroke="#EEEEEE" stroke-opacity="0.46" stroke-width="1.82857"/>
<rect x="1860" y="180" width="60" height="60" stroke="#EEEEEE" stroke-opacity="0.46" stroke-width="1.82857"/>
<rect y="240" width="60" height="60" stroke="#EEEEEE" stroke-opacity="0.46" stroke-width="1.82857"/>
<rect x="60" y="240" width="60" height="60" stroke="#EEEEEE" stroke-opacity="0.46" stroke-width="1.82857"/>
<rect x="120" y="240" width="60" height="60" stroke="#EEEEEE" stroke-opacity="0.46" stroke-width="1.82857"/>
<rect x="180" y="240" width="60" height="60" fill="#B3B3B3" fill-opacity="0.2" stroke="#EEEEEE" stroke-opacity="0.46" stroke-width="1.82857"/>
<rect x="240" y="240" width="60" height="60" stroke="#EEEEEE" stroke-opacity="0.46" stroke-width="1.82857"/>
<rect x="300" y="240" width="60" height="60" stroke="#EEEEEE" stroke-opacity="0.46" stroke-width="1.82857"/>
<rect x="360" y="240" width="60" height="60" stroke="#EEEEEE" stroke-opacity="0.46" stroke-width="1.82857"/>
<rect x="420" y="240" width="60" height="60" stroke="#EEEEEE" stroke-opacity="0.46" stroke-width="1.82857"/>
<rect x="480" y="240" width="60" height="60" stroke="#EEEEEE" stroke-opacity="0.46" stroke-width="1.82857"/>
<rect x="540" y="240" width="60" height="60" stroke="#EEEEEE" stroke-opacity="0.46" stroke-width="1.82857"/>
<rect x="600" y="240" width="60" height="60" stroke="#EEEEEE" stroke-opacity="0.46" stroke-width="1.82857"/>
<rect x="660" y="240" width="60" height="60" stroke="#EEEEEE" stroke-opacity="0.46" stroke-width="1.82857"/>
<rect x="720" y="240" width="60" height="60" fill="#B3B3B3" fill-opacity="0.2" stroke="#EEEEEE" stroke-opacity="0.46" stroke-width="1.82857"/>
<rect x="780" y="240" width="60" height="60" stroke="#EEEEEE" stroke-opacity="0.46" stroke-width="1.82857"/>
<rect x="840" y="240" width="60" height="60" stroke="#EEEEEE" stroke-opacity="0.46" stroke-width="1.82857"/>
<rect x="900" y="240" width="60" height="60" stroke="#EEEEEE" stroke-opacity="0.46" stroke-width="1.82857"/>
<rect x="960" y="240" width="60" height="60" stroke="#EEEEEE" stroke-opacity="0.46" stroke-width="1.82857"/>
<rect x="1020" y="240" width="60" height="60" stroke="#EEEEEE" stroke-opacity="0.46" stroke-width="1.82857"/>
<rect x="1080" y="240" width="60" height="60" stroke="#EEEEEE" stroke-opacity="0.46" stroke-width="1.82857"/>
<rect x="1140" y="240" width="60" height="60" stroke="#EEEEEE" stroke-opacity="0.46" stroke-width="1.82857"/>
<rect x="1200" y="240" width="60" height="60" stroke="#EEEEEE" stroke-opacity="0.46" stroke-width="1.82857"/>
<rect x="1260" y="240" width="60" height="60" stroke="#EEEEEE" stroke-opacity="0.46" stroke-width="1.82857"/>
<rect x="1320" y="240" width="60" height="60" stroke="#EEEEEE" stroke-opacity="0.46" stroke-width="1.82857"/>
<rect x="1380" y="240" width="60" height="60" stroke="#EEEEEE" stroke-opacity="0.46" stroke-width="1.82857"/>
<rect x="1440" y="240" width="60" height="60" stroke="#EEEEEE" stroke-opacity="0.46" stroke-width="1.82857"/>
<rect x="1500" y="240" width="60" height="60" stroke="#EEEEEE" stroke-opacity="0.46" stroke-width="1.82857"/>
<rect x="1560" y="240" width="60" height="60" stroke="#EEEEEE" stroke-opacity="0.46" stroke-width="1.82857"/>
<rect x="1620" y="240" width="60" height="60" stroke="#EEEEEE" stroke-opacity="0.46" stroke-width="1.82857"/>
<rect x="1680" y="240" width="60" height="60" fill="#B3B3B3" fill-opacity="0.2" stroke="#EEEEEE" stroke-opacity="0.46" stroke-width="1.82857"/>
<rect x="1740" y="240" width="60" height="60" stroke="#EEEEEE" stroke-opacity="0.46" stroke-width="1.82857"/>
<rect x="1800" y="240" width="60" height="60" stroke="#EEEEEE" stroke-opacity="0.46" stroke-width="1.82857"/>
<rect x="1860" y="240" width="60" height="60" stroke="#EEEEEE" stroke-opacity="0.46" stroke-width="1.82857"/>
<rect y="300" width="60" height="60" stroke="#EEEEEE" stroke-opacity="0.46" stroke-width="1.82857"/>
<rect x="60" y="300" width="60" height="60" stroke="#EEEEEE" stroke-opacity="0.46" stroke-width="1.82857"/>
<rect x="120" y="300" width="60" height="60" stroke="#EEEEEE" stroke-opacity="0.46" stroke-width="1.82857"/>
<rect x="180" y="300" width="60" height="60" stroke="#EEEEEE" stroke-opacity="0.46" stroke-width="1.82857"/>
<rect x="240" y="300" width="60" height="60" stroke="#EEEEEE" stroke-opacity="0.46" stroke-width="1.82857"/>
<rect x="300" y="300" width="60" height="60" stroke="#EEEEEE" stroke-opacity="0.46" stroke-width="1.82857"/>
<rect x="360" y="300" width="60" height="60" stroke="#EEEEEE" stroke-opacity="0.46" stroke-width="1.82857"/>
<rect x="420" y="300" width="60" height="60" stroke="#EEEEEE" stroke-opacity="0.46" stroke-width="1.82857"/>
<rect x="480" y="300" width="60" height="60" stroke="#EEEEEE" stroke-opacity="0.46" stroke-width="1.82857"/>
<rect x="540" y="300" width="60" height="60" stroke="#EEEEEE" stroke-opacity="0.46" stroke-width="1.82857"/>
<rect x="600" y="300" width="60" height="60" stroke="#EEEEEE" stroke-opacity="0.46" stroke-width="1.82857"/>
<rect x="660" y="300" width="60" height="60" stroke="#EEEEEE" stroke-opacity="0.46" stroke-width="1.82857"/>
<rect x="720" y="300" width="60" height="60" stroke="#EEEEEE" stroke-opacity="0.46" stroke-width="1.82857"/>
<rect x="780" y="300" width="60" height="60" stroke="#EEEEEE" stroke-opacity="0.46" stroke-width="1.82857"/>
<rect x="840" y="300" width="60" height="60" stroke="#EEEEEE" stroke-opacity="0.46" stroke-width="1.82857"/>
<rect x="900" y="300" width="60" height="60" stroke="#EEEEEE" stroke-opacity="0.46" stroke-width="1.82857"/>
<rect x="960" y="300" width="60" height="60" stroke="#EEEEEE" stroke-opacity="0.46" stroke-width="1.82857"/>
<rect x="1020" y="300" width="60" height="60" stroke="#EEEEEE" stroke-opacity="0.46" stroke-width="1.82857"/>
<rect x="1080" y="300" width="60" height="60" stroke="#EEEEEE" stroke-opacity="0.46" stroke-width="1.82857"/>
<rect x="1140" y="300" width="60" height="60" stroke="#EEEEEE" stroke-opacity="0.46" stroke-width="1.82857"/>
<rect x="1200" y="300" width="60" height="60" stroke="#EEEEEE" stroke-opacity="0.46" stroke-width="1.82857"/>
<rect x="1260" y="300" width="60" height="60" stroke="#EEEEEE" stroke-opacity="0.46" stroke-width="1.82857"/>
<rect x="1320" y="300" width="60" height="60" stroke="#EEEEEE" stroke-opacity="0.46" stroke-width="1.82857"/>
<rect x="1380" y="300" width="60" height="60" stroke="#EEEEEE" stroke-opacity="0.46" stroke-width="1.82857"/>
<rect x="1440" y="300" width="60" height="60" stroke="#EEEEEE" stroke-opacity="0.46" stroke-width="1.82857"/>
<rect x="1500" y="300" width="60" height="60" stroke="#EEEEEE" stroke-opacity="0.46" stroke-width="1.82857"/>
<rect x="1560" y="300" width="60" height="60" stroke="#EEEEEE" stroke-opacity="0.46" stroke-width="1.82857"/>
<rect x="1620" y="300" width="60" height="60" fill="#B3B3B3" fill-opacity="0.2" stroke="#EEEEEE" stroke-opacity="0.46" stroke-width="1.82857"/>
<rect x="1680" y="300" width="60" height="60" stroke="#EEEEEE" stroke-opacity="0.46" stroke-width="1.82857"/>
<rect x="1740" y="300" width="60" height="60" stroke="#EEEEEE" stroke-opacity="0.46" stroke-width="1.82857"/>
<rect x="1800" y="300" width="60" height="60" stroke="#EEEEEE" stroke-opacity="0.46" stroke-width="1.82857"/>
<rect x="1860" y="300" width="60" height="60" stroke="#EEEEEE" stroke-opacity="0.46" stroke-width="1.82857"/>
<rect y="360" width="60" height="60" stroke="#EEEEEE" stroke-opacity="0.46" stroke-width="1.82857"/>
<rect x="60" y="360" width="60" height="60" stroke="#EEEEEE" stroke-opacity="0.46" stroke-width="1.82857"/>
<rect x="120" y="360" width="60" height="60" stroke="#EEEEEE" stroke-opacity="0.46" stroke-width="1.82857"/>
<rect x="180" y="360" width="60" height="60" stroke="#EEEEEE" stroke-opacity="0.46" stroke-width="1.82857"/>
<rect x="240" y="360" width="60" height="60" stroke="#EEEEEE" stroke-opacity="0.46" stroke-width="1.82857"/>
<rect x="300" y="360" width="60" height="60" stroke="#EEEEEE" stroke-opacity="0.46" stroke-width="1.82857"/>
<rect x="360" y="360" width="60" height="60" stroke="#EEEEEE" stroke-opacity="0.46" stroke-width="1.82857"/>
<rect x="420" y="360" width="60" height="60" stroke="#EEEEEE" stroke-opacity="0.46" stroke-width="1.82857"/>
<rect x="480" y="360" width="60" height="60" stroke="#EEEEEE" stroke-opacity="0.46" stroke-width="1.82857"/>
<rect x="540" y="360" width="60" height="60" stroke="#EEEEEE" stroke-opacity="0.46" stroke-width="1.82857"/>
<rect x="600" y="360" width="60" height="60" stroke="#EEEEEE" stroke-opacity="0.46" stroke-width="1.82857"/>
<rect x="660" y="360" width="60" height="60" stroke="#EEEEEE" stroke-opacity="0.46" stroke-width="1.82857"/>
<rect x="720" y="360" width="60" height="60" stroke="#EEEEEE" stroke-opacity="0.46" stroke-width="1.82857"/>
<rect x="780" y="360" width="60" height="60" stroke="#EEEEEE" stroke-opacity="0.46" stroke-width="1.82857"/>
<rect x="840" y="360" width="60" height="60" stroke="#EEEEEE" stroke-opacity="0.46" stroke-width="1.82857"/>
<rect x="900" y="360" width="60" height="60" stroke="#EEEEEE" stroke-opacity="0.46" stroke-width="1.82857"/>
<rect x="960" y="360" width="60" height="60" stroke="#EEEEEE" stroke-opacity="0.46" stroke-width="1.82857"/>
<rect x="1020" y="360" width="60" height="60" stroke="#EEEEEE" stroke-opacity="0.46" stroke-width="1.82857"/>
<rect x="1080" y="360" width="60" height="60" stroke="#EEEEEE" stroke-opacity="0.46" stroke-width="1.82857"/>
<rect x="1140" y="360" width="60" height="60" stroke="#EEEEEE" stroke-opacity="0.46" stroke-width="1.82857"/>
<rect x="1200" y="360" width="60" height="60" stroke="#EEEEEE" stroke-opacity="0.46" stroke-width="1.82857"/>
<rect x="1260" y="360" width="60" height="60" stroke="#EEEEEE" stroke-opacity="0.46" stroke-width="1.82857"/>
<rect x="1320" y="360" width="60" height="60" stroke="#EEEEEE" stroke-opacity="0.46" stroke-width="1.82857"/>
<rect x="1380" y="360" width="60" height="60" stroke="#EEEEEE" stroke-opacity="0.46" stroke-width="1.82857"/>
<rect x="1440" y="360" width="60" height="60" stroke="#EEEEEE" stroke-opacity="0.46" stroke-width="1.82857"/>
<rect x="1500" y="360" width="60" height="60" stroke="#EEEEEE" stroke-opacity="0.46" stroke-width="1.82857"/>
<rect x="1560" y="360" width="60" height="60" stroke="#EEEEEE" stroke-opacity="0.46" stroke-width="1.82857"/>
<rect x="1620" y="360" width="60" height="60" stroke="#EEEEEE" stroke-opacity="0.46" stroke-width="1.82857"/>
<rect x="1680" y="360" width="60" height="60" stroke="#EEEEEE" stroke-opacity="0.46" stroke-width="1.82857"/>
<rect x="1740" y="360" width="60" height="60" stroke="#EEEEEE" stroke-opacity="0.46" stroke-width="1.82857"/>
<rect x="1800" y="360" width="60" height="60" stroke="#EEEEEE" stroke-opacity="0.46" stroke-width="1.82857"/>
<rect x="1860" y="360" width="60" height="60" stroke="#EEEEEE" stroke-opacity="0.46" stroke-width="1.82857"/>
<rect y="420" width="60" height="60" stroke="#EEEEEE" stroke-opacity="0.46" stroke-width="1.82857"/>
<rect x="60" y="420" width="60" height="60" stroke="#EEEEEE" stroke-opacity="0.46" stroke-width="1.82857"/>
<rect x="120" y="420" width="60" height="60" stroke="#EEEEEE" stroke-opacity="0.46" stroke-width="1.82857"/>
<rect x="180" y="420" width="60" height="60" stroke="#EEEEEE" stroke-opacity="0.46" stroke-width="1.82857"/>
<rect x="240" y="420" width="60" height="60" stroke="#EEEEEE" stroke-opacity="0.46" stroke-width="1.82857"/>
<rect x="300" y="420" width="60" height="60" fill="#B3B3B3" fill-opacity="0.2" stroke="#EEEEEE" stroke-opacity="0.46" stroke-width="1.82857"/>
<rect x="360" y="420" width="60" height="60" stroke="#EEEEEE" stroke-opacity="0.46" stroke-width="1.82857"/>
<rect x="420" y="420" width="60" height="60" stroke="#EEEEEE" stroke-opacity="0.46" stroke-width="1.82857"/>
<rect x="480" y="420" width="60" height="60" stroke="#EEEEEE" stroke-opacity="0.46" stroke-width="1.82857"/>
<rect x="540" y="420" width="60" height="60" stroke="#EEEEEE" stroke-opacity="0.46" stroke-width="1.82857"/>
<rect x="600" y="420" width="60" height="60" stroke="#EEEEEE" stroke-opacity="0.46" stroke-width="1.82857"/>
<rect x="660" y="420" width="60" height="60" stroke="#EEEEEE" stroke-opacity="0.46" stroke-width="1.82857"/>
<rect x="720" y="420" width="60" height="60" stroke="#EEEEEE" stroke-opacity="0.46" stroke-width="1.82857"/>
<rect x="780" y="420" width="60" height="60" fill="#B3B3B3" fill-opacity="0.2" stroke="#EEEEEE" stroke-opacity="0.46" stroke-width="1.82857"/>
<rect x="840" y="420" width="60" height="60" stroke="#EEEEEE" stroke-opacity="0.46" stroke-width="1.82857"/>
<rect x="900" y="420" width="60" height="60" stroke="#EEEEEE" stroke-opacity="0.46" stroke-width="1.82857"/>
<rect x="960" y="420" width="60" height="60" stroke="#EEEEEE" stroke-opacity="0.46" stroke-width="1.82857"/>
<rect x="1020" y="420" width="60" height="60" stroke="#EEEEEE" stroke-opacity="0.46" stroke-width="1.82857"/>
<rect x="1080" y="420" width="60" height="60" stroke="#EEEEEE" stroke-opacity="0.46" stroke-width="1.82857"/>
<rect x="1140" y="420" width="60" height="60" stroke="#EEEEEE" stroke-opacity="0.46" stroke-width="1.82857"/>
<rect x="1200" y="420" width="60" height="60" stroke="#EEEEEE" stroke-opacity="0.46" stroke-width="1.82857"/>
<rect x="1260" y="420" width="60" height="60" stroke="#EEEEEE" stroke-opacity="0.46" stroke-width="1.82857"/>
<rect x="1320" y="420" width="60" height="60" stroke="#EEEEEE" stroke-opacity="0.46" stroke-width="1.82857"/>
<rect x="1380" y="420" width="60" height="60" stroke="#EEEEEE" stroke-opacity="0.46" stroke-width="1.82857"/>
<rect x="1440" y="420" width="60" height="60" stroke="#EEEEEE" stroke-opacity="0.46" stroke-width="1.82857"/>
<rect x="1500" y="420" width="60" height="60" stroke="#EEEEEE" stroke-opacity="0.46" stroke-width="1.82857"/>
<rect x="1560" y="420" width="60" height="60" stroke="#EEEEEE" stroke-opacity="0.46" stroke-width="1.82857"/>
<rect x="1620" y="420" width="60" height="60" fill="#B3B3B3" fill-opacity="0.2" stroke="#EEEEEE" stroke-opacity="0.46" stroke-width="1.82857"/>
<rect x="1680" y="420" width="60" height="60" stroke="#EEEEEE" stroke-opacity="0.46" stroke-width="1.82857"/>
<rect x="1740" y="420" width="60" height="60" stroke="#EEEEEE" stroke-opacity="0.46" stroke-width="1.82857"/>
<rect x="1800" y="420" width="60" height="60" stroke="#EEEEEE" stroke-opacity="0.46" stroke-width="1.82857"/>
<rect x="1860" y="420" width="60" height="60" stroke="#EEEEEE" stroke-opacity="0.46" stroke-width="1.82857"/>
<rect y="480" width="60" height="60" stroke="#EEEEEE" stroke-opacity="0.46" stroke-width="1.82857"/>
<rect x="60" y="480" width="60" height="60" stroke="#EEEEEE" stroke-opacity="0.46" stroke-width="1.82857"/>
<rect x="120" y="480" width="60" height="60" stroke="#EEEEEE" stroke-opacity="0.46" stroke-width="1.82857"/>
<rect x="180" y="480" width="60" height="60" stroke="#EEEEEE" stroke-opacity="0.46" stroke-width="1.82857"/>
<rect x="240" y="480" width="60" height="60" stroke="#EEEEEE" stroke-opacity="0.46" stroke-width="1.82857"/>
<rect x="300" y="480" width="60" height="60" stroke="#EEEEEE" stroke-opacity="0.46" stroke-width="1.82857"/>
<rect x="360" y="480" width="60" height="60" stroke="#EEEEEE" stroke-opacity="0.46" stroke-width="1.82857"/>
<rect x="420" y="480" width="60" height="60" stroke="#EEEEEE" stroke-opacity="0.46" stroke-width="1.82857"/>
<rect x="480" y="480" width="60" height="60" fill="#B3B3B3" fill-opacity="0.2" stroke="#EEEEEE" stroke-opacity="0.46" stroke-width="1.82857"/>
<rect x="540" y="480" width="60" height="60" stroke="#EEEEEE" stroke-opacity="0.46" stroke-width="1.82857"/>
<rect x="600" y="480" width="60" height="60" stroke="#EEEEEE" stroke-opacity="0.46" stroke-width="1.82857"/>
<rect x="660" y="480" width="60" height="60" stroke="#EEEEEE" stroke-opacity="0.46" stroke-width="1.82857"/>
<rect x="720" y="480" width="60" height="60" stroke="#EEEEEE" stroke-opacity="0.46" stroke-width="1.82857"/>
<rect x="780" y="480" width="60" height="60" stroke="#EEEEEE" stroke-opacity="0.46" stroke-width="1.82857"/>
<rect x="840" y="480" width="60" height="60" stroke="#EEEEEE" stroke-opacity="0.46" stroke-width="1.82857"/>
<rect x="900" y="480" width="60" height="60" stroke="#EEEEEE" stroke-opacity="0.46" stroke-width="1.82857"/>
<rect x="960" y="480" width="60" height="60" stroke="#EEEEEE" stroke-opacity="0.46" stroke-width="1.82857"/>
<rect x="1020" y="480" width="60" height="60" stroke="#EEEEEE" stroke-opacity="0.46" stroke-width="1.82857"/>
<rect x="1080" y="480" width="60" height="60" stroke="#EEEEEE" stroke-opacity="0.46" stroke-width="1.82857"/>
<rect x="1140" y="480" width="60" height="60" stroke="#EEEEEE" stroke-opacity="0.46" stroke-width="1.82857"/>
<rect x="1200" y="480" width="60" height="60" stroke="#EEEEEE" stroke-opacity="0.46" stroke-width="1.82857"/>
<rect x="1260" y="480" width="60" height="60" fill="#B3B3B3" fill-opacity="0.2" stroke="#EEEEEE" stroke-opacity="0.46" stroke-width="1.82857"/>
<rect x="1320" y="480" width="60" height="60" stroke="#EEEEEE" stroke-opacity="0.46" stroke-width="1.82857"/>
<rect x="1380" y="480" width="60" height="60" stroke="#EEEEEE" stroke-opacity="0.46" stroke-width="1.82857"/>
<rect x="1440" y="480" width="60" height="60" stroke="#EEEEEE" stroke-opacity="0.46" stroke-width="1.82857"/>
<rect x="1500" y="480" width="60" height="60" stroke="#EEEEEE" stroke-opacity="0.46" stroke-width="1.82857"/>
<rect x="1560" y="480" width="60" height="60" stroke="#EEEEEE" stroke-opacity="0.46" stroke-width="1.82857"/>
<rect x="1620" y="480" width="60" height="60" stroke="#EEEEEE" stroke-opacity="0.46" stroke-width="1.82857"/>
<rect x="1680" y="480" width="60" height="60" stroke="#EEEEEE" stroke-opacity="0.46" stroke-width="1.82857"/>
<rect x="1740" y="480" width="60" height="60" stroke="#EEEEEE" stroke-opacity="0.46" stroke-width="1.82857"/>
<rect x="1800" y="480" width="60" height="60" stroke="#EEEEEE" stroke-opacity="0.46" stroke-width="1.82857"/>
<rect x="1860" y="480" width="60" height="60" stroke="#EEEEEE" stroke-opacity="0.46" stroke-width="1.82857"/>
<rect y="540" width="60" height="60" stroke="#EEEEEE" stroke-opacity="0.46" stroke-width="1.82857"/>
<rect x="60" y="540" width="60" height="60" stroke="#EEEEEE" stroke-opacity="0.46" stroke-width="1.82857"/>
<rect x="120" y="540" width="60" height="60" stroke="#EEEEEE" stroke-opacity="0.46" stroke-width="1.82857"/>
<rect x="180" y="540" width="60" height="60" stroke="#EEEEEE" stroke-opacity="0.46" stroke-width="1.82857"/>
<rect x="240" y="540" width="60" height="60" stroke="#EEEEEE" stroke-opacity="0.46" stroke-width="1.82857"/>
<rect x="300" y="540" width="60" height="60" stroke="#EEEEEE" stroke-opacity="0.46" stroke-width="1.82857"/>
<rect x="360" y="540" width="60" height="60" stroke="#EEEEEE" stroke-opacity="0.46" stroke-width="1.82857"/>
<rect x="420" y="540" width="60" height="60" stroke="#EEEEEE" stroke-opacity="0.46" stroke-width="1.82857"/>
<rect x="480" y="540" width="60" height="60" stroke="#EEEEEE" stroke-opacity="0.46" stroke-width="1.82857"/>
<rect x="540" y="540" width="60" height="60" stroke="#EEEEEE" stroke-opacity="0.46" stroke-width="1.82857"/>
<rect x="600" y="540" width="60" height="60" stroke="#EEEEEE" stroke-opacity="0.46" stroke-width="1.82857"/>
<rect x="660" y="540" width="60" height="60" stroke="#EEEEEE" stroke-opacity="0.46" stroke-width="1.82857"/>
<rect x="720" y="540" width="60" height="60" stroke="#EEEEEE" stroke-opacity="0.46" stroke-width="1.82857"/>
<rect x="780" y="540" width="60" height="60" stroke="#EEEEEE" stroke-opacity="0.46" stroke-width="1.82857"/>
<rect x="840" y="540" width="60" height="60" stroke="#EEEEEE" stroke-opacity="0.46" stroke-width="1.82857"/>
<rect x="900" y="540" width="60" height="60" stroke="#EEEEEE" stroke-opacity="0.46" stroke-width="1.82857"/>
<rect x="960" y="540" width="60" height="60" stroke="#EEEEEE" stroke-opacity="0.46" stroke-width="1.82857"/>
<rect x="1020" y="540" width="60" height="60" stroke="#EEEEEE" stroke-opacity="0.46" stroke-width="1.82857"/>
<rect x="1080" y="540" width="60" height="60" stroke="#EEEEEE" stroke-opacity="0.46" stroke-width="1.82857"/>
<rect x="1140" y="540" width="60" height="60" stroke="#EEEEEE" stroke-opacity="0.46" stroke-width="1.82857"/>
<rect x="1200" y="540" width="60" height="60" stroke="#EEEEEE" stroke-opacity="0.46" stroke-width="1.82857"/>
<rect x="1260" y="540" width="60" height="60" stroke="#EEEEEE" stroke-opacity="0.46" stroke-width="1.82857"/>
<rect x="1320" y="540" width="60" height="60" stroke="#EEEEEE" stroke-opacity="0.46" stroke-width="1.82857"/>
<rect x="1380" y="540" width="60" height="60" stroke="#EEEEEE" stroke-opacity="0.46" stroke-width="1.82857"/>
<rect x="1440" y="540" width="60" height="60" stroke="#EEEEEE" stroke-opacity="0.46" stroke-width="1.82857"/>
<rect x="1500" y="540" width="60" height="60" stroke="#EEEEEE" stroke-opacity="0.46" stroke-width="1.82857"/>
<rect x="1560" y="540" width="60" height="60" stroke="#EEEEEE" stroke-opacity="0.46" stroke-width="1.82857"/>
<rect x="1620" y="540" width="60" height="60" stroke="#EEEEEE" stroke-opacity="0.46" stroke-width="1.82857"/>
<rect x="1680" y="540" width="60" height="60" stroke="#EEEEEE" stroke-opacity="0.46" stroke-width="1.82857"/>
<rect x="1740" y="540" width="60" height="60" stroke="#EEEEEE" stroke-opacity="0.46" stroke-width="1.82857"/>
<rect x="1800" y="540" width="60" height="60" stroke="#EEEEEE" stroke-opacity="0.46" stroke-width="1.82857"/>
<rect x="1860" y="540" width="60" height="60" stroke="#EEEEEE" stroke-opacity="0.46" stroke-width="1.82857"/>
<rect y="600" width="60" height="60" stroke="#EEEEEE" stroke-opacity="0.46" stroke-width="1.82857"/>
<rect x="60" y="600" width="60" height="60" stroke="#EEEEEE" stroke-opacity="0.46" stroke-width="1.82857"/>
<rect x="120" y="600" width="60" height="60" stroke="#EEEEEE" stroke-opacity="0.46" stroke-width="1.82857"/>
<rect x="180" y="600" width="60" height="60" stroke="#EEEEEE" stroke-opacity="0.46" stroke-width="1.82857"/>
<rect x="240" y="600" width="60" height="60" stroke="#EEEEEE" stroke-opacity="0.46" stroke-width="1.82857"/>
<rect x="300" y="600" width="60" height="60" stroke="#EEEEEE" stroke-opacity="0.46" stroke-width="1.82857"/>
<rect x="360" y="600" width="60" height="60" stroke="#EEEEEE" stroke-opacity="0.46" stroke-width="1.82857"/>
<rect x="420" y="600" width="60" height="60" stroke="#EEEEEE" stroke-opacity="0.46" stroke-width="1.82857"/>
<rect x="480" y="600" width="60" height="60" stroke="#EEEEEE" stroke-opacity="0.46" stroke-width="1.82857"/>
<rect x="540" y="600" width="60" height="60" stroke="#EEEEEE" stroke-opacity="0.46" stroke-width="1.82857"/>
<rect x="600" y="600" width="60" height="60" stroke="#EEEEEE" stroke-opacity="0.46" stroke-width="1.82857"/>
<rect x="660" y="600" width="60" height="60" stroke="#EEEEEE" stroke-opacity="0.46" stroke-width="1.82857"/>
<rect x="720" y="600" width="60" height="60" stroke="#EEEEEE" stroke-opacity="0.46" stroke-width="1.82857"/>
<rect x="780" y="600" width="60" height="60" stroke="#EEEEEE" stroke-opacity="0.46" stroke-width="1.82857"/>
<rect x="840" y="600" width="60" height="60" stroke="#EEEEEE" stroke-opacity="0.46" stroke-width="1.82857"/>
<rect x="900" y="600" width="60" height="60" stroke="#EEEEEE" stroke-opacity="0.46" stroke-width="1.82857"/>
<rect x="960" y="600" width="60" height="60" stroke="#EEEEEE" stroke-opacity="0.46" stroke-width="1.82857"/>
<rect x="1020" y="600" width="60" height="60" stroke="#EEEEEE" stroke-opacity="0.46" stroke-width="1.82857"/>
<rect x="1080" y="600" width="60" height="60" stroke="#EEEEEE" stroke-opacity="0.46" stroke-width="1.82857"/>
<rect x="1140" y="600" width="60" height="60" stroke="#EEEEEE" stroke-opacity="0.46" stroke-width="1.82857"/>
<rect x="1200" y="600" width="60" height="60" stroke="#EEEEEE" stroke-opacity="0.46" stroke-width="1.82857"/>
<rect x="1260" y="600" width="60" height="60" stroke="#EEEEEE" stroke-opacity="0.46" stroke-width="1.82857"/>
<rect x="1320" y="600" width="60" height="60" stroke="#EEEEEE" stroke-opacity="0.46" stroke-width="1.82857"/>
<rect x="1380" y="600" width="60" height="60" stroke="#EEEEEE" stroke-opacity="0.46" stroke-width="1.82857"/>
<rect x="1440" y="600" width="60" height="60" stroke="#EEEEEE" stroke-opacity="0.46" stroke-width="1.82857"/>
<rect x="1500" y="600" width="60" height="60" stroke="#EEEEEE" stroke-opacity="0.46" stroke-width="1.82857"/>
<rect x="1560" y="600" width="60" height="60" stroke="#EEEEEE" stroke-opacity="0.46" stroke-width="1.82857"/>
<rect x="1620" y="600" width="60" height="60" stroke="#EEEEEE" stroke-opacity="0.46" stroke-width="1.82857"/>
<rect x="1680" y="600" width="60" height="60" stroke="#EEEEEE" stroke-opacity="0.46" stroke-width="1.82857"/>
<rect x="1740" y="600" width="60" height="60" stroke="#EEEEEE" stroke-opacity="0.46" stroke-width="1.82857"/>
<rect x="1800" y="600" width="60" height="60" stroke="#EEEEEE" stroke-opacity="0.46" stroke-width="1.82857"/>
<rect x="1860" y="600" width="60" height="60" stroke="#EEEEEE" stroke-opacity="0.46" stroke-width="1.82857"/>
<rect y="660" width="60" height="60" stroke="#EEEEEE" stroke-opacity="0.46" stroke-width="1.82857"/>
<rect x="60" y="660" width="60" height="60" stroke="#EEEEEE" stroke-opacity="0.46" stroke-width="1.82857"/>
<rect x="120" y="660" width="60" height="60" stroke="#EEEEEE" stroke-opacity="0.46" stroke-width="1.82857"/>
<rect x="180" y="660" width="60" height="60" stroke="#EEEEEE" stroke-opacity="0.46" stroke-width="1.82857"/>
<rect x="240" y="660" width="60" height="60" stroke="#EEEEEE" stroke-opacity="0.46" stroke-width="1.82857"/>
<rect x="300" y="660" width="60" height="60" stroke="#EEEEEE" stroke-opacity="0.46" stroke-width="1.82857"/>
<rect x="360" y="660" width="60" height="60" stroke="#EEEEEE" stroke-opacity="0.46" stroke-width="1.82857"/>
<rect x="420" y="660" width="60" height="60" stroke="#EEEEEE" stroke-opacity="0.46" stroke-width="1.82857"/>
<rect x="480" y="660" width="60" height="60" stroke="#EEEEEE" stroke-opacity="0.46" stroke-width="1.82857"/>
<rect x="540" y="660" width="60" height="60" stroke="#EEEEEE" stroke-opacity="0.46" stroke-width="1.82857"/>
<rect x="600" y="660" width="60" height="60" stroke="#EEEEEE" stroke-opacity="0.46" stroke-width="1.82857"/>
<rect x="660" y="660" width="60" height="60" stroke="#EEEEEE" stroke-opacity="0.46" stroke-width="1.82857"/>
<rect x="720" y="660" width="60" height="60" stroke="#EEEEEE" stroke-opacity="0.46" stroke-width="1.82857"/>
<rect x="780" y="660" width="60" height="60" stroke="#EEEEEE" stroke-opacity="0.46" stroke-width="1.82857"/>
<rect x="840" y="660" width="60" height="60" stroke="#EEEEEE" stroke-opacity="0.46" stroke-width="1.82857"/>
<rect x="900" y="660" width="60" height="60" stroke="#EEEEEE" stroke-opacity="0.46" stroke-width="1.82857"/>
<rect x="960" y="660" width="60" height="60" stroke="#EEEEEE" stroke-opacity="0.46" stroke-width="1.82857"/>
<rect x="1020" y="660" width="60" height="60" stroke="#EEEEEE" stroke-opacity="0.46" stroke-width="1.82857"/>
<rect x="1080" y="660" width="60" height="60" stroke="#EEEEEE" stroke-opacity="0.46" stroke-width="1.82857"/>
<rect x="1140" y="660" width="60" height="60" stroke="#EEEEEE" stroke-opacity="0.46" stroke-width="1.82857"/>
<rect x="1200" y="660" width="60" height="60" stroke="#EEEEEE" stroke-opacity="0.46" stroke-width="1.82857"/>
<rect x="1260" y="660" width="60" height="60" stroke="#EEEEEE" stroke-opacity="0.46" stroke-width="1.82857"/>
<rect x="1320" y="660" width="60" height="60" stroke="#EEEEEE" stroke-opacity="0.46" stroke-width="1.82857"/>
<rect x="1380" y="660" width="60" height="60" stroke="#EEEEEE" stroke-opacity="0.46" stroke-width="1.82857"/>
<rect x="1440" y="660" width="60" height="60" stroke="#EEEEEE" stroke-opacity="0.46" stroke-width="1.82857"/>
<rect x="1500" y="660" width="60" height="60" stroke="#EEEEEE" stroke-opacity="0.46" stroke-width="1.82857"/>
<rect x="1560" y="660" width="60" height="60" stroke="#EEEEEE" stroke-opacity="0.46" stroke-width="1.82857"/>
<rect x="1620" y="660" width="60" height="60" stroke="#EEEEEE" stroke-opacity="0.46" stroke-width="1.82857"/>
<rect x="1680" y="660" width="60" height="60" stroke="#EEEEEE" stroke-opacity="0.46" stroke-width="1.82857"/>
<rect x="1740" y="660" width="60" height="60" stroke="#EEEEEE" stroke-opacity="0.46" stroke-width="1.82857"/>
<rect x="1800" y="660" width="60" height="60" stroke="#EEEEEE" stroke-opacity="0.46" stroke-width="1.82857"/>
<rect x="1860" y="660" width="60" height="60" stroke="#EEEEEE" stroke-opacity="0.46" stroke-width="1.82857"/>
<rect y="720" width="60" height="60" stroke="#EEEEEE" stroke-opacity="0.46" stroke-width="1.82857"/>
<rect x="60" y="720" width="60" height="60" stroke="#EEEEEE" stroke-opacity="0.46" stroke-width="1.82857"/>
<rect x="120" y="720" width="60" height="60" stroke="#EEEEEE" stroke-opacity="0.46" stroke-width="1.82857"/>
<rect x="180" y="720" width="60" height="60" stroke="#EEEEEE" stroke-opacity="0.46" stroke-width="1.82857"/>
<rect x="240" y="720" width="60" height="60" stroke="#EEEEEE" stroke-opacity="0.46" stroke-width="1.82857"/>
<rect x="300" y="720" width="60" height="60" stroke="#EEEEEE" stroke-opacity="0.46" stroke-width="1.82857"/>
<rect x="360" y="720" width="60" height="60" stroke="#EEEEEE" stroke-opacity="0.46" stroke-width="1.82857"/>
<rect x="420" y="720" width="60" height="60" stroke="#EEEEEE" stroke-opacity="0.46" stroke-width="1.82857"/>
<rect x="480" y="720" width="60" height="60" stroke="#EEEEEE" stroke-opacity="0.46" stroke-width="1.82857"/>
<rect x="540" y="720" width="60" height="60" stroke="#EEEEEE" stroke-opacity="0.46" stroke-width="1.82857"/>
<rect x="600" y="720" width="60" height="60" stroke="#EEEEEE" stroke-opacity="0.46" stroke-width="1.82857"/>
<rect x="660" y="720" width="60" height="60" stroke="#EEEEEE" stroke-opacity="0.46" stroke-width="1.82857"/>
<rect x="720" y="720" width="60" height="60" stroke="#EEEEEE" stroke-opacity="0.46" stroke-width="1.82857"/>
<rect x="780" y="720" width="60" height="60" stroke="#EEEEEE" stroke-opacity="0.46" stroke-width="1.82857"/>
<rect x="840" y="720" width="60" height="60" stroke="#EEEEEE" stroke-opacity="0.46" stroke-width="1.82857"/>
<rect x="900" y="720" width="60" height="60" stroke="#EEEEEE" stroke-opacity="0.46" stroke-width="1.82857"/>
<rect x="960" y="720" width="60" height="60" stroke="#EEEEEE" stroke-opacity="0.46" stroke-width="1.82857"/>
<rect x="1020" y="720" width="60" height="60" stroke="#EEEEEE" stroke-opacity="0.46" stroke-width="1.82857"/>
<rect x="1080" y="720" width="60" height="60" stroke="#EEEEEE" stroke-opacity="0.46" stroke-width="1.82857"/>
<rect x="1140" y="720" width="60" height="60" stroke="#EEEEEE" stroke-opacity="0.46" stroke-width="1.82857"/>
<rect x="1200" y="720" width="60" height="60" stroke="#EEEEEE" stroke-opacity="0.46" stroke-width="1.82857"/>
<rect x="1260" y="720" width="60" height="60" stroke="#EEEEEE" stroke-opacity="0.46" stroke-width="1.82857"/>
<rect x="1320" y="720" width="60" height="60" stroke="#EEEEEE" stroke-opacity="0.46" stroke-width="1.82857"/>
<rect x="1380" y="720" width="60" height="60" stroke="#EEEEEE" stroke-opacity="0.46" stroke-width="1.82857"/>
<rect x="1440" y="720" width="60" height="60" stroke="#EEEEEE" stroke-opacity="0.46" stroke-width="1.82857"/>
<rect x="1500" y="720" width="60" height="60" stroke="#EEEEEE" stroke-opacity="0.46" stroke-width="1.82857"/>
<rect x="1560" y="720" width="60" height="60" stroke="#EEEEEE" stroke-opacity="0.46" stroke-width="1.82857"/>
<rect x="1620" y="720" width="60" height="60" stroke="#EEEEEE" stroke-opacity="0.46" stroke-width="1.82857"/>
<rect x="1680" y="720" width="60" height="60" stroke="#EEEEEE" stroke-opacity="0.46" stroke-width="1.82857"/>
<rect x="1740" y="720" width="60" height="60" stroke="#EEEEEE" stroke-opacity="0.46" stroke-width="1.82857"/>
<rect x="1800" y="720" width="60" height="60" stroke="#EEEEEE" stroke-opacity="0.46" stroke-width="1.82857"/>
<rect x="1860" y="720" width="60" height="60" stroke="#EEEEEE" stroke-opacity="0.46" stroke-width="1.82857"/>
<g filter="url(#filter0_f_20_553)">
<rect x="-199" y="-537" width="2318.63" height="1826.19" fill="url(#paint0_radial_20_553)"/>
</g>
<rect x="-358.914" y="-482.914" width="2638.83" height="1375.83" fill="url(#paint1_radial_20_553)" stroke="white" stroke-width="1.82857"/>
</g>
<defs>
<filter id="filter0_f_20_553" x="-747.571" y="-1085.57" width="3415.77" height="2923.33" filterUnits="userSpaceOnUse" color-interpolation-filters="sRGB">
<feFlood flood-opacity="0" result="BackgroundImageFix"/>
<feBlend mode="normal" in="SourceGraphic" in2="BackgroundImageFix" result="shape"/>
<feGaussianBlur stdDeviation="274.286" result="effect1_foregroundBlur_20_553"/>
</filter>
<radialGradient id="paint0_radial_20_553" cx="0" cy="0" r="1" gradientUnits="userSpaceOnUse" gradientTransform="translate(960.314 376.093) rotate(90) scale(913.093 1159.31)">
<stop offset="0.015625" stop-color="#F2F5FF" stop-opacity="0.69"/>
<stop offset="0.223958" stop-color="#F9FAFF" stop-opacity="0.34"/>
<stop offset="0.911458" stop-color="#FEFFFF" stop-opacity="0"/>
</radialGradient>
<radialGradient id="paint1_radial_20_553" cx="0" cy="0" r="1" gradientUnits="userSpaceOnUse" gradientTransform="translate(960.5 205) rotate(90) scale(687 1318.5)">
<stop stop-color="white" stop-opacity="0"/>
<stop offset="0.833333" stop-color="white" stop-opacity="0.8"/>
</radialGradient>
<clipPath id="clip0_20_553">
<rect width="1920" height="822" fill="white"/>
</clipPath>
</defs>
</svg>
