<svg width="24" height="24" viewBox="0 0 24 24" fill="none" xmlns="http://www.w3.org/2000/svg">
<path fill-rule="evenodd" clip-rule="evenodd" d="M1 20.24C1 19.82 1.344 19.48 1.767 19.48H22.233C22.656 19.48 23 19.82 23 20.24C23 20.66 22.656 21 22.233 21H1.767C1.56455 21.0008 1.37005 20.9212 1.22624 20.7787C1.08243 20.6362 1.00106 20.4425 1 20.24ZM3.69 3.89C2.79 4.78 2.79 6.214 2.79 9.08V14.147C2.79 16.057 2.79 17.013 3.39 17.607C3.99 18.201 4.954 18.2 6.884 18.2H17.116C19.046 18.2 20.011 18.2 20.61 17.606C21.21 17.013 21.21 16.057 21.21 14.146V9.08C21.21 6.214 21.21 4.78 20.31 3.89C19.411 3 17.964 3 15.07 3H8.93C6.036 3 4.589 3 3.69 3.89ZM8.163 15.16C8.163 14.74 8.506 14.4 8.93 14.4H15.07C15.494 14.4 15.837 14.74 15.837 15.16C15.837 15.58 15.494 15.92 15.07 15.92H8.93C8.72755 15.9208 8.53305 15.8412 8.38924 15.6987C8.24543 15.5562 8.16406 15.3625 8.163 15.16Z" fill="black"/>
</svg>
