<svg width="24" height="24" viewBox="0 0 24 24" fill="none" xmlns="http://www.w3.org/2000/svg">
<path fill-rule="evenodd" clip-rule="evenodd" d="M20.5202 2.08403C20.7337 2.11889 20.926 2.23314 21.0587 2.40386C21.1915 2.57459 21.2548 2.78917 21.2359 3.0046L21.2278 3.06803C20.8484 5.39232 20.3439 7.30489 19.7145 8.80575C19.1431 10.1677 18.1745 11.7773 16.8088 13.6345L16.4737 14.0849L16.3001 14.3137C15.7686 15.0111 15.4421 15.8428 15.3572 16.7155C15.2384 17.9432 14.9765 18.8219 14.5717 19.3516C13.1088 20.9639 11.7497 22.0166 10.4942 22.5097C10.4264 22.5364 10.353 22.5453 10.2808 22.5356C10.2086 22.526 10.1401 22.4981 10.0817 22.4546C10.0233 22.4111 9.97689 22.3534 9.94695 22.2871C9.917 22.2207 9.90446 22.1477 9.91052 22.0752L10.2384 18.143C10.2432 18.0849 10.2362 18.0264 10.2176 17.9711C10.1991 17.9158 10.1695 17.8648 10.1305 17.8214C10.0916 17.7779 10.0442 17.7429 9.9913 17.7184C9.93836 17.6939 9.88098 17.6804 9.82266 17.6789L9.77295 17.6806C9.09066 17.742 8.40452 17.4706 7.71452 16.8663C7.10681 16.3343 6.78523 15.7979 6.74981 15.257L6.74638 15.1615C6.74619 15.0957 6.73086 15.0308 6.70158 14.9719C6.67229 14.913 6.62983 14.8616 6.57749 14.8217C6.52515 14.7819 6.46434 14.7546 6.39976 14.742C6.33518 14.7294 6.26857 14.7319 6.20509 14.7492L3.00495 15.6217C2.9309 15.6419 2.8528 15.6418 2.77881 15.6214C2.70481 15.6011 2.63764 15.5612 2.5843 15.5061C2.53096 15.4509 2.49342 15.3824 2.47559 15.3078C2.45776 15.2331 2.46031 15.1551 2.48295 15.0817L2.50009 15.0346L2.67109 14.6532L2.83695 14.2893L2.99809 13.9435L3.15452 13.6156L3.30666 13.3053L3.38081 13.157L3.52524 12.8737L3.66538 12.608L3.73395 12.482L3.86681 12.2437L3.99538 12.023C4.05823 11.9173 4.11938 11.8182 4.17881 11.7256L4.29538 11.5499C4.44766 11.327 4.58738 11.152 4.71452 11.0249C5.18852 10.5506 6.11466 10.1132 7.49295 9.7126C8.21026 9.50408 8.86061 9.11168 9.37952 8.57432C9.50809 8.44089 9.63552 8.31032 9.76181 8.1826L10.1364 7.80717C10.432 7.51405 10.7323 7.22572 11.0372 6.94232L11.3839 6.62517L11.7225 6.32517C12.6145 5.54689 13.4214 4.94618 14.1431 4.52303C14.5308 4.29589 14.9817 4.06446 15.4957 3.82875L15.8475 3.67103L16.0305 3.59175L16.4107 3.43232C16.5404 3.37889 16.6732 3.32532 16.8092 3.2716L17.2271 3.1096L17.6629 2.94675L18.1181 2.78218L18.5917 2.61675L19.0837 2.4496L19.3365 2.36603L19.8572 2.19718L20.1242 2.11232C20.2522 2.07203 20.3878 2.06234 20.5202 2.08403ZM6.42881 16.7142C6.58623 16.7147 6.73881 16.731 6.88652 16.763C6.54938 16.9262 6.33595 17.4967 6.24623 18.4747L6.23552 18.6046C6.23071 18.6665 6.23941 18.7287 6.261 18.7869C6.2826 18.8451 6.31659 18.8979 6.3606 18.9417C6.40462 18.9855 6.45763 19.0191 6.51595 19.0404C6.57427 19.0617 6.63651 19.07 6.69838 19.0649C7.74666 18.9763 8.35495 18.7553 8.52323 18.4019C8.55523 18.549 8.57138 18.7007 8.57166 18.857C8.57166 19.6456 8.00023 20.217 6.85738 20.5713L5.01152 20.7573C4.94861 20.7637 4.88507 20.756 4.82546 20.7349C4.76586 20.7138 4.71166 20.6797 4.66676 20.6352C4.62187 20.5907 4.58738 20.5368 4.56578 20.4773C4.54417 20.4179 4.53599 20.3544 4.54181 20.2915L4.71452 18.4285C5.06852 17.2856 5.63995 16.7142 6.42881 16.7142ZM15.2145 6.85703C14.703 6.85703 14.2125 7.06022 13.8508 7.4219C13.4891 7.78357 13.2859 8.27411 13.2859 8.7856C13.2859 9.29709 13.4891 9.78763 13.8508 10.1493C14.2125 10.511 14.703 10.7142 15.2145 10.7142C15.726 10.7142 16.2165 10.511 16.5782 10.1493C16.9399 9.78763 17.1431 9.29709 17.1431 8.7856C17.1431 8.27411 16.9399 7.78357 16.5782 7.4219C16.2165 7.06022 15.726 6.85703 15.2145 6.85703Z" fill="black"/>
</svg>
