<svg width="20" height="22" viewBox="0 0 20 22" fill="none" xmlns="http://www.w3.org/2000/svg">
<path fill-rule="evenodd" clip-rule="evenodd" d="M10 0C15.523 0 20 4.477 20 10C20 15.523 15.523 20 10 20C4.477 20 0 15.523 0 10C0 4.477 4.477 0 10 0ZM10 11C8.78223 11 7.60633 11.4445 6.693 12.25C6.49409 12.4254 6.37302 12.6727 6.35642 12.9374C6.33982 13.2021 6.42906 13.4626 6.6045 13.6615C6.77994 13.8604 7.02721 13.9815 7.29192 13.9981C7.55663 14.0147 7.81709 13.9254 8.016 13.75C8.56395 13.2668 9.2694 13.0001 10 13C10.7309 12.9982 11.437 13.2651 11.984 13.75C12.1829 13.9256 12.4434 14.0149 12.7082 13.9984C12.973 13.9819 13.2204 13.8609 13.396 13.662C13.5716 13.4631 13.6609 13.2026 13.6444 12.9378C13.6279 12.673 13.5069 12.4256 13.308 12.25C12.3944 11.4443 11.2181 10.9998 10 11ZM6.5 6C6.10218 6 5.72064 6.15804 5.43934 6.43934C5.15804 6.72064 5 7.10218 5 7.5C5 7.89782 5.15804 8.27936 5.43934 8.56066C5.72064 8.84196 6.10218 9 6.5 9C6.89782 9 7.27936 8.84196 7.56066 8.56066C7.84196 8.27936 8 7.89782 8 7.5C8 7.10218 7.84196 6.72064 7.56066 6.43934C7.27936 6.15804 6.89782 6 6.5 6ZM13.5 6C13.1022 6 12.7206 6.15804 12.4393 6.43934C12.158 6.72064 12 7.10218 12 7.5C12 7.89782 12.158 8.27936 12.4393 8.56066C12.7206 8.84196 13.1022 9 13.5 9C13.8978 9 14.2794 8.84196 14.5607 8.56066C14.842 8.27936 15 7.89782 15 7.5C15 7.10218 14.842 6.72064 14.5607 6.43934C14.2794 6.15804 13.8978 6 13.5 6Z" fill="#9EFF00"/>
</svg>
