<svg width="30" height="30" viewBox="0 0 30 30" fill="none" xmlns="http://www.w3.org/2000/svg">
<path d="M24.3752 9.375L22.5127 11.2375L18.7627 7.4875L20.6252 5.625C21.1502 5.1 21.8252 4.85 22.5002 4.85C23.1752 4.85 23.8502 5.1 24.3752 5.625C25.4127 6.6625 25.4127 8.3375 24.3752 9.375Z" fill="#9EFF00"/>
<path d="M21.6373 12.125L8.1248 25.625C7.08731 26.6625 5.4123 26.6625 4.3748 25.625C3.3373 24.5875 3.3373 22.9125 4.3748 21.875L17.8873 8.375L21.6373 12.125Z" fill="#9EFF00"/>
<path d="M12.4372 4.375L12.9497 2.6375C12.9997 2.475 12.9497 2.3 12.8372 2.175C12.7247 2.05 12.5247 2 12.3622 2.05L10.6247 2.5625L8.88716 2.05C8.72466 2 8.54965 2.05 8.42465 2.1625C8.29965 2.2875 8.26216 2.4625 8.31216 2.625L8.81216 4.375L8.29965 6.1125C8.24965 6.275 8.29966 6.45 8.41216 6.575C8.53716 6.7 8.71215 6.7375 8.87465 6.6875L10.6247 6.1875L12.3622 6.7C12.4122 6.7125 12.4497 6.725 12.4997 6.725C12.6247 6.725 12.7372 6.675 12.8372 6.5875C12.9622 6.4625 12.9997 6.2875 12.9497 6.125L12.4372 4.375Z" fill="#9EFF00"/>
<path d="M7.43715 11.875L7.94965 10.1375C7.99965 9.975 7.94965 9.8 7.83715 9.675C7.71215 9.55 7.53715 9.5125 7.37465 9.5625L5.62465 10.0625L3.88715 9.55C3.72465 9.5 3.54965 9.55 3.42465 9.6625C3.29965 9.7875 3.26215 9.9625 3.31215 10.125L3.81215 11.875L3.29965 13.6125C3.24965 13.775 3.29965 13.95 3.41215 14.075C3.53715 14.2 3.71215 14.2375 3.87465 14.1875L5.61215 13.675L7.34965 14.1875C7.38715 14.2 7.43715 14.2 7.48715 14.2C7.61215 14.2 7.72465 14.15 7.82465 14.0625C7.94965 13.9375 7.98715 13.7625 7.93715 13.6L7.43715 11.875Z" fill="#9EFF00"/>
<path d="M26.1876 18.125L26.7001 16.3875C26.7501 16.225 26.7001 16.05 26.5876 15.925C26.4626 15.8 26.2876 15.7625 26.1251 15.8125L24.3876 16.325L22.6501 15.8125C22.4876 15.7625 22.3126 15.8125 22.1876 15.925C22.0626 16.05 22.0251 16.225 22.0751 16.3875L22.5876 18.125L22.0751 19.8625C22.0251 20.025 22.0751 20.2 22.1876 20.325C22.3126 20.45 22.4876 20.4875 22.6501 20.4375L24.3876 19.925L26.1251 20.4375C26.1626 20.45 26.2126 20.45 26.2626 20.45C26.3876 20.45 26.5001 20.4 26.6001 20.3125C26.7251 20.1875 26.7626 20.0125 26.7126 19.85L26.1876 18.125Z" fill="#9EFF00"/>
</svg>
