<svg width="30" height="30" viewBox="0 0 30 30" fill="none" xmlns="http://www.w3.org/2000/svg">
<g clip-path="url(#clip0_57_55787)">
<path d="M25.7749 10.5625C24.4624 4.7875 19.4249 2.1875 14.9999 2.1875C14.9999 2.1875 14.9999 2.1875 14.9874 2.1875C10.5749 2.1875 5.52488 4.775 4.21238 10.55C2.74988 17 6.69988 22.4625 10.2749 25.9C11.5999 27.175 13.2999 27.8125 14.9999 27.8125C16.6999 27.8125 18.3999 27.175 19.7124 25.9C23.2874 22.4625 27.2374 17.0125 25.7749 10.5625ZM14.9999 16.825C12.8249 16.825 11.0624 15.0625 11.0624 12.8875C11.0624 10.7125 12.8249 8.95 14.9999 8.95C17.1749 8.95 18.9374 10.7125 18.9374 12.8875C18.9374 15.0625 17.1749 16.825 14.9999 16.825Z" fill="black"/>
</g>
<defs>
<clipPath id="clip0_57_55787">
<rect width="30" height="30" fill="white"/>
</clipPath>
</defs>
</svg>
