<svg width="108" height="20" viewBox="0 0 108 20" fill="none" xmlns="http://www.w3.org/2000/svg">
<path d="M9.10326 1.81699C9.47008 1.07374 10.5299 1.07374 10.8967 1.81699L12.7063 5.48347C12.8519 5.77862 13.1335 5.98319 13.4592 6.03051L17.5054 6.61846C18.3256 6.73765 18.6531 7.74562 18.0596 8.32416L15.1318 11.1781C14.8961 11.4079 14.7885 11.7389 14.8442 12.0632L15.5353 16.0931C15.6754 16.91 14.818 17.533 14.0844 17.1473L10.4653 15.2446C10.174 15.0915 9.82598 15.0915 9.53466 15.2446L5.91562 17.1473C5.18199 17.533 4.32456 16.91 4.46467 16.0931L5.15585 12.0632C5.21148 11.7389 5.10393 11.4079 4.86825 11.1781L1.94038 8.32416C1.34687 7.74562 1.67438 6.73765 2.4946 6.61846L6.54081 6.03051C6.86652 5.98319 7.14808 5.77862 7.29374 5.48347L9.10326 1.81699Z" fill="#FFD400"/>
<path d="M29.1033 1.81699C29.4701 1.07374 30.5299 1.07374 30.8967 1.81699L32.7063 5.48347C32.8519 5.77862 33.1335 5.98319 33.4592 6.03051L37.5054 6.61846C38.3256 6.73765 38.6531 7.74562 38.0596 8.32416L35.1318 11.1781C34.8961 11.4079 34.7885 11.7389 34.8442 12.0632L35.5353 16.0931C35.6754 16.91 34.818 17.533 34.0844 17.1473L30.4653 15.2446C30.174 15.0915 29.826 15.0915 29.5347 15.2446L25.9156 17.1473C25.182 17.533 24.3246 16.91 24.4647 16.0931L25.1558 12.0632C25.2115 11.7389 25.1039 11.4079 24.8682 11.1781L21.9404 8.32416C21.3469 7.74562 21.6744 6.73765 22.4946 6.61846L26.5408 6.03051C26.8665 5.98319 27.1481 5.77862 27.2937 5.48347L29.1033 1.81699Z" fill="#FFD400"/>
<path d="M49.1033 1.81699C49.4701 1.07374 50.5299 1.07374 50.8967 1.81699L52.7063 5.48347C52.8519 5.77862 53.1335 5.98319 53.4592 6.03051L57.5054 6.61846C58.3256 6.73765 58.6531 7.74562 58.0596 8.32416L55.1318 11.1781C54.8961 11.4079 54.7885 11.7389 54.8442 12.0632L55.5353 16.0931C55.6754 16.91 54.818 17.533 54.0844 17.1473L50.4653 15.2446C50.174 15.0915 49.826 15.0915 49.5347 15.2446L45.9156 17.1473C45.182 17.533 44.3246 16.91 44.4647 16.0931L45.1558 12.0632C45.2115 11.7389 45.1039 11.4079 44.8682 11.1781L41.9404 8.32416C41.3469 7.74562 41.6744 6.73765 42.4946 6.61846L46.5408 6.03051C46.8665 5.98319 47.1481 5.77862 47.2937 5.48347L49.1033 1.81699Z" fill="#FFD400"/>
<path d="M69.1033 1.81699C69.4701 1.07374 70.5299 1.07374 70.8967 1.81699L72.7063 5.48347C72.8519 5.77862 73.1335 5.98319 73.4592 6.03051L77.5054 6.61846C78.3256 6.73765 78.6531 7.74562 78.0596 8.32416L75.1318 11.1781C74.8961 11.4079 74.7885 11.7389 74.8442 12.0632L75.5353 16.0931C75.6754 16.91 74.818 17.533 74.0844 17.1473L70.4653 15.2446C70.174 15.0915 69.826 15.0915 69.5347 15.2446L65.9156 17.1473C65.182 17.533 64.3246 16.91 64.4647 16.0931L65.1558 12.0632C65.2115 11.7389 65.1039 11.4079 64.8682 11.1781L61.9404 8.32416C61.3469 7.74562 61.6744 6.73765 62.4946 6.61846L66.5408 6.03051C66.8665 5.98319 67.1481 5.77862 67.2937 5.48347L69.1033 1.81699Z" fill="#FFD400"/>
<path d="M89.1033 1.81699C89.4701 1.07374 90.5299 1.07374 90.8967 1.81699L92.7063 5.48347C92.8519 5.77862 93.1335 5.98319 93.4592 6.03051L97.5054 6.61846C98.3256 6.73765 98.6531 7.74562 98.0596 8.32416L95.1318 11.1781C94.8961 11.4079 94.7885 11.7389 94.8442 12.0632L95.5353 16.0931C95.6754 16.91 94.818 17.533 94.0844 17.1473L90.4653 15.2446C90.174 15.0915 89.826 15.0915 89.5347 15.2446L85.9156 17.1473C85.182 17.533 84.3246 16.91 84.4647 16.0931L85.1558 12.0632C85.2115 11.7389 85.1039 11.4079 84.8682 11.1781L81.9404 8.32416C81.3469 7.74562 81.6744 6.73765 82.4946 6.61846L86.5408 6.03051C86.8665 5.98319 87.1481 5.77862 87.2937 5.48347L89.1033 1.81699Z" fill="#FFD400"/>
</svg>
