<svg width="99" height="98" viewBox="0 0 99 98" fill="none" xmlns="http://www.w3.org/2000/svg">
<path fill-rule="evenodd" clip-rule="evenodd" d="M49.449 97.8973C76.3897 97.8973 98.2295 76.0576 98.2295 49.1168C98.2295 22.1762 76.3897 0.336426 49.449 0.336426C22.5082 0.336426 0.668457 22.1762 0.668457 49.1168C0.668457 76.0576 22.5082 97.8973 49.449 97.8973ZM64.6668 23.0604C65.4075 20.4292 62.8541 18.8733 60.5222 20.5347L27.9687 43.7256C25.4397 45.5273 25.8375 49.1168 28.5663 49.1168H37.1385V49.0505H53.8453L40.2324 53.8537L34.2312 75.1734C33.4905 77.8046 36.0436 79.3605 38.3758 77.699L70.9292 54.5083C73.4583 52.7066 73.0602 49.1168 70.3317 49.1168H57.3322L64.6668 23.0604Z" fill="#9EFF00"/>
</svg>
