<svg width="43" height="43" viewBox="0 0 43 43" fill="none" xmlns="http://www.w3.org/2000/svg">
<path d="M16.3291 4.26562C11.8136 4.26562 8.14258 7.93665 8.14258 12.4522C8.14258 16.8815 11.6068 20.4664 16.1223 20.6215C16.2602 20.6043 16.3981 20.6043 16.5015 20.6215C16.5359 20.6215 16.5532 20.6215 16.5877 20.6215C16.6049 20.6215 16.6049 20.6215 16.6221 20.6215C21.0342 20.4664 24.4984 16.8815 24.5157 12.4522C24.5157 7.93665 20.8447 4.26562 16.3291 4.26562Z" fill="black"/>
<path d="M25.0844 25.2055C20.2759 21.9998 12.4341 21.9998 7.59107 25.2055C5.40224 26.6705 4.1958 28.6525 4.1958 30.7724C4.1958 32.8923 5.40224 34.857 7.57383 36.3048C9.98671 37.9248 13.1579 38.7349 16.3291 38.7349C19.5003 38.7349 22.6716 37.9248 25.0844 36.3048C27.256 34.8398 28.4625 32.875 28.4625 30.7379C28.4452 28.618 27.256 26.6533 25.0844 25.2055Z" fill="black"/>
<path d="M35.2703 13.4686C35.5461 16.8121 33.1677 19.742 29.8758 20.1384C29.8586 20.1384 29.8586 20.1384 29.8413 20.1384H29.7896C29.6862 20.1384 29.5828 20.1384 29.4966 20.1729C27.8249 20.2591 26.291 19.7248 25.1362 18.7424C26.9114 17.1568 27.9283 14.7784 27.7215 12.1932C27.6008 10.7972 27.1182 9.52178 26.3944 8.43599C27.0493 8.10852 27.8076 7.90171 28.5832 7.83277C31.9612 7.53977 34.9773 10.0561 35.2703 13.4686Z" fill="black"/>
<path d="M38.7171 29.4111C38.5792 31.0828 37.5106 32.5306 35.7182 33.513C33.9947 34.4609 31.8231 34.909 29.6688 34.8573C30.9097 33.737 31.6336 32.341 31.7714 30.8588C31.9438 28.7217 30.9269 26.6707 28.8932 25.0334C27.7385 24.12 26.3942 23.3961 24.9292 22.8618C28.7381 21.7588 33.5294 22.4999 36.4766 24.8783C38.0622 26.1537 38.8722 27.7565 38.7171 29.4111Z" fill="black"/>
</svg>
