<svg width="43" height="43" viewBox="0 0 43 43" fill="none" xmlns="http://www.w3.org/2000/svg">
<path d="M27.3427 9.79749L29.7728 14.6577C30.1003 15.3299 30.9793 15.9676 31.7204 16.1054L36.1153 16.8293C38.9246 17.2946 39.5795 19.3284 37.563 21.3621L34.1333 24.7918C33.5645 25.3606 33.2371 26.4808 33.4266 27.2909L34.409 31.5306C35.1846 34.8742 33.3922 36.184 30.445 34.4261L26.3259 31.9787C25.5848 31.5306 24.3439 31.5306 23.6028 31.9787L19.4836 34.4261C16.5365 36.1668 14.7441 34.8742 15.5196 31.5306L16.502 27.2909C16.6571 26.4636 16.3297 25.3433 15.7609 24.7746L12.3312 21.3448C10.3147 19.3284 10.9696 17.2946 13.7789 16.8121L18.1738 16.0882C18.9149 15.9676 19.7939 15.3126 20.1213 14.6405L22.5514 9.78025C23.8785 7.16055 26.0157 7.16055 27.3427 9.79749Z" fill="black"/>
<path d="M14.6057 10.7283H4.26478C3.55815 10.7283 2.97217 10.1423 2.97217 9.43568C2.97217 8.72905 3.55815 8.14307 4.26478 8.14307H14.6057C15.3123 8.14307 15.8983 8.72905 15.8983 9.43568C15.8983 10.1423 15.3123 10.7283 14.6057 10.7283Z" fill="black"/>
<path d="M9.43524 34.857H4.26478C3.55815 34.857 2.97217 34.271 2.97217 33.5643C2.97217 32.8577 3.55815 32.2717 4.26478 32.2717H9.43524C10.1419 32.2717 10.7278 32.8577 10.7278 33.5643C10.7278 34.271 10.1419 34.857 9.43524 34.857Z" fill="black"/>
<path d="M5.98827 22.7925H4.26478C3.55815 22.7925 2.97217 22.2065 2.97217 21.4999C2.97217 20.7933 3.55815 20.2073 4.26478 20.2073H5.98827C6.6949 20.2073 7.28088 20.7933 7.28088 21.4999C7.28088 22.2065 6.6949 22.7925 5.98827 22.7925Z" fill="black"/>
</svg>
