<svg width="43" height="43" viewBox="0 0 43 43" fill="none" xmlns="http://www.w3.org/2000/svg">
<path d="M37.4427 32.6514L34.5989 33.3235C33.9612 33.4786 33.4614 33.9612 33.3235 34.5989L32.7203 37.1324C32.3929 38.5112 30.6349 38.9421 29.7215 37.8563L24.5682 31.9275C24.1546 31.4449 24.3787 30.6866 24.9991 30.5315C28.0497 29.7904 30.79 28.0841 32.8065 25.654C33.134 25.2576 33.7199 25.2059 34.0819 25.5679L37.908 29.394C39.2179 30.7038 38.7525 32.3411 37.4427 32.6514Z" fill="black"/>
<path d="M5.47199 32.6514L8.31574 33.3235C8.95343 33.4786 9.45324 33.9612 9.59112 34.5989L10.1943 37.1324C10.5218 38.5112 12.2798 38.9421 13.1932 37.8563L18.3464 31.9275C18.7601 31.4449 18.536 30.6866 17.9156 30.5315C14.865 29.7904 12.1246 28.0841 10.1082 25.654C9.78071 25.2576 9.19472 25.2059 8.83279 25.5679L5.00665 29.394C3.6968 30.7038 4.16215 32.3411 5.47199 32.6514Z" fill="black"/>
<path d="M21.4999 4.26562C14.8301 4.26562 9.43555 9.66013 9.43555 16.33C9.43555 18.8291 10.1766 21.1213 11.452 23.0344C13.3134 25.792 16.2605 27.7395 19.6903 28.2393C20.2763 28.3427 20.8795 28.3944 21.4999 28.3944C22.1204 28.3944 22.7236 28.3427 23.3096 28.2393C26.7393 27.7395 29.6865 25.792 31.5479 23.0344C32.8232 21.1213 33.5643 18.8291 33.5643 16.33C33.5643 9.66013 28.1698 4.26562 21.4999 4.26562ZM26.7738 15.9509L25.3433 17.3813C25.102 17.6226 24.9641 18.088 25.0503 18.4327L25.464 20.2079C25.7914 21.6039 25.0503 22.1554 23.8094 21.4143L22.0859 20.3974C21.7757 20.2079 21.2587 20.2079 20.9484 20.3974L19.2249 21.4143C17.984 22.1382 17.2429 21.6039 17.5704 20.2079L17.984 18.4327C18.053 18.1052 17.9323 17.6226 17.691 17.3813L16.2261 15.9509C15.3816 15.1063 15.6573 14.2618 16.8293 14.0723L18.6734 13.762C18.9837 13.7103 19.3456 13.4346 19.4835 13.1588L20.5003 11.1251C21.0518 10.0221 21.948 10.0221 22.4996 11.1251L23.5164 13.1588C23.6543 13.4346 24.0162 13.7103 24.3437 13.762L26.1878 14.0723C27.3426 14.2618 27.6183 15.1063 26.7738 15.9509Z" fill="black"/>
</svg>
