<svg width="43" height="43" viewBox="0 0 43 43" fill="none" xmlns="http://www.w3.org/2000/svg">
<path d="M4.95459 29.1817C4.95459 25.2655 8.1293 22.0908 12.0455 22.0908H21.5V31.5454C21.5 35.4616 18.3253 38.6363 14.4091 38.6363H12.0455C8.1293 38.6363 4.95459 35.4616 4.95459 31.5454V29.1817Z" fill="black"/>
<path d="M39.2275 29.1817C39.2275 25.2655 36.0528 22.0908 32.1366 22.0908H22.6821V31.5454C22.6821 35.4616 25.8568 38.6363 29.773 38.6363H32.1366C36.0528 38.6363 39.2275 35.4616 39.2275 31.5454V29.1817Z" fill="black"/>
<path d="M4.95459 13.8183C4.95459 17.7345 8.1293 20.9092 12.0455 20.9092H21.5V11.4546C21.5 7.53844 18.3253 4.36373 14.4091 4.36373H12.0455C8.1293 4.36373 4.95459 7.53843 4.95459 11.4546V13.8183Z" fill="black"/>
<path d="M39.2275 13.8183C39.2275 17.7345 36.0528 20.9092 32.1366 20.9092H22.6821V11.4546C22.6821 7.53844 25.8568 4.36373 29.773 4.36373H32.1366C36.0528 4.36373 39.2275 7.53843 39.2275 11.4546V13.8183Z" fill="black"/>
</svg>
