<svg width="25" height="24" viewBox="0 0 25 24" fill="none" xmlns="http://www.w3.org/2000/svg">
<path d="M22.5 4.85018V16.7402C22.5 17.7102 21.71 18.6002 20.74 18.7202L20.43 18.7602C18.79 18.9802 16.48 19.6602 14.62 20.4402C13.97 20.7102 13.25 20.2202 13.25 19.5102V5.60018C13.25 5.23018 13.46 4.89018 13.79 4.71018C15.62 3.72018 18.39 2.84018 20.27 2.68018H20.33C21.53 2.68018 22.5 3.65018 22.5 4.85018Z" fill="#9EFF00"/>
<path d="M11.21 4.71018C9.37999 3.72018 6.60999 2.84018 4.72999 2.68018H4.65999C3.45999 2.68018 2.48999 3.65018 2.48999 4.85018V16.7402C2.48999 17.7102 3.27999 18.6002 4.24999 18.7202L4.55999 18.7602C6.19999 18.9802 8.50999 19.6602 10.37 20.4402C11.02 20.7102 11.74 20.2202 11.74 19.5102V5.60018C11.74 5.22018 11.54 4.89018 11.21 4.71018ZM5.49999 7.74018H7.74999C8.15999 7.74018 8.49999 8.08018 8.49999 8.49018C8.49999 8.91018 8.15999 9.24018 7.74999 9.24018H5.49999C5.08999 9.24018 4.74999 8.91018 4.74999 8.49018C4.74999 8.08018 5.08999 7.74018 5.49999 7.74018ZM8.49999 12.2402H5.49999C5.08999 12.2402 4.74999 11.9102 4.74999 11.4902C4.74999 11.0802 5.08999 10.7402 5.49999 10.7402H8.49999C8.90999 10.7402 9.24999 11.0802 9.24999 11.4902C9.24999 11.9102 8.90999 12.2402 8.49999 12.2402Z" fill="#9EFF00"/>
</svg>
