<svg width="30" height="30" viewBox="0 0 30 30" fill="none" xmlns="http://www.w3.org/2000/svg">
<path d="M17.5 20C17.5 22.2125 16.5375 24.2125 15 25.575C13.675 26.775 11.925 27.5 10 27.5C5.8625 27.5 2.5 24.1375 2.5 20C2.5 17.4177 3.81944 15.1358 5.8124 13.7902C6.06387 13.6205 6.39947 13.7394 6.52918 14.0137C7.69387 16.4768 9.89654 18.3249 12.525 19.0375C13.3125 19.2625 14.1375 19.375 15 19.375C15.6571 19.375 16.2843 19.3078 16.8932 19.1848C17.1808 19.1268 17.4676 19.3117 17.4869 19.6045C17.4956 19.7367 17.5 19.8694 17.5 20Z" fill="#292D32"/>
<path d="M22.5 10C22.5 10.975 22.3125 11.9125 21.975 12.7625C21.1125 14.9375 19.2625 16.6125 16.975 17.2375C16.35 17.4125 15.6875 17.5 15 17.5C14.3125 17.5 13.65 17.4125 13.025 17.2375C10.7375 16.6125 8.8875 14.9375 8.025 12.7625C7.6875 11.9125 7.5 10.975 7.5 10C7.5 5.8625 10.8625 2.5 15 2.5C19.1375 2.5 22.5 5.8625 22.5 10Z" fill="#292D32"/>
<path d="M27.5 20C27.5 24.1375 24.1375 27.5 20 27.5C19.0083 27.5 18.0567 27.3073 17.1903 26.9541C16.8746 26.8255 16.8154 26.4178 17.0421 26.1632C18.5413 24.4794 19.375 22.2912 19.375 20C19.375 19.575 19.3375 19.15 19.275 18.75L19.271 18.7251C19.2362 18.5093 19.3462 18.2971 19.5377 18.1918C21.2444 17.253 22.6303 15.7965 23.4711 14.0146C23.6007 13.74 23.9365 13.6207 24.1882 13.7906C26.1808 15.1362 27.5 17.418 27.5 20Z" fill="#292D32"/>
</svg>
