<svg width="35" height="35" viewBox="0 0 35 35" fill="none" xmlns="http://www.w3.org/2000/svg">
<path d="M20.0227 5.1186L22.5893 10.2519C22.9393 10.9665 23.8727 11.6519 24.6602 11.7832L29.3122 12.5561C32.2872 13.0519 32.9872 15.2103 30.8435 17.3394L27.2268 20.9561C26.6143 21.5686 26.2789 22.7498 26.4685 23.5957L27.5039 28.0728C28.3206 31.6165 26.4393 32.9873 23.3039 31.1353L18.9435 28.554C18.156 28.0873 16.8581 28.0873 16.056 28.554L11.6956 31.1353C8.57475 32.9873 6.67891 31.6019 7.49558 28.0728L8.531 23.5957C8.72058 22.7498 8.38516 21.5686 7.77266 20.9561L4.156 17.3394C2.02683 15.2103 2.71225 13.0519 5.68725 12.5561L10.3393 11.7832C11.1122 11.6519 12.0456 10.9665 12.3956 10.2519L14.9622 5.1186C16.3622 2.33318 18.6372 2.33318 20.0227 5.1186Z" fill="#9EFF00"/>
</svg>
