<svg width="35" height="34" viewBox="0 0 35 34" fill="none" xmlns="http://www.w3.org/2000/svg">
<path d="M22.7096 20.476C22.5875 20.3304 22.519 20.1399 22.5375 19.9285L23.2203 12.1236L15.4154 11.4408C15.0068 11.405 14.6983 11.0373 14.734 10.6288C14.7698 10.2202 15.1375 9.91165 15.546 9.9474L24.0976 10.6956C24.5062 10.7313 24.8147 11.099 24.779 11.5076L24.0308 20.0592C23.9951 20.4677 23.6274 20.7763 23.2188 20.7405C23.0139 20.7297 22.8317 20.6215 22.7096 20.476Z" fill="#5A5A67"/>
<path d="M10.435 22.8519C10.1715 22.5379 10.2134 22.0589 10.5274 21.7953L23.42 10.9772C23.7341 10.7137 24.2131 10.7556 24.4766 11.0697C24.7401 11.3837 24.6982 11.8627 24.3842 12.1263L11.4916 22.9444C11.1775 23.2079 10.6985 23.166 10.435 22.8519Z" fill="#5A5A67"/>
</svg>
