<svg width="24" height="24" viewBox="0 0 24 24" fill="none" xmlns="http://www.w3.org/2000/svg">
<path d="M13.68 18.0701C13.68 17.8801 13.75 17.6901 13.9 17.5401L19.44 12.0001L13.9 6.46012C13.61 6.17012 13.61 5.69012 13.9 5.40012C14.19 5.11012 14.67 5.11012 14.96 5.40012L21.03 11.4701C21.32 11.7601 21.32 12.2401 21.03 12.5301L14.96 18.6001C14.67 18.8901 14.19 18.8901 13.9 18.6001C13.75 18.4601 13.68 18.2601 13.68 18.0701Z" fill="black"/>
<path d="M2.75002 12C2.75002 11.59 3.09002 11.25 3.50002 11.25L20.33 11.25C20.74 11.25 21.08 11.59 21.08 12C21.08 12.41 20.74 12.75 20.33 12.75L3.50002 12.75C3.09002 12.75 2.75002 12.41 2.75002 12Z" fill="black"/>
</svg>
