<svg width="182" height="50" viewBox="0 0 182 50" fill="none" xmlns="http://www.w3.org/2000/svg">
<rect x="3" y="2" width="45" height="45" rx="22.5" fill="black"/>
<path fill-rule="evenodd" clip-rule="evenodd" d="M25.2245 48.9488C38.6949 48.9488 49.6148 38.0289 49.6148 24.5585C49.6148 11.0882 38.6949 0.168335 25.2245 0.168335C11.7541 0.168335 0.834248 11.0882 0.834248 24.5585C0.834248 38.0289 11.7541 48.9488 25.2245 48.9488ZM32.8334 11.5303C33.2038 10.2147 31.9271 9.43678 30.7611 10.2675L14.4844 21.8629C13.2199 22.7638 13.4188 24.5585 14.7832 24.5585H19.0693V24.5254H27.4227L20.6162 26.927L17.6156 37.5868C17.2452 38.9024 18.5218 39.6804 19.6879 38.8496L35.9646 27.2543C37.2291 26.3534 37.0301 24.5585 35.6659 24.5585H29.1661L32.8334 11.5303Z" fill="#9EFF00"/>
<path d="M62.448 38V12.584H66.408L68.1 17.66V38H62.448ZM79.98 38L65.004 18.812L66.408 12.584L81.384 31.772L79.98 38ZM79.98 38L78.468 32.924V12.584H84.12V38H79.98ZM97.1621 38.396C95.2661 38.396 93.5741 38.012 92.0861 37.244C90.6221 36.452 89.4701 35.36 88.6301 33.968C87.7901 32.576 87.3701 31.004 87.3701 29.252C87.3701 27.5 87.7781 25.94 88.5941 24.572C89.4341 23.18 90.5621 22.088 91.9781 21.296C93.3941 20.504 94.9901 20.108 96.7661 20.108C98.4941 20.108 100.018 20.48 101.338 21.224C102.658 21.968 103.69 23 104.434 24.32C105.202 25.64 105.586 27.152 105.586 28.856C105.586 29.168 105.562 29.504 105.514 29.864C105.49 30.2 105.43 30.596 105.334 31.052L90.2501 31.088V27.308L102.994 27.272L100.618 28.856C100.594 27.848 100.438 27.02 100.15 26.372C99.8621 25.7 99.4301 25.196 98.8541 24.86C98.3021 24.5 97.6181 24.32 96.8021 24.32C95.9381 24.32 95.1821 24.524 94.5341 24.932C93.9101 25.316 93.4181 25.868 93.0581 26.588C92.7221 27.308 92.5541 28.184 92.5541 29.216C92.5541 30.248 92.7341 31.136 93.0941 31.88C93.4781 32.6 94.0061 33.164 94.6781 33.572C95.3741 33.956 96.1901 34.148 97.1261 34.148C97.9901 34.148 98.7701 34.004 99.4661 33.716C100.162 33.404 100.774 32.948 101.302 32.348L104.326 35.372C103.462 36.38 102.418 37.136 101.194 37.64C99.9701 38.144 98.6261 38.396 97.1621 38.396ZM118.624 38L114.412 31.196L113.224 30.44L106.348 20.504H112.792L116.716 26.876L117.868 27.596L124.996 38H118.624ZM106.024 38L113.188 27.812L116.32 31.34L112.036 38H106.024ZM117.832 30.404L114.7 26.876L118.66 20.504H124.636L117.832 30.404ZM135.056 38.396C133.256 38.396 131.624 38 130.16 37.208C128.72 36.392 127.58 35.288 126.74 33.896C125.9 32.504 125.48 30.944 125.48 29.216C125.48 27.488 125.9 25.94 126.74 24.572C127.58 23.204 128.72 22.124 130.16 21.332C131.6 20.516 133.232 20.108 135.056 20.108C136.88 20.108 138.512 20.504 139.952 21.296C141.392 22.088 142.532 23.18 143.372 24.572C144.212 25.94 144.632 27.488 144.632 29.216C144.632 30.944 144.212 32.504 143.372 33.896C142.532 35.288 141.392 36.392 139.952 37.208C138.512 38 136.88 38.396 135.056 38.396ZM135.056 33.392C135.848 33.392 136.544 33.224 137.144 32.888C137.744 32.528 138.2 32.036 138.512 31.412C138.848 30.764 139.016 30.032 139.016 29.216C139.016 28.4 138.848 27.692 138.512 27.092C138.176 26.468 137.708 25.988 137.108 25.652C136.532 25.292 135.848 25.112 135.056 25.112C134.288 25.112 133.604 25.292 133.004 25.652C132.404 25.988 131.936 26.468 131.6 27.092C131.264 27.716 131.096 28.436 131.096 29.252C131.096 30.044 131.264 30.764 131.6 31.412C131.936 32.036 132.404 32.528 133.004 32.888C133.604 33.224 134.288 33.392 135.056 33.392ZM147.374 38V20.504H152.882V38H147.374ZM152.882 28.388L150.578 26.588C151.034 24.548 151.802 22.964 152.882 21.836C153.962 20.708 155.462 20.144 157.382 20.144C158.222 20.144 158.954 20.276 159.578 20.54C160.226 20.78 160.79 21.164 161.27 21.692L157.994 25.832C157.754 25.568 157.454 25.364 157.094 25.22C156.734 25.076 156.326 25.004 155.87 25.004C154.958 25.004 154.226 25.292 153.674 25.868C153.146 26.42 152.882 27.26 152.882 28.388ZM169.553 38.36C167.945 38.36 166.505 37.964 165.233 37.172C163.985 36.38 162.989 35.3 162.245 33.932C161.525 32.564 161.165 31.004 161.165 29.252C161.165 27.5 161.525 25.94 162.245 24.572C162.989 23.204 163.985 22.124 165.233 21.332C166.505 20.54 167.945 20.144 169.553 20.144C170.729 20.144 171.785 20.372 172.721 20.828C173.681 21.284 174.461 21.92 175.061 22.736C175.661 23.528 175.997 24.44 176.069 25.472V33.032C175.997 34.064 175.661 34.988 175.061 35.804C174.485 36.596 173.717 37.22 172.757 37.676C171.797 38.132 170.729 38.36 169.553 38.36ZM170.669 33.392C171.845 33.392 172.793 33.008 173.513 32.24C174.233 31.448 174.593 30.452 174.593 29.252C174.593 28.436 174.425 27.716 174.089 27.092C173.777 26.468 173.321 25.988 172.721 25.652C172.145 25.292 171.473 25.112 170.705 25.112C169.937 25.112 169.253 25.292 168.653 25.652C168.077 25.988 167.609 26.468 167.249 27.092C166.913 27.716 166.745 28.436 166.745 29.252C166.745 30.044 166.913 30.752 167.249 31.376C167.585 32 168.053 32.492 168.653 32.852C169.253 33.212 169.925 33.392 170.669 33.392ZM174.377 38V33.284L175.205 29.036L174.377 24.788V20.504H179.777V38H174.377Z" fill="black"/>
</svg>
