<svg width="52" height="52" viewBox="0 0 52 52" fill="none" xmlns="http://www.w3.org/2000/svg">
<path d="M5.63637 35.4546C5.63637 30.6346 9.5437 26.7273 14.3636 26.7273H26V38.3637C26 43.1836 22.0927 47.0909 17.2727 47.0909H14.3636C9.5437 47.0909 5.63637 43.1836 5.63637 38.3637V35.4546Z" fill="black"/>
<path d="M47.8182 35.4546C47.8182 30.6346 43.9108 26.7273 39.0909 26.7273H27.4545V38.3637C27.4545 43.1836 31.3619 47.0909 36.1818 47.0909H39.0909C43.9108 47.0909 47.8182 43.1836 47.8182 38.3637V35.4546Z" fill="black"/>
<path d="M5.63637 16.5454C5.63637 21.3654 9.5437 25.2727 14.3636 25.2727H26V13.6363C26 8.8164 22.0927 4.90907 17.2727 4.90907H14.3636C9.5437 4.90907 5.63637 8.8164 5.63637 13.6363V16.5454Z" fill="black"/>
<path d="M47.8182 16.5454C47.8182 21.3654 43.9108 25.2727 39.0909 25.2727H27.4545V13.6363C27.4545 8.8164 31.3619 4.90907 36.1818 4.90907H39.0909C43.9108 4.90907 47.8182 8.8164 47.8182 13.6363V16.5454Z" fill="black"/>
</svg>
