<svg width="52" height="52" viewBox="0 0 52 52" fill="none" xmlns="http://www.w3.org/2000/svg">
<path d="M45.6212 39.7243L42.1212 40.5516C41.3363 40.7425 40.7212 41.3365 40.5515 42.1213L39.809 45.2395C39.406 46.9365 37.2424 47.4668 36.1181 46.1304L29.7757 38.8334C29.2666 38.2395 29.5424 37.3062 30.306 37.1152C34.0606 36.2031 37.4333 34.1031 39.9151 31.1122C40.3181 30.6243 41.0393 30.5607 41.4848 31.0062L46.1939 35.7152C47.806 37.3274 47.2333 39.3425 45.6212 39.7243Z" fill="black"/>
<path d="M6.27271 39.7243L9.77271 40.5516C10.5576 40.7425 11.1727 41.3365 11.3424 42.1213L12.0848 45.2395C12.4879 46.9365 14.6515 47.4668 15.7757 46.1304L22.1182 38.8334C22.6273 38.2395 22.3515 37.3062 21.5879 37.1152C17.8333 36.2031 14.4606 34.1031 11.9788 31.1122C11.5757 30.6243 10.8545 30.5607 10.4091 31.0062L5.69998 35.7152C4.08786 37.3274 4.66059 39.3425 6.27271 39.7243Z" fill="black"/>
<path d="M25.9999 4.78784C17.7908 4.78784 11.1514 11.4272 11.1514 19.6363C11.1514 22.7121 12.0635 25.5333 13.6332 27.8878C15.9241 31.2818 19.5514 33.6788 23.7726 34.2939C24.4938 34.4212 25.2362 34.4848 25.9999 34.4848C26.7635 34.4848 27.5059 34.4212 28.2271 34.2939C32.4483 33.6788 36.0756 31.2818 38.3665 27.8878C39.9362 25.5333 40.8483 22.7121 40.8483 19.6363C40.8483 11.4272 34.2089 4.78784 25.9999 4.78784ZM32.4908 19.1697L30.7302 20.9303C30.4332 21.2272 30.2635 21.8 30.3696 22.2242L30.8786 24.4091C31.2817 26.1272 30.3696 26.806 28.8423 25.8939L26.7211 24.6424C26.3392 24.4091 25.7029 24.4091 25.3211 24.6424L23.1999 25.8939C21.6726 26.7848 20.7605 26.1272 21.1635 24.4091L21.6726 22.2242C21.7574 21.8212 21.6089 21.2272 21.312 20.9303L19.5089 19.1697C18.4695 18.1303 18.8089 17.0909 20.2514 16.8575L22.5211 16.4757C22.9029 16.4121 23.3483 16.0727 23.518 15.7333L24.7695 13.2303C25.4483 11.8727 26.5514 11.8727 27.2302 13.2303L28.4817 15.7333C28.6514 16.0727 29.0968 16.4121 29.4999 16.4757L31.7696 16.8575C33.1908 17.0909 33.5302 18.1303 32.4908 19.1697Z" fill="black"/>
</svg>
