<svg width="36" height="35" viewBox="0 0 36 35" fill="none" xmlns="http://www.w3.org/2000/svg">
<path d="M18.0001 2.91663C9.96466 2.91663 3.41675 9.46454 3.41675 17.5C3.41675 25.5354 9.96466 32.0833 18.0001 32.0833C26.0355 32.0833 32.5834 25.5354 32.5834 17.5C32.5834 9.46454 26.0355 2.91663 18.0001 2.91663ZM24.3438 22.7062C24.1397 23.0562 23.7751 23.2458 23.3959 23.2458C23.2063 23.2458 23.0167 23.202 22.8417 23.0854L18.3209 20.3875C17.198 19.7166 16.3667 18.2437 16.3667 16.9458V10.9666C16.3667 10.3687 16.8626 9.87288 17.4605 9.87288C18.0584 9.87288 18.5542 10.3687 18.5542 10.9666V16.9458C18.5542 17.4708 18.9917 18.2437 19.4438 18.5062L23.9647 21.2041C24.4897 21.5104 24.6647 22.1812 24.3438 22.7062Z" fill="black"/>
</svg>
