<svg width="36" height="35" viewBox="0 0 36 35" fill="none" xmlns="http://www.w3.org/2000/svg">
<path d="M24.1833 2.91663H11.8166C7.79159 2.91663 6.33325 4.37496 6.33325 8.47288V26.527C6.33325 30.625 7.79159 32.0833 11.8166 32.0833H24.1687C28.2083 32.0833 29.6666 30.625 29.6666 26.527V8.47288C29.6666 4.37496 28.2083 2.91663 24.1833 2.91663ZM17.9999 28.1458C16.5999 28.1458 15.4478 26.9937 15.4478 25.5937C15.4478 24.1937 16.5999 23.0416 17.9999 23.0416C19.3999 23.0416 20.552 24.1937 20.552 25.5937C20.552 26.9937 19.3999 28.1458 17.9999 28.1458ZM20.9166 9.11454H15.0833C14.4853 9.11454 13.9895 8.61871 13.9895 8.02079C13.9895 7.42288 14.4853 6.92704 15.0833 6.92704H20.9166C21.5145 6.92704 22.0103 7.42288 22.0103 8.02079C22.0103 8.61871 21.5145 9.11454 20.9166 9.11454Z" fill="black"/>
</svg>
