<svg width="52" height="52" viewBox="0 0 52 52" fill="none" xmlns="http://www.w3.org/2000/svg">
<path d="M47.0728 35.4827V41.8045C47.0728 44.7126 44.7126 47.0727 41.8046 47.0727H26.7586C24.8831 47.0727 23.9559 44.8179 25.2625 43.4903L37.6322 30.8467C38.0326 30.4463 38.5805 30.2145 39.1284 30.2145H41.8046C44.7126 30.2145 47.0728 32.5746 47.0728 35.4827Z" fill="black"/>
<path d="M39.4234 24.5039L33.7126 30.2146L28.5287 35.3774C27.2012 36.705 24.9253 35.7778 24.9253 33.9023C24.9253 27.138 24.9253 16.0115 24.9253 16.0115C24.9253 15.4426 25.1571 14.9158 25.5364 14.5154L27.4751 12.5767C29.5402 10.5115 32.8697 10.5115 34.9349 12.5767L39.4023 17.0441C41.4885 19.1092 41.4885 22.4387 39.4234 24.5039Z" fill="black"/>
<path d="M16.5173 4.92712H10.1954C7.0345 4.92712 4.92722 7.0344 4.92722 10.1953V38.6436C4.92722 39.2126 4.99043 39.7815 5.0958 40.3294C5.15902 40.6034 5.22223 40.8773 5.30653 41.1513C5.41189 41.4674 5.51725 41.7834 5.64369 42.0785C5.66476 42.0995 5.66476 42.1206 5.66476 42.1206C5.68584 42.1206 5.68584 42.1206 5.66476 42.1417C5.95978 42.7317 6.29695 43.3007 6.69733 43.8275C6.92913 44.1014 7.16093 44.3543 7.39273 44.6072C7.62453 44.8601 7.87741 45.0708 8.15135 45.2815L8.17243 45.3026C8.69925 45.703 9.26821 46.0401 9.85825 46.3352C9.87932 46.3141 9.87932 46.3141 9.87932 46.3352C10.1954 46.4827 10.5115 46.588 10.8487 46.6934C11.1226 46.7777 11.3966 46.8409 11.6705 46.9041C12.2184 47.0095 12.7874 47.0727 13.3563 47.0727C14.2203 47.0727 15.1054 46.9463 15.9272 46.6723C16.159 46.588 16.3908 46.5037 16.6226 46.3984C17.3602 46.1034 18.0766 45.6819 18.7088 45.134C18.8985 44.9865 19.1092 44.7969 19.2989 44.6072L19.3832 44.5229C20.8582 43.0057 21.7855 40.9195 21.7855 38.6436V10.1953C21.7855 7.0344 19.6782 4.92712 16.5173 4.92712ZM13.3563 41.8045C11.6073 41.8045 10.1954 40.3926 10.1954 38.6436C10.1954 36.8946 11.6073 35.4827 13.3563 35.4827C15.1054 35.4827 16.5173 36.8946 16.5173 38.6436C16.5173 40.3926 15.1054 41.8045 13.3563 41.8045Z" fill="black"/>
</svg>
