<svg width="458" height="308" viewBox="0 0 458 308" fill="none" xmlns="http://www.w3.org/2000/svg">
<mask id="path-2-inside-1_43_547" fill="white">
<path d="M0.5 1H31.5V32H0.5V1Z"/>
</mask>
<path d="M31.5 32V33H32.5V32H31.5ZM30.5 1V32H32.5V1H30.5ZM31.5 31H0.5V33H31.5V31Z" fill="#DEE6ED" mask="url(#path-2-inside-1_43_547)"/>
<mask id="path-4-inside-2_43_547" fill="white">
<path d="M30.5 0H62.5V32H30.5V0Z"/>
</mask>
<path d="M62.5 32V33H63.5V32H62.5ZM61.5 0V32H63.5V0H61.5ZM62.5 31H30.5V33H62.5V31Z" fill="#DEE6ED" mask="url(#path-4-inside-2_43_547)"/>
<mask id="path-6-inside-3_43_547" fill="white">
<path d="M61.5 0H93.5V32H61.5V0Z"/>
</mask>
<path d="M93.5 32V33H94.5V32H93.5ZM92.5 0V32H94.5V0H92.5ZM93.5 31H61.5V33H93.5V31Z" fill="#DEE6ED" mask="url(#path-6-inside-3_43_547)"/>
<mask id="path-8-inside-4_43_547" fill="white">
<path d="M92.5 0H124.5V32H92.5V0Z"/>
</mask>
<path d="M124.5 32V33H125.5V32H124.5ZM123.5 0V32H125.5V0H123.5ZM124.5 31H92.5V33H124.5V31Z" fill="#DEE6ED" mask="url(#path-8-inside-4_43_547)"/>
<mask id="path-10-inside-5_43_547" fill="white">
<path d="M123.5 0H155.5V32H123.5V0Z"/>
</mask>
<path d="M155.5 32V33H156.5V32H155.5ZM154.5 0V32H156.5V0H154.5ZM155.5 31H123.5V33H155.5V31Z" fill="#DEE6ED" mask="url(#path-10-inside-5_43_547)"/>
<mask id="path-12-inside-6_43_547" fill="white">
<path d="M154.5 0H186.5V32H154.5V0Z"/>
</mask>
<path d="M186.5 32V33H187.5V32H186.5ZM185.5 0V32H187.5V0H185.5ZM186.5 31H154.5V33H186.5V31Z" fill="#DEE6ED" mask="url(#path-12-inside-6_43_547)"/>
<mask id="path-14-inside-7_43_547" fill="white">
<path d="M185.5 0H217.5V32H185.5V0Z"/>
</mask>
<path d="M217.5 32V33H218.5V32H217.5ZM216.5 0V32H218.5V0H216.5ZM217.5 31H185.5V33H217.5V31Z" fill="#DEE6ED" mask="url(#path-14-inside-7_43_547)"/>
<mask id="path-16-inside-8_43_547" fill="white">
<path d="M216.5 0H248.5V32H216.5V0Z"/>
</mask>
<path d="M248.5 32V33H249.5V32H248.5ZM247.5 0V32H249.5V0H247.5ZM248.5 31H216.5V33H248.5V31Z" fill="#DEE6ED" mask="url(#path-16-inside-8_43_547)"/>
<mask id="path-18-inside-9_43_547" fill="white">
<path d="M247.5 0H279.5V32H247.5V0Z"/>
</mask>
<path d="M279.5 32V33H280.5V32H279.5ZM278.5 0V32H280.5V0H278.5ZM279.5 31H247.5V33H279.5V31Z" fill="#DEE6ED" mask="url(#path-18-inside-9_43_547)"/>
<mask id="path-20-inside-10_43_547" fill="white">
<path d="M278.5 0H310.5V32H278.5V0Z"/>
</mask>
<path d="M310.5 32V33H311.5V32H310.5ZM309.5 0V32H311.5V0H309.5ZM310.5 31H278.5V33H310.5V31Z" fill="#DEE6ED" mask="url(#path-20-inside-10_43_547)"/>
<mask id="path-22-inside-11_43_547" fill="white">
<path d="M309.5 0H341.5V32H309.5V0Z"/>
</mask>
<path d="M341.5 32V33H342.5V32H341.5ZM340.5 0V32H342.5V0H340.5ZM341.5 31H309.5V33H341.5V31Z" fill="#DEE6ED" mask="url(#path-22-inside-11_43_547)"/>
<mask id="path-24-inside-12_43_547" fill="white">
<path d="M340.5 0H372.5V32H340.5V0Z"/>
</mask>
<path d="M372.5 32V33H373.5V32H372.5ZM371.5 0V32H373.5V0H371.5ZM372.5 31H340.5V33H372.5V31Z" fill="#DEE6ED" mask="url(#path-24-inside-12_43_547)"/>
<mask id="path-26-inside-13_43_547" fill="white">
<path d="M371.5 0H403.5V32H371.5V0Z"/>
</mask>
<path d="M403.5 32V33H404.5V32H403.5ZM402.5 0V32H404.5V0H402.5ZM403.5 31H371.5V33H403.5V31Z" fill="#DEE6ED" mask="url(#path-26-inside-13_43_547)"/>
<mask id="path-28-inside-14_43_547" fill="white">
<path d="M402.5 0H434.5V32H402.5V0Z"/>
</mask>
<path d="M434.5 32V33H435.5V32H434.5ZM433.5 0V32H435.5V0H433.5ZM434.5 31H402.5V33H434.5V31Z" fill="#DEE6ED" mask="url(#path-28-inside-14_43_547)"/>
<mask id="path-30-inside-15_43_547" fill="white">
<path d="M433.5 1H457.5V32H433.5V1Z"/>
</mask>
<path d="M457.5 31H433.5V33H457.5V31Z" fill="#DEE6ED" mask="url(#path-30-inside-15_43_547)"/>
<mask id="path-32-inside-16_43_547" fill="white">
<path d="M0.5 33H31.5V64H0.5V33Z"/>
</mask>
<path d="M31.5 63H0.5V65H31.5V63Z" fill="#DEE6ED" mask="url(#path-32-inside-16_43_547)"/>
<mask id="path-34-inside-17_43_547" fill="white">
<path d="M30.5 32H62.5V64H30.5V32Z"/>
</mask>
<path d="M62.5 64V65H63.5V64H62.5ZM30.5 64H29.5V65H30.5V64ZM61.5 32V64H63.5V32H61.5ZM62.5 63H30.5V65H62.5V63ZM31.5 64V32H29.5V64H31.5Z" fill="#DEE6ED" mask="url(#path-34-inside-17_43_547)"/>
<mask id="path-36-inside-18_43_547" fill="white">
<path d="M61.5 32H93.5V64H61.5V32Z"/>
</mask>
<path d="M93.5 64V65H94.5V64H93.5ZM92.5 32V64H94.5V32H92.5ZM93.5 63H61.5V65H93.5V63Z" fill="#DEE6ED" mask="url(#path-36-inside-18_43_547)"/>
<mask id="path-38-inside-19_43_547" fill="white">
<path d="M92.5 32H124.5V64H92.5V32Z"/>
</mask>
<path d="M124.5 64V65H125.5V64H124.5ZM123.5 32V64H125.5V32H123.5ZM124.5 63H92.5V65H124.5V63Z" fill="#DEE6ED" mask="url(#path-38-inside-19_43_547)"/>
<mask id="path-40-inside-20_43_547" fill="white">
<path d="M123.5 32H155.5V64H123.5V32Z"/>
</mask>
<path d="M155.5 64V65H156.5V64H155.5ZM154.5 32V64H156.5V32H154.5ZM155.5 63H123.5V65H155.5V63Z" fill="#DEE6ED" mask="url(#path-40-inside-20_43_547)"/>
<mask id="path-42-inside-21_43_547" fill="white">
<path d="M154.5 32H186.5V64H154.5V32Z"/>
</mask>
<path d="M186.5 64V65H187.5V64H186.5ZM185.5 32V64H187.5V32H185.5ZM186.5 63H154.5V65H186.5V63Z" fill="#DEE6ED" mask="url(#path-42-inside-21_43_547)"/>
<mask id="path-44-inside-22_43_547" fill="white">
<path d="M185.5 32H217.5V64H185.5V32Z"/>
</mask>
<path d="M217.5 64V65H218.5V64H217.5ZM216.5 32V64H218.5V32H216.5ZM217.5 63H185.5V65H217.5V63Z" fill="#DEE6ED" mask="url(#path-44-inside-22_43_547)"/>
<mask id="path-46-inside-23_43_547" fill="white">
<path d="M216.5 32H248.5V64H216.5V32Z"/>
</mask>
<path d="M248.5 64V65H249.5V64H248.5ZM247.5 32V64H249.5V32H247.5ZM248.5 63H216.5V65H248.5V63Z" fill="#DEE6ED" mask="url(#path-46-inside-23_43_547)"/>
<mask id="path-48-inside-24_43_547" fill="white">
<path d="M247.5 32H279.5V64H247.5V32Z"/>
</mask>
<path d="M279.5 64V65H280.5V64H279.5ZM278.5 32V64H280.5V32H278.5ZM279.5 63H247.5V65H279.5V63Z" fill="#DEE6ED" mask="url(#path-48-inside-24_43_547)"/>
<mask id="path-50-inside-25_43_547" fill="white">
<path d="M278.5 32H310.5V64H278.5V32Z"/>
</mask>
<path d="M310.5 64V65H311.5V64H310.5ZM309.5 32V64H311.5V32H309.5ZM310.5 63H278.5V65H310.5V63Z" fill="#DEE6ED" mask="url(#path-50-inside-25_43_547)"/>
<mask id="path-52-inside-26_43_547" fill="white">
<path d="M309.5 32H341.5V64H309.5V32Z"/>
</mask>
<path d="M341.5 64V65H342.5V64H341.5ZM340.5 32V64H342.5V32H340.5ZM341.5 63H309.5V65H341.5V63Z" fill="#DEE6ED" mask="url(#path-52-inside-26_43_547)"/>
<mask id="path-54-inside-27_43_547" fill="white">
<path d="M340.5 32H372.5V64H340.5V32Z"/>
</mask>
<path d="M372.5 64V65H373.5V64H372.5ZM371.5 32V64H373.5V32H371.5ZM372.5 63H340.5V65H372.5V63Z" fill="#DEE6ED" mask="url(#path-54-inside-27_43_547)"/>
<mask id="path-56-inside-28_43_547" fill="white">
<path d="M371.5 32H403.5V64H371.5V32Z"/>
</mask>
<path d="M403.5 64V65H404.5V64H403.5ZM402.5 32V64H404.5V32H402.5ZM403.5 63H371.5V65H403.5V63Z" fill="#DEE6ED" mask="url(#path-56-inside-28_43_547)"/>
<mask id="path-58-inside-29_43_547" fill="white">
<path d="M402.5 32H434.5V64H402.5V32Z"/>
</mask>
<path d="M434.5 64V65H435.5V64H434.5ZM433.5 32V64H435.5V32H433.5ZM434.5 63H402.5V65H434.5V63Z" fill="#DEE6ED" mask="url(#path-58-inside-29_43_547)"/>
<mask id="path-60-inside-30_43_547" fill="white">
<path d="M433.5 33H457.5V64H433.5V33Z"/>
</mask>
<path d="M457.5 63H433.5V65H457.5V63Z" fill="#DEE6ED" mask="url(#path-60-inside-30_43_547)"/>
<mask id="path-62-inside-31_43_547" fill="white">
<path d="M0.5 65H31.5V96H0.5V65Z"/>
</mask>
<path d="M31.5 96V97H32.5V96H31.5ZM30.5 65V96H32.5V65H30.5ZM31.5 95H0.5V97H31.5V95Z" fill="#DEE6ED" mask="url(#path-62-inside-31_43_547)"/>
<mask id="path-64-inside-32_43_547" fill="white">
<path d="M30.5 64H62.5V96H30.5V64Z"/>
</mask>
<path d="M62.5 95H30.5V97H62.5V95Z" fill="#DEE6ED" mask="url(#path-64-inside-32_43_547)"/>
<mask id="path-66-inside-33_43_547" fill="white">
<path d="M61.5 64H93.5V96H61.5V64Z"/>
</mask>
<path d="M93.5 96V97H94.5V96H93.5ZM61.5 96H60.5V97H61.5V96ZM92.5 64V96H94.5V64H92.5ZM93.5 95H61.5V97H93.5V95ZM62.5 96V64H60.5V96H62.5Z" fill="#DEE6ED" mask="url(#path-66-inside-33_43_547)"/>
<mask id="path-68-inside-34_43_547" fill="white">
<path d="M92.5 64H124.5V96H92.5V64Z"/>
</mask>
<path d="M124.5 96V97H125.5V96H124.5ZM123.5 64V96H125.5V64H123.5ZM124.5 95H92.5V97H124.5V95Z" fill="#DEE6ED" mask="url(#path-68-inside-34_43_547)"/>
<mask id="path-70-inside-35_43_547" fill="white">
<path d="M123.5 64H155.5V96H123.5V64Z"/>
</mask>
<path d="M155.5 96V97H156.5V96H155.5ZM154.5 64V96H156.5V64H154.5ZM155.5 95H123.5V97H155.5V95Z" fill="#DEE6ED" mask="url(#path-70-inside-35_43_547)"/>
<mask id="path-72-inside-36_43_547" fill="white">
<path d="M154.5 64H186.5V96H154.5V64Z"/>
</mask>
<path d="M186.5 96V97H187.5V96H186.5ZM185.5 64V96H187.5V64H185.5ZM186.5 95H154.5V97H186.5V95Z" fill="#DEE6ED" mask="url(#path-72-inside-36_43_547)"/>
<mask id="path-74-inside-37_43_547" fill="white">
<path d="M185.5 64H217.5V96H185.5V64Z"/>
</mask>
<path d="M217.5 96V97H218.5V96H217.5ZM216.5 64V96H218.5V64H216.5ZM217.5 95H185.5V97H217.5V95Z" fill="#DEE6ED" mask="url(#path-74-inside-37_43_547)"/>
<mask id="path-76-inside-38_43_547" fill="white">
<path d="M216.5 64H248.5V96H216.5V64Z"/>
</mask>
<path d="M248.5 96V97H249.5V96H248.5ZM247.5 64V96H249.5V64H247.5ZM248.5 95H216.5V97H248.5V95Z" fill="#DEE6ED" mask="url(#path-76-inside-38_43_547)"/>
<mask id="path-78-inside-39_43_547" fill="white">
<path d="M247.5 64H279.5V96H247.5V64Z"/>
</mask>
<path d="M279.5 96V97H280.5V96H279.5ZM278.5 64V96H280.5V64H278.5ZM279.5 95H247.5V97H279.5V95Z" fill="#DEE6ED" mask="url(#path-78-inside-39_43_547)"/>
<mask id="path-80-inside-40_43_547" fill="white">
<path d="M278.5 64H310.5V96H278.5V64Z"/>
</mask>
<path d="M310.5 96V97H311.5V96H310.5ZM309.5 64V96H311.5V64H309.5ZM310.5 95H278.5V97H310.5V95Z" fill="#DEE6ED" mask="url(#path-80-inside-40_43_547)"/>
<mask id="path-82-inside-41_43_547" fill="white">
<path d="M309.5 64H341.5V96H309.5V64Z"/>
</mask>
<path d="M341.5 96V97H342.5V96H341.5ZM340.5 64V96H342.5V64H340.5ZM341.5 95H309.5V97H341.5V95Z" fill="#DEE6ED" mask="url(#path-82-inside-41_43_547)"/>
<mask id="path-84-inside-42_43_547" fill="white">
<path d="M340.5 64H372.5V96H340.5V64Z"/>
</mask>
<path d="M372.5 96V97H373.5V96H372.5ZM371.5 64V96H373.5V64H371.5ZM372.5 95H340.5V97H372.5V95Z" fill="#DEE6ED" mask="url(#path-84-inside-42_43_547)"/>
<mask id="path-86-inside-43_43_547" fill="white">
<path d="M371.5 64H403.5V96H371.5V64Z"/>
</mask>
<path d="M403.5 96V97H404.5V96H403.5ZM402.5 64V96H404.5V64H402.5ZM403.5 95H371.5V97H403.5V95Z" fill="#DEE6ED" mask="url(#path-86-inside-43_43_547)"/>
<mask id="path-88-inside-44_43_547" fill="white">
<path d="M402.5 64H434.5V96H402.5V64Z"/>
</mask>
<path d="M434.5 96V97H435.5V96H434.5ZM433.5 64V96H435.5V64H433.5ZM434.5 95H402.5V97H434.5V95Z" fill="#DEE6ED" mask="url(#path-88-inside-44_43_547)"/>
<mask id="path-90-inside-45_43_547" fill="white">
<path d="M433.5 65H457.5V96H433.5V65Z"/>
</mask>
<path d="M457.5 95H433.5V97H457.5V95Z" fill="#DEE6ED" mask="url(#path-90-inside-45_43_547)"/>
<mask id="path-92-inside-46_43_547" fill="white">
<path d="M0.5 97H31.5V128H0.5V97Z"/>
</mask>
<path d="M31.5 128V129H32.5V128H31.5ZM30.5 97V128H32.5V97H30.5ZM31.5 127H0.5V129H31.5V127Z" fill="#DEE6ED" mask="url(#path-92-inside-46_43_547)"/>
<mask id="path-94-inside-47_43_547" fill="white">
<path d="M30.5 96H62.5V128H30.5V96Z"/>
</mask>
<path d="M62.5 128V129H63.5V128H62.5ZM61.5 96V128H63.5V96H61.5ZM62.5 127H30.5V129H62.5V127Z" fill="#DEE6ED" mask="url(#path-94-inside-47_43_547)"/>
<mask id="path-96-inside-48_43_547" fill="white">
<path d="M61.5 96H93.5V128H61.5V96Z"/>
</mask>
<path d="M93.5 127H61.5V129H93.5V127Z" fill="#DEE6ED" mask="url(#path-96-inside-48_43_547)"/>
<mask id="path-98-inside-49_43_547" fill="white">
<path d="M92.5 96H124.5V128H92.5V96Z"/>
</mask>
<path d="M124.5 128V129H125.5V128H124.5ZM92.5 128H91.5V129H92.5V128ZM123.5 96V128H125.5V96H123.5ZM124.5 127H92.5V129H124.5V127ZM93.5 128V96H91.5V128H93.5Z" fill="#DEE6ED" mask="url(#path-98-inside-49_43_547)"/>
<mask id="path-100-inside-50_43_547" fill="white">
<path d="M123.5 96H155.5V128H123.5V96Z"/>
</mask>
<path d="M155.5 128V129H156.5V128H155.5ZM154.5 96V128H156.5V96H154.5ZM155.5 127H123.5V129H155.5V127Z" fill="#DEE6ED" mask="url(#path-100-inside-50_43_547)"/>
<mask id="path-102-inside-51_43_547" fill="white">
<path d="M154.5 96H186.5V128H154.5V96Z"/>
</mask>
<path d="M186.5 128V129H187.5V128H186.5ZM185.5 96V128H187.5V96H185.5ZM186.5 127H154.5V129H186.5V127Z" fill="#DEE6ED" mask="url(#path-102-inside-51_43_547)"/>
<mask id="path-104-inside-52_43_547" fill="white">
<path d="M185.5 96H217.5V128H185.5V96Z"/>
</mask>
<path d="M217.5 128V129H218.5V128H217.5ZM216.5 96V128H218.5V96H216.5ZM217.5 127H185.5V129H217.5V127Z" fill="#DEE6ED" mask="url(#path-104-inside-52_43_547)"/>
<mask id="path-106-inside-53_43_547" fill="white">
<path d="M216.5 96H248.5V128H216.5V96Z"/>
</mask>
<path d="M248.5 128V129H249.5V128H248.5ZM247.5 96V128H249.5V96H247.5ZM248.5 127H216.5V129H248.5V127Z" fill="#DEE6ED" mask="url(#path-106-inside-53_43_547)"/>
<mask id="path-108-inside-54_43_547" fill="white">
<path d="M247.5 96H279.5V128H247.5V96Z"/>
</mask>
<path d="M279.5 128V129H280.5V128H279.5ZM278.5 96V128H280.5V96H278.5ZM279.5 127H247.5V129H279.5V127Z" fill="#DEE6ED" mask="url(#path-108-inside-54_43_547)"/>
<mask id="path-110-inside-55_43_547" fill="white">
<path d="M278.5 96H310.5V128H278.5V96Z"/>
</mask>
<path d="M310.5 128V129H311.5V128H310.5ZM309.5 96V128H311.5V96H309.5ZM310.5 127H278.5V129H310.5V127Z" fill="#DEE6ED" mask="url(#path-110-inside-55_43_547)"/>
<mask id="path-112-inside-56_43_547" fill="white">
<path d="M309.5 96H341.5V128H309.5V96Z"/>
</mask>
<path d="M341.5 128V129H342.5V128H341.5ZM340.5 96V128H342.5V96H340.5ZM341.5 127H309.5V129H341.5V127Z" fill="#DEE6ED" mask="url(#path-112-inside-56_43_547)"/>
<mask id="path-114-inside-57_43_547" fill="white">
<path d="M340.5 96H372.5V128H340.5V96Z"/>
</mask>
<path d="M372.5 128V129H373.5V128H372.5ZM371.5 96V128H373.5V96H371.5ZM372.5 127H340.5V129H372.5V127Z" fill="#DEE6ED" mask="url(#path-114-inside-57_43_547)"/>
<mask id="path-116-inside-58_43_547" fill="white">
<path d="M371.5 96H403.5V128H371.5V96Z"/>
</mask>
<path d="M403.5 128V129H404.5V128H403.5ZM402.5 96V128H404.5V96H402.5ZM403.5 127H371.5V129H403.5V127Z" fill="#DEE6ED" mask="url(#path-116-inside-58_43_547)"/>
<mask id="path-118-inside-59_43_547" fill="white">
<path d="M402.5 96H434.5V128H402.5V96Z"/>
</mask>
<path d="M434.5 128V129H435.5V128H434.5ZM433.5 96V128H435.5V96H433.5ZM434.5 127H402.5V129H434.5V127Z" fill="#DEE6ED" mask="url(#path-118-inside-59_43_547)"/>
<mask id="path-120-inside-60_43_547" fill="white">
<path d="M433.5 97H457.5V128H433.5V97Z"/>
</mask>
<path d="M457.5 127H433.5V129H457.5V127Z" fill="#DEE6ED" mask="url(#path-120-inside-60_43_547)"/>
<mask id="path-122-inside-61_43_547" fill="white">
<path d="M0.5 129H31.5V160H0.5V129Z"/>
</mask>
<path d="M31.5 160V161H32.5V160H31.5ZM30.5 129V160H32.5V129H30.5ZM31.5 159H0.5V161H31.5V159Z" fill="#DEE6ED" mask="url(#path-122-inside-61_43_547)"/>
<mask id="path-124-inside-62_43_547" fill="white">
<path d="M30.5 128H62.5V160H30.5V128Z"/>
</mask>
<path d="M62.5 160V161H63.5V160H62.5ZM61.5 128V160H63.5V128H61.5ZM62.5 159H30.5V161H62.5V159Z" fill="#DEE6ED" mask="url(#path-124-inside-62_43_547)"/>
<mask id="path-126-inside-63_43_547" fill="white">
<path d="M61.5 128H93.5V160H61.5V128Z"/>
</mask>
<path d="M93.5 160V161H94.5V160H93.5ZM92.5 128V160H94.5V128H92.5ZM93.5 159H61.5V161H93.5V159Z" fill="#DEE6ED" mask="url(#path-126-inside-63_43_547)"/>
<mask id="path-128-inside-64_43_547" fill="white">
<path d="M92.5 128H124.5V160H92.5V128Z"/>
</mask>
<path d="M124.5 159H92.5V161H124.5V159Z" fill="#DEE6ED" mask="url(#path-128-inside-64_43_547)"/>
<mask id="path-130-inside-65_43_547" fill="white">
<path d="M123.5 128H155.5V160H123.5V128Z"/>
</mask>
<path d="M155.5 160V161H156.5V160H155.5ZM123.5 160H122.5V161H123.5V160ZM154.5 128V160H156.5V128H154.5ZM155.5 159H123.5V161H155.5V159ZM124.5 160V128H122.5V160H124.5Z" fill="#DEE6ED" mask="url(#path-130-inside-65_43_547)"/>
<mask id="path-132-inside-66_43_547" fill="white">
<path d="M154.5 128H186.5V160H154.5V128Z"/>
</mask>
<path d="M186.5 160V161H187.5V160H186.5ZM185.5 128V160H187.5V128H185.5ZM186.5 159H154.5V161H186.5V159Z" fill="#DEE6ED" mask="url(#path-132-inside-66_43_547)"/>
<mask id="path-134-inside-67_43_547" fill="white">
<path d="M185.5 128H217.5V160H185.5V128Z"/>
</mask>
<path d="M217.5 160V161H218.5V160H217.5ZM216.5 128V160H218.5V128H216.5ZM217.5 159H185.5V161H217.5V159Z" fill="#DEE6ED" mask="url(#path-134-inside-67_43_547)"/>
<mask id="path-136-inside-68_43_547" fill="white">
<path d="M216.5 128H248.5V160H216.5V128Z"/>
</mask>
<path d="M248.5 160V161H249.5V160H248.5ZM247.5 128V160H249.5V128H247.5ZM248.5 159H216.5V161H248.5V159Z" fill="#DEE6ED" mask="url(#path-136-inside-68_43_547)"/>
<mask id="path-138-inside-69_43_547" fill="white">
<path d="M247.5 128H279.5V160H247.5V128Z"/>
</mask>
<path d="M279.5 160V161H280.5V160H279.5ZM278.5 128V160H280.5V128H278.5ZM279.5 159H247.5V161H279.5V159Z" fill="#DEE6ED" mask="url(#path-138-inside-69_43_547)"/>
<mask id="path-140-inside-70_43_547" fill="white">
<path d="M278.5 128H310.5V160H278.5V128Z"/>
</mask>
<path d="M310.5 160V161H311.5V160H310.5ZM309.5 128V160H311.5V128H309.5ZM310.5 159H278.5V161H310.5V159Z" fill="#DEE6ED" mask="url(#path-140-inside-70_43_547)"/>
<mask id="path-142-inside-71_43_547" fill="white">
<path d="M309.5 128H341.5V160H309.5V128Z"/>
</mask>
<path d="M341.5 160V161H342.5V160H341.5ZM340.5 128V160H342.5V128H340.5ZM341.5 159H309.5V161H341.5V159Z" fill="#DEE6ED" mask="url(#path-142-inside-71_43_547)"/>
<mask id="path-144-inside-72_43_547" fill="white">
<path d="M340.5 128H372.5V160H340.5V128Z"/>
</mask>
<path d="M372.5 160V161H373.5V160H372.5ZM371.5 128V160H373.5V128H371.5ZM372.5 159H340.5V161H372.5V159Z" fill="#DEE6ED" mask="url(#path-144-inside-72_43_547)"/>
<mask id="path-146-inside-73_43_547" fill="white">
<path d="M371.5 128H403.5V160H371.5V128Z"/>
</mask>
<path d="M403.5 160V161H404.5V160H403.5ZM402.5 128V160H404.5V128H402.5ZM403.5 159H371.5V161H403.5V159Z" fill="#DEE6ED" mask="url(#path-146-inside-73_43_547)"/>
<mask id="path-148-inside-74_43_547" fill="white">
<path d="M402.5 128H434.5V160H402.5V128Z"/>
</mask>
<path d="M434.5 160V161H435.5V160H434.5ZM433.5 128V160H435.5V128H433.5ZM434.5 159H402.5V161H434.5V159Z" fill="#DEE6ED" mask="url(#path-148-inside-74_43_547)"/>
<mask id="path-150-inside-75_43_547" fill="white">
<path d="M433.5 129H457.5V160H433.5V129Z"/>
</mask>
<path d="M457.5 159H433.5V161H457.5V159Z" fill="#DEE6ED" mask="url(#path-150-inside-75_43_547)"/>
<mask id="path-152-inside-76_43_547" fill="white">
<path d="M0.5 161H31.5V192H0.5V161Z"/>
</mask>
<path d="M31.5 192V193H32.5V192H31.5ZM30.5 161V192H32.5V161H30.5ZM31.5 191H0.5V193H31.5V191Z" fill="#DEE6ED" mask="url(#path-152-inside-76_43_547)"/>
<mask id="path-154-inside-77_43_547" fill="white">
<path d="M30.5 160H62.5V192H30.5V160Z"/>
</mask>
<path d="M62.5 192V193H63.5V192H62.5ZM61.5 160V192H63.5V160H61.5ZM62.5 191H30.5V193H62.5V191Z" fill="#DEE6ED" mask="url(#path-154-inside-77_43_547)"/>
<mask id="path-156-inside-78_43_547" fill="white">
<path d="M61.5 160H93.5V192H61.5V160Z"/>
</mask>
<path d="M93.5 192V193H94.5V192H93.5ZM92.5 160V192H94.5V160H92.5ZM93.5 191H61.5V193H93.5V191Z" fill="#DEE6ED" mask="url(#path-156-inside-78_43_547)"/>
<mask id="path-158-inside-79_43_547" fill="white">
<path d="M92.5 160H124.5V192H92.5V160Z"/>
</mask>
<path d="M124.5 192V193H125.5V192H124.5ZM123.5 160V192H125.5V160H123.5ZM124.5 191H92.5V193H124.5V191Z" fill="#DEE6ED" mask="url(#path-158-inside-79_43_547)"/>
<mask id="path-160-inside-80_43_547" fill="white">
<path d="M123.5 160H155.5V192H123.5V160Z"/>
</mask>
<path d="M155.5 191H123.5V193H155.5V191Z" fill="#DEE6ED" mask="url(#path-160-inside-80_43_547)"/>
<mask id="path-162-inside-81_43_547" fill="white">
<path d="M154.5 160H186.5V192H154.5V160Z"/>
</mask>
<path d="M186.5 192V193H187.5V192H186.5ZM154.5 192H153.5V193H154.5V192ZM185.5 160V192H187.5V160H185.5ZM186.5 191H154.5V193H186.5V191ZM155.5 192V160H153.5V192H155.5Z" fill="#DEE6ED" mask="url(#path-162-inside-81_43_547)"/>
<mask id="path-164-inside-82_43_547" fill="white">
<path d="M185.5 160H217.5V192H185.5V160Z"/>
</mask>
<path d="M217.5 192V193H218.5V192H217.5ZM216.5 160V192H218.5V160H216.5ZM217.5 191H185.5V193H217.5V191Z" fill="#DEE6ED" mask="url(#path-164-inside-82_43_547)"/>
<mask id="path-166-inside-83_43_547" fill="white">
<path d="M216.5 160H248.5V192H216.5V160Z"/>
</mask>
<path d="M248.5 192V193H249.5V192H248.5ZM247.5 160V192H249.5V160H247.5ZM248.5 191H216.5V193H248.5V191Z" fill="#DEE6ED" mask="url(#path-166-inside-83_43_547)"/>
<mask id="path-168-inside-84_43_547" fill="white">
<path d="M247.5 160H279.5V192H247.5V160Z"/>
</mask>
<path d="M279.5 192V193H280.5V192H279.5ZM278.5 160V192H280.5V160H278.5ZM279.5 191H247.5V193H279.5V191Z" fill="#DEE6ED" mask="url(#path-168-inside-84_43_547)"/>
<mask id="path-170-inside-85_43_547" fill="white">
<path d="M278.5 160H310.5V192H278.5V160Z"/>
</mask>
<path d="M310.5 192V193H311.5V192H310.5ZM309.5 160V192H311.5V160H309.5ZM310.5 191H278.5V193H310.5V191Z" fill="#DEE6ED" mask="url(#path-170-inside-85_43_547)"/>
<mask id="path-172-inside-86_43_547" fill="white">
<path d="M309.5 160H341.5V192H309.5V160Z"/>
</mask>
<path d="M341.5 192V193H342.5V192H341.5ZM340.5 160V192H342.5V160H340.5ZM341.5 191H309.5V193H341.5V191Z" fill="#DEE6ED" mask="url(#path-172-inside-86_43_547)"/>
<mask id="path-174-inside-87_43_547" fill="white">
<path d="M340.5 160H372.5V192H340.5V160Z"/>
</mask>
<path d="M372.5 192V193H373.5V192H372.5ZM371.5 160V192H373.5V160H371.5ZM372.5 191H340.5V193H372.5V191Z" fill="#DEE6ED" mask="url(#path-174-inside-87_43_547)"/>
<mask id="path-176-inside-88_43_547" fill="white">
<path d="M371.5 160H403.5V192H371.5V160Z"/>
</mask>
<path d="M403.5 192V193H404.5V192H403.5ZM402.5 160V192H404.5V160H402.5ZM403.5 191H371.5V193H403.5V191Z" fill="#DEE6ED" mask="url(#path-176-inside-88_43_547)"/>
<mask id="path-178-inside-89_43_547" fill="white">
<path d="M402.5 160H434.5V192H402.5V160Z"/>
</mask>
<path d="M434.5 192V193H435.5V192H434.5ZM433.5 160V192H435.5V160H433.5ZM434.5 191H402.5V193H434.5V191Z" fill="#DEE6ED" mask="url(#path-178-inside-89_43_547)"/>
<mask id="path-180-inside-90_43_547" fill="white">
<path d="M433.5 161H457.5V192H433.5V161Z"/>
</mask>
<path d="M457.5 191H433.5V193H457.5V191Z" fill="#DEE6ED" mask="url(#path-180-inside-90_43_547)"/>
<mask id="path-182-inside-91_43_547" fill="white">
<path d="M0.5 193H31.5V224H0.5V193Z"/>
</mask>
<path d="M31.5 224V225H32.5V224H31.5ZM30.5 193V224H32.5V193H30.5ZM31.5 223H0.5V225H31.5V223Z" fill="#DEE6ED" mask="url(#path-182-inside-91_43_547)"/>
<mask id="path-184-inside-92_43_547" fill="white">
<path d="M30.5 192H62.5V224H30.5V192Z"/>
</mask>
<path d="M62.5 224V225H63.5V224H62.5ZM61.5 192V224H63.5V192H61.5ZM62.5 223H30.5V225H62.5V223Z" fill="#DEE6ED" mask="url(#path-184-inside-92_43_547)"/>
<mask id="path-186-inside-93_43_547" fill="white">
<path d="M61.5 192H93.5V224H61.5V192Z"/>
</mask>
<path d="M93.5 224V225H94.5V224H93.5ZM92.5 192V224H94.5V192H92.5ZM93.5 223H61.5V225H93.5V223Z" fill="#DEE6ED" mask="url(#path-186-inside-93_43_547)"/>
<mask id="path-188-inside-94_43_547" fill="white">
<path d="M92.5 192H124.5V224H92.5V192Z"/>
</mask>
<path d="M124.5 224V225H125.5V224H124.5ZM123.5 192V224H125.5V192H123.5ZM124.5 223H92.5V225H124.5V223Z" fill="#DEE6ED" mask="url(#path-188-inside-94_43_547)"/>
<mask id="path-190-inside-95_43_547" fill="white">
<path d="M123.5 192H155.5V224H123.5V192Z"/>
</mask>
<path d="M155.5 224V225H156.5V224H155.5ZM154.5 192V224H156.5V192H154.5ZM155.5 223H123.5V225H155.5V223Z" fill="#DEE6ED" mask="url(#path-190-inside-95_43_547)"/>
<mask id="path-192-inside-96_43_547" fill="white">
<path d="M154.5 192H186.5V224H154.5V192Z"/>
</mask>
<path d="M186.5 223H154.5V225H186.5V223Z" fill="#DEE6ED" mask="url(#path-192-inside-96_43_547)"/>
<mask id="path-194-inside-97_43_547" fill="white">
<path d="M185.5 192H217.5V224H185.5V192Z"/>
</mask>
<path d="M217.5 224V225H218.5V224H217.5ZM185.5 224H184.5V225H185.5V224ZM216.5 192V224H218.5V192H216.5ZM217.5 223H185.5V225H217.5V223ZM186.5 224V192H184.5V224H186.5Z" fill="#DEE6ED" mask="url(#path-194-inside-97_43_547)"/>
<mask id="path-196-inside-98_43_547" fill="white">
<path d="M216.5 192H248.5V224H216.5V192Z"/>
</mask>
<path d="M248.5 224V225H249.5V224H248.5ZM247.5 192V224H249.5V192H247.5ZM248.5 223H216.5V225H248.5V223Z" fill="#DEE6ED" mask="url(#path-196-inside-98_43_547)"/>
<mask id="path-198-inside-99_43_547" fill="white">
<path d="M247.5 192H279.5V224H247.5V192Z"/>
</mask>
<path d="M279.5 224V225H280.5V224H279.5ZM278.5 192V224H280.5V192H278.5ZM279.5 223H247.5V225H279.5V223Z" fill="#DEE6ED" mask="url(#path-198-inside-99_43_547)"/>
<mask id="path-200-inside-100_43_547" fill="white">
<path d="M278.5 192H310.5V224H278.5V192Z"/>
</mask>
<path d="M310.5 224V225H311.5V224H310.5ZM309.5 192V224H311.5V192H309.5ZM310.5 223H278.5V225H310.5V223Z" fill="#DEE6ED" mask="url(#path-200-inside-100_43_547)"/>
<mask id="path-202-inside-101_43_547" fill="white">
<path d="M309.5 192H341.5V224H309.5V192Z"/>
</mask>
<path d="M341.5 224V225H342.5V224H341.5ZM340.5 192V224H342.5V192H340.5ZM341.5 223H309.5V225H341.5V223Z" fill="#DEE6ED" mask="url(#path-202-inside-101_43_547)"/>
<mask id="path-204-inside-102_43_547" fill="white">
<path d="M340.5 192H372.5V224H340.5V192Z"/>
</mask>
<path d="M372.5 224V225H373.5V224H372.5ZM371.5 192V224H373.5V192H371.5ZM372.5 223H340.5V225H372.5V223Z" fill="#DEE6ED" mask="url(#path-204-inside-102_43_547)"/>
<mask id="path-206-inside-103_43_547" fill="white">
<path d="M371.5 192H403.5V224H371.5V192Z"/>
</mask>
<path d="M403.5 224V225H404.5V224H403.5ZM402.5 192V224H404.5V192H402.5ZM403.5 223H371.5V225H403.5V223Z" fill="#DEE6ED" mask="url(#path-206-inside-103_43_547)"/>
<mask id="path-208-inside-104_43_547" fill="white">
<path d="M402.5 192H434.5V224H402.5V192Z"/>
</mask>
<path d="M434.5 224V225H435.5V224H434.5ZM433.5 192V224H435.5V192H433.5ZM434.5 223H402.5V225H434.5V223Z" fill="#DEE6ED" mask="url(#path-208-inside-104_43_547)"/>
<mask id="path-210-inside-105_43_547" fill="white">
<path d="M433.5 193H457.5V224H433.5V193Z"/>
</mask>
<path d="M457.5 223H433.5V225H457.5V223Z" fill="#DEE6ED" mask="url(#path-210-inside-105_43_547)"/>
<mask id="path-212-inside-106_43_547" fill="white">
<path d="M0.5 225H31.5V256H0.5V225Z"/>
</mask>
<path d="M31.5 256V257H32.5V256H31.5ZM30.5 225V256H32.5V225H30.5ZM31.5 255H0.5V257H31.5V255Z" fill="#DEE6ED" mask="url(#path-212-inside-106_43_547)"/>
<mask id="path-214-inside-107_43_547" fill="white">
<path d="M30.5 224H62.5V256H30.5V224Z"/>
</mask>
<path d="M62.5 256V257H63.5V256H62.5ZM61.5 224V256H63.5V224H61.5ZM62.5 255H30.5V257H62.5V255Z" fill="#DEE6ED" mask="url(#path-214-inside-107_43_547)"/>
<mask id="path-216-inside-108_43_547" fill="white">
<path d="M61.5 224H93.5V256H61.5V224Z"/>
</mask>
<path d="M93.5 256V257H94.5V256H93.5ZM92.5 224V256H94.5V224H92.5ZM93.5 255H61.5V257H93.5V255Z" fill="#DEE6ED" mask="url(#path-216-inside-108_43_547)"/>
<mask id="path-218-inside-109_43_547" fill="white">
<path d="M92.5 224H124.5V256H92.5V224Z"/>
</mask>
<path d="M124.5 256V257H125.5V256H124.5ZM123.5 224V256H125.5V224H123.5ZM124.5 255H92.5V257H124.5V255Z" fill="#DEE6ED" mask="url(#path-218-inside-109_43_547)"/>
<mask id="path-220-inside-110_43_547" fill="white">
<path d="M123.5 224H155.5V256H123.5V224Z"/>
</mask>
<path d="M155.5 256V257H156.5V256H155.5ZM154.5 224V256H156.5V224H154.5ZM155.5 255H123.5V257H155.5V255Z" fill="#DEE6ED" mask="url(#path-220-inside-110_43_547)"/>
<mask id="path-222-inside-111_43_547" fill="white">
<path d="M154.5 224H186.5V256H154.5V224Z"/>
</mask>
<path d="M186.5 256V257H187.5V256H186.5ZM185.5 224V256H187.5V224H185.5ZM186.5 255H154.5V257H186.5V255Z" fill="#DEE6ED" mask="url(#path-222-inside-111_43_547)"/>
<mask id="path-224-inside-112_43_547" fill="white">
<path d="M185.5 224H217.5V256H185.5V224Z"/>
</mask>
<path d="M217.5 255H185.5V257H217.5V255Z" fill="#DEE6ED" mask="url(#path-224-inside-112_43_547)"/>
<mask id="path-226-inside-113_43_547" fill="white">
<path d="M216.5 224H248.5V256H216.5V224Z"/>
</mask>
<path d="M248.5 256V257H249.5V256H248.5ZM216.5 256H215.5V257H216.5V256ZM247.5 224V256H249.5V224H247.5ZM248.5 255H216.5V257H248.5V255ZM217.5 256V224H215.5V256H217.5Z" fill="#DEE6ED" mask="url(#path-226-inside-113_43_547)"/>
<mask id="path-228-inside-114_43_547" fill="white">
<path d="M247.5 224H279.5V256H247.5V224Z"/>
</mask>
<path d="M279.5 256V257H280.5V256H279.5ZM278.5 224V256H280.5V224H278.5ZM279.5 255H247.5V257H279.5V255Z" fill="#DEE6ED" mask="url(#path-228-inside-114_43_547)"/>
<mask id="path-230-inside-115_43_547" fill="white">
<path d="M278.5 224H310.5V256H278.5V224Z"/>
</mask>
<path d="M310.5 256V257H311.5V256H310.5ZM309.5 224V256H311.5V224H309.5ZM310.5 255H278.5V257H310.5V255Z" fill="#DEE6ED" mask="url(#path-230-inside-115_43_547)"/>
<mask id="path-232-inside-116_43_547" fill="white">
<path d="M309.5 224H341.5V256H309.5V224Z"/>
</mask>
<path d="M341.5 256V257H342.5V256H341.5ZM340.5 224V256H342.5V224H340.5ZM341.5 255H309.5V257H341.5V255Z" fill="#DEE6ED" mask="url(#path-232-inside-116_43_547)"/>
<mask id="path-234-inside-117_43_547" fill="white">
<path d="M340.5 224H372.5V256H340.5V224Z"/>
</mask>
<path d="M372.5 256V257H373.5V256H372.5ZM371.5 224V256H373.5V224H371.5ZM372.5 255H340.5V257H372.5V255Z" fill="#DEE6ED" mask="url(#path-234-inside-117_43_547)"/>
<mask id="path-236-inside-118_43_547" fill="white">
<path d="M371.5 224H403.5V256H371.5V224Z"/>
</mask>
<path d="M403.5 256V257H404.5V256H403.5ZM402.5 224V256H404.5V224H402.5ZM403.5 255H371.5V257H403.5V255Z" fill="#DEE6ED" mask="url(#path-236-inside-118_43_547)"/>
<mask id="path-238-inside-119_43_547" fill="white">
<path d="M402.5 224H434.5V256H402.5V224Z"/>
</mask>
<path d="M434.5 256V257H435.5V256H434.5ZM433.5 224V256H435.5V224H433.5ZM434.5 255H402.5V257H434.5V255Z" fill="#DEE6ED" mask="url(#path-238-inside-119_43_547)"/>
<mask id="path-240-inside-120_43_547" fill="white">
<path d="M433.5 225H457.5V256H433.5V225Z"/>
</mask>
<path d="M457.5 255H433.5V257H457.5V255Z" fill="#DEE6ED" mask="url(#path-240-inside-120_43_547)"/>
<mask id="path-242-inside-121_43_547" fill="white">
<path d="M0.5 257H31.5V288H0.5V257Z"/>
</mask>
<path d="M31.5 288V289H32.5V288H31.5ZM30.5 257V288H32.5V257H30.5ZM31.5 287H0.5V289H31.5V287Z" fill="#DEE6ED" mask="url(#path-242-inside-121_43_547)"/>
<mask id="path-244-inside-122_43_547" fill="white">
<path d="M30.5 256H62.5V288H30.5V256Z"/>
</mask>
<path d="M62.5 288V289H63.5V288H62.5ZM61.5 256V288H63.5V256H61.5ZM62.5 287H30.5V289H62.5V287Z" fill="#DEE6ED" mask="url(#path-244-inside-122_43_547)"/>
<mask id="path-246-inside-123_43_547" fill="white">
<path d="M61.5 256H93.5V288H61.5V256Z"/>
</mask>
<path d="M93.5 288V289H94.5V288H93.5ZM92.5 256V288H94.5V256H92.5ZM93.5 287H61.5V289H93.5V287Z" fill="#DEE6ED" mask="url(#path-246-inside-123_43_547)"/>
<mask id="path-248-inside-124_43_547" fill="white">
<path d="M92.5 256H124.5V288H92.5V256Z"/>
</mask>
<path d="M124.5 288V289H125.5V288H124.5ZM123.5 256V288H125.5V256H123.5ZM124.5 287H92.5V289H124.5V287Z" fill="#DEE6ED" mask="url(#path-248-inside-124_43_547)"/>
<mask id="path-250-inside-125_43_547" fill="white">
<path d="M123.5 256H155.5V288H123.5V256Z"/>
</mask>
<path d="M155.5 288V289H156.5V288H155.5ZM154.5 256V288H156.5V256H154.5ZM155.5 287H123.5V289H155.5V287Z" fill="#DEE6ED" mask="url(#path-250-inside-125_43_547)"/>
<mask id="path-252-inside-126_43_547" fill="white">
<path d="M154.5 256H186.5V288H154.5V256Z"/>
</mask>
<path d="M186.5 288V289H187.5V288H186.5ZM185.5 256V288H187.5V256H185.5ZM186.5 287H154.5V289H186.5V287Z" fill="#DEE6ED" mask="url(#path-252-inside-126_43_547)"/>
<mask id="path-254-inside-127_43_547" fill="white">
<path d="M185.5 256H217.5V288H185.5V256Z"/>
</mask>
<path d="M217.5 288V289H218.5V288H217.5ZM216.5 256V288H218.5V256H216.5ZM217.5 287H185.5V289H217.5V287Z" fill="#DEE6ED" mask="url(#path-254-inside-127_43_547)"/>
<mask id="path-256-inside-128_43_547" fill="white">
<path d="M216.5 256H248.5V288H216.5V256Z"/>
</mask>
<path d="M248.5 287H216.5V289H248.5V287Z" fill="#DEE6ED" mask="url(#path-256-inside-128_43_547)"/>
<mask id="path-258-inside-129_43_547" fill="white">
<path d="M247.5 256H279.5V288H247.5V256Z"/>
</mask>
<path d="M279.5 288V289H280.5V288H279.5ZM247.5 288H246.5V289H247.5V288ZM278.5 256V288H280.5V256H278.5ZM279.5 287H247.5V289H279.5V287ZM248.5 288V256H246.5V288H248.5Z" fill="#DEE6ED" mask="url(#path-258-inside-129_43_547)"/>
<mask id="path-260-inside-130_43_547" fill="white">
<path d="M278.5 256H310.5V288H278.5V256Z"/>
</mask>
<path d="M310.5 288V289H311.5V288H310.5ZM309.5 256V288H311.5V256H309.5ZM310.5 287H278.5V289H310.5V287Z" fill="#DEE6ED" mask="url(#path-260-inside-130_43_547)"/>
<mask id="path-262-inside-131_43_547" fill="white">
<path d="M309.5 256H341.5V288H309.5V256Z"/>
</mask>
<path d="M341.5 288V289H342.5V288H341.5ZM340.5 256V288H342.5V256H340.5ZM341.5 287H309.5V289H341.5V287Z" fill="#DEE6ED" mask="url(#path-262-inside-131_43_547)"/>
<mask id="path-264-inside-132_43_547" fill="white">
<path d="M340.5 256H372.5V288H340.5V256Z"/>
</mask>
<path d="M372.5 288V289H373.5V288H372.5ZM371.5 256V288H373.5V256H371.5ZM372.5 287H340.5V289H372.5V287Z" fill="#DEE6ED" mask="url(#path-264-inside-132_43_547)"/>
<mask id="path-266-inside-133_43_547" fill="white">
<path d="M371.5 256H403.5V288H371.5V256Z"/>
</mask>
<path d="M403.5 288V289H404.5V288H403.5ZM402.5 256V288H404.5V256H402.5ZM403.5 287H371.5V289H403.5V287Z" fill="#DEE6ED" mask="url(#path-266-inside-133_43_547)"/>
<mask id="path-268-inside-134_43_547" fill="white">
<path d="M402.5 256H434.5V288H402.5V256Z"/>
</mask>
<path d="M434.5 288V289H435.5V288H434.5ZM433.5 256V288H435.5V256H433.5ZM434.5 287H402.5V289H434.5V287Z" fill="#DEE6ED" mask="url(#path-268-inside-134_43_547)"/>
<mask id="path-270-inside-135_43_547" fill="white">
<path d="M433.5 257H457.5V288H433.5V257Z"/>
</mask>
<path d="M457.5 287H433.5V289H457.5V287Z" fill="#DEE6ED" mask="url(#path-270-inside-135_43_547)"/>
<mask id="path-272-inside-136_43_547" fill="white">
<path d="M0 289H31V308H0V289Z"/>
</mask>
<path d="M30 289V308H32V289H30Z" fill="#DEE6ED" mask="url(#path-272-inside-136_43_547)"/>
<mask id="path-274-inside-137_43_547" fill="white">
<path d="M30 288H62V308H30V288Z"/>
</mask>
<path d="M61 288V308H63V288H61Z" fill="#DEE6ED" mask="url(#path-274-inside-137_43_547)"/>
<mask id="path-276-inside-138_43_547" fill="white">
<path d="M61 288H93V308H61V288Z"/>
</mask>
<path d="M92 288V308H94V288H92Z" fill="#DEE6ED" mask="url(#path-276-inside-138_43_547)"/>
<mask id="path-278-inside-139_43_547" fill="white">
<path d="M92 288H124V308H92V288Z"/>
</mask>
<path d="M123 288V308H125V288H123Z" fill="#DEE6ED" mask="url(#path-278-inside-139_43_547)"/>
<mask id="path-280-inside-140_43_547" fill="white">
<path d="M123 288H155V308H123V288Z"/>
</mask>
<path d="M154 288V308H156V288H154Z" fill="#DEE6ED" mask="url(#path-280-inside-140_43_547)"/>
<mask id="path-282-inside-141_43_547" fill="white">
<path d="M154 288H186V308H154V288Z"/>
</mask>
<path d="M185 288V308H187V288H185Z" fill="#DEE6ED" mask="url(#path-282-inside-141_43_547)"/>
<mask id="path-284-inside-142_43_547" fill="white">
<path d="M185 288H217V308H185V288Z"/>
</mask>
<path d="M216 288V308H218V288H216Z" fill="#DEE6ED" mask="url(#path-284-inside-142_43_547)"/>
<mask id="path-286-inside-143_43_547" fill="white">
<path d="M216 288H248V308H216V288Z"/>
</mask>
<path d="M247 288V308H249V288H247Z" fill="#DEE6ED" mask="url(#path-286-inside-143_43_547)"/>
<mask id="path-288-inside-144_43_547" fill="white">
<path d="M278 288H310V308H278V288Z"/>
</mask>
<path d="M309 288V308H311V288H309ZM279 308V288H277V308H279Z" fill="#DEE6ED" mask="url(#path-288-inside-144_43_547)"/>
<mask id="path-290-inside-145_43_547" fill="white">
<path d="M309 288H341V308H309V288Z"/>
</mask>
<path d="M340 288V308H342V288H340Z" fill="#DEE6ED" mask="url(#path-290-inside-145_43_547)"/>
<mask id="path-292-inside-146_43_547" fill="white">
<path d="M340 288H372V308H340V288Z"/>
</mask>
<path d="M371 288V308H373V288H371Z" fill="#DEE6ED" mask="url(#path-292-inside-146_43_547)"/>
<mask id="path-294-inside-147_43_547" fill="white">
<path d="M371 288H403V308H371V288Z"/>
</mask>
<path d="M402 288V308H404V288H402Z" fill="#DEE6ED" mask="url(#path-294-inside-147_43_547)"/>
<mask id="path-296-inside-148_43_547" fill="white">
<path d="M402 288H434V308H402V288Z"/>
</mask>
<path d="M433 288V308H435V288H433Z" fill="#DEE6ED" mask="url(#path-296-inside-148_43_547)"/>
<rect width="458" height="308" rx="10" fill="url(#paint0_radial_43_547)"/>
<defs>
<radialGradient id="paint0_radial_43_547" cx="0" cy="0" r="1" gradientUnits="userSpaceOnUse" gradientTransform="translate(229 30.3032) rotate(90) scale(277.697 412.939)">
<stop stop-color="white" stop-opacity="0"/>
<stop offset="0.570918" stop-color="#F4FFEE"/>
</radialGradient>
</defs>
</svg>
