<svg width="52" height="52" viewBox="0 0 52 52" fill="none" xmlns="http://www.w3.org/2000/svg">
<path d="M18.3424 39.7666V18.2151C18.3424 17.3666 18.597 16.5393 19.0636 15.8393L24.8545 7.22718C25.7666 5.84839 28.0363 4.87263 29.9666 5.59385C32.0454 6.29385 33.4242 8.62718 32.9788 10.706L31.8757 17.6423C31.7909 18.2787 31.9606 18.8514 32.3212 19.2969C32.6818 19.6999 33.2121 19.9545 33.7848 19.9545H42.503C44.1788 19.9545 45.6212 20.6332 46.4697 21.8211C47.2757 22.9666 47.4242 24.4514 46.8939 25.9575L41.6757 41.8454C41.0182 44.4757 38.1545 46.6181 35.3121 46.6181H27.0394C25.6182 46.6181 23.6242 46.1302 22.7121 45.2181L19.997 43.1181C18.9576 42.3332 18.3424 41.0817 18.3424 39.7666Z" fill="black"/>
<path d="M11.5968 14.0787H9.41196C6.12408 14.0787 4.78772 15.3515 4.78772 18.4909V39.8303C4.78772 42.9696 6.12408 44.2424 9.41196 44.2424H11.5968C14.8847 44.2424 16.2211 42.9696 16.2211 39.8303V18.4909C16.2211 15.3515 14.8847 14.0787 11.5968 14.0787Z" fill="black"/>
</svg>
