<svg width="52" height="52" viewBox="0 0 52 52" fill="none" xmlns="http://www.w3.org/2000/svg">
<path d="M35.7364 16.2635L13.9303 38.0695C12.9122 39.0877 11.1728 38.8544 10.5576 37.5605C9.45459 35.2908 8.81823 32.7241 8.81823 30.0301C8.7758 18.3211 20.6546 8.30893 24.6849 5.23317C25.4697 4.63923 26.5303 4.63923 27.294 5.23317C29.1394 6.63317 32.597 9.53924 35.8425 13.3574C36.5637 14.2059 36.5213 15.4786 35.7364 16.2635Z" fill="black"/>
<path d="M43.1819 30.0515C43.1819 39.5122 35.4819 47.2122 26 47.2122C22.2031 47.2122 18.6606 45.9818 15.797 43.8606C14.7576 43.097 14.6728 41.5697 15.5849 40.6576L36.9455 19.297C37.9425 18.3 39.6182 18.5122 40.297 19.7425C42.0364 22.9455 43.2031 26.4243 43.1819 30.0515Z" fill="black"/>
</svg>
