<svg width="52" height="52" viewBox="0 0 52 52" fill="none" xmlns="http://www.w3.org/2000/svg">
<path d="M19.6364 4.78784C14.0789 4.78784 9.56067 9.30602 9.56067 14.8636C9.56067 20.3151 13.8243 24.7272 19.3819 24.9181C19.5516 24.8969 19.7213 24.8969 19.8485 24.9181C19.891 24.9181 19.9122 24.9181 19.9546 24.9181C19.9758 24.9181 19.9758 24.9181 19.997 24.9181C25.4273 24.7272 29.691 20.3151 29.7122 14.8636C29.7122 9.30602 25.194 4.78784 19.6364 4.78784Z" fill="black"/>
<path d="M30.4122 30.5607C24.494 26.6152 14.8425 26.6152 8.88185 30.5607C6.18791 32.3637 4.70306 34.8031 4.70306 37.4122C4.70306 40.0213 6.18791 42.4394 8.86064 44.2213C11.8303 46.2152 15.7334 47.2122 19.6364 47.2122C23.5394 47.2122 27.4425 46.2152 30.4122 44.2213C33.0849 42.4182 34.5697 40 34.5697 37.3697C34.5485 34.7607 33.0849 32.3425 30.4122 30.5607Z" fill="black"/>
<path d="M42.9485 16.1151C43.2879 20.2302 40.3606 23.8363 36.3091 24.3242C36.2879 24.3242 36.2879 24.3242 36.2667 24.3242H36.203C36.0758 24.3242 35.9485 24.3241 35.8424 24.3666C33.7849 24.4726 31.897 23.8151 30.4758 22.606C32.6606 20.6545 33.9121 17.7272 33.6576 14.5454C33.5091 12.8272 32.9152 11.2575 32.0243 9.92112C32.8303 9.51809 33.7636 9.26354 34.7182 9.1787C38.8758 8.81809 42.5879 11.9151 42.9485 16.1151Z" fill="black"/>
<path d="M47.191 35.7362C47.0213 37.7937 45.7061 39.5756 43.5 40.7847C41.3788 41.9513 38.7061 42.5028 36.0546 42.4392C37.5819 41.0604 38.4728 39.3422 38.6425 37.518C38.8546 34.8877 37.6031 32.3634 35.1 30.3483C33.6788 29.224 32.0243 28.3331 30.2213 27.6756C34.9091 26.318 40.8061 27.2301 44.4334 30.1574C46.3849 31.7271 47.3819 33.6998 47.191 35.7362Z" fill="black"/>
</svg>
