<svg width="134" height="36" viewBox="0 0 134 36" fill="none" xmlns="http://www.w3.org/2000/svg">
<path fill-rule="evenodd" clip-rule="evenodd" d="M-0.00012207 2.26415C-0.00012207 1.0137 1.02462 0 2.28885 0H6.27638C7.17611 0 8.04812 0.308429 8.74382 0.872784L9.95684 1.85673L9.98717 1.8841C10.0152 1.87476 10.0431 1.86564 10.0712 1.85673C12.2597 1.16338 14.9148 1.03153 17.6248 1.03153C20.3348 1.03153 22.99 1.16338 25.1784 1.85673C25.2065 1.86564 25.2345 1.87476 25.2625 1.8841L25.2928 1.85673L26.5058 0.872784C27.2015 0.308429 28.0735 0 28.9733 0H32.9608C34.225 0 35.2498 1.0137 35.2498 2.26415V3.66381C35.2498 4.74673 34.7886 5.77956 33.9793 6.50892L33.0008 7.39091C32.5231 7.82149 31.9497 8.13485 31.3269 8.30569L31.0954 8.36919C32.0021 10.5093 32.5031 12.7969 32.5031 14.6475C32.5031 22.0918 27.8466 25.3068 23.7437 28.1397C20.5126 30.3706 17.6248 32.3644 17.6248 36C17.6248 32.3644 14.7371 30.3706 11.506 28.1397C7.40309 25.3068 2.74658 22.0918 2.74658 14.6475C2.74658 12.7969 3.24752 10.5093 4.15427 8.36919L3.92279 8.30569C3.29999 8.13485 2.7266 7.82149 2.24888 7.39091L1.27032 6.50892C0.461036 5.77956 -0.00012207 4.74673 -0.00012207 3.66381V2.26415ZM20.6005 20.7335C20.6005 21.0892 20.4437 21.4302 20.1647 21.6817C19.8857 21.9332 19.5073 22.0745 19.1126 22.0745C18.772 22.0745 18.4433 21.9691 18.1803 21.7785C18.628 22.9638 19.7736 24.0869 21.5161 22.2808C23.0543 20.6025 21.4477 17.0629 19.8824 14.9625C19.3607 14.2624 18.5041 13.9255 17.6248 13.9255C16.7455 13.9255 15.889 14.2624 15.3673 14.9625C13.802 17.0629 12.1953 20.6025 13.7336 22.2808C15.4761 24.0869 16.6217 22.9638 17.0694 21.7785C16.8064 21.9691 16.4777 22.0745 16.137 22.0745C15.7424 22.0745 15.3639 21.9332 15.0849 21.6817C14.8059 21.4302 14.6492 21.0892 14.6492 20.7335H20.6005ZM11.9272 10.2556H7.78235L11.0489 12.8428C11.7677 13.4121 12.8184 13.2301 13.2632 12.4593C13.8248 11.486 13.0788 10.2556 11.9272 10.2556ZM23.3225 10.2556H27.4673L24.2008 12.8428C23.4819 13.4121 22.4313 13.2301 21.9865 12.4593C21.4249 11.486 22.1708 10.2556 23.3225 10.2556Z" fill="white"/>
<path d="M41.6098 25V10.88H43.8098L44.7498 13.7V25H41.6098ZM51.3498 25L43.0298 14.34L43.8098 10.88L52.1298 21.54L51.3498 25ZM51.3498 25L50.5098 22.18V10.88H53.6498V25H51.3498ZM60.8954 25.22C59.842 25.22 58.902 25.0067 58.0754 24.58C57.262 24.14 56.622 23.5333 56.1554 22.76C55.6887 21.9867 55.4554 21.1133 55.4554 20.14C55.4554 19.1667 55.682 18.3 56.1354 17.54C56.602 16.7667 57.2287 16.16 58.0154 15.72C58.802 15.28 59.6887 15.06 60.6754 15.06C61.6354 15.06 62.482 15.2667 63.2154 15.68C63.9487 16.0933 64.522 16.6667 64.9354 17.4C65.362 18.1333 65.5754 18.9733 65.5754 19.92C65.5754 20.0933 65.562 20.28 65.5354 20.48C65.522 20.6667 65.4887 20.8867 65.4354 21.14L57.0554 21.16V19.06L64.1354 19.04L62.8154 19.92C62.802 19.36 62.7154 18.9 62.5554 18.54C62.3954 18.1667 62.1554 17.8867 61.8354 17.7C61.5287 17.5 61.1487 17.4 60.6954 17.4C60.2154 17.4 59.7954 17.5133 59.4354 17.74C59.0887 17.9533 58.8154 18.26 58.6154 18.66C58.4287 19.06 58.3354 19.5467 58.3354 20.12C58.3354 20.6933 58.4354 21.1867 58.6354 21.6C58.8487 22 59.142 22.3133 59.5154 22.54C59.902 22.7533 60.3554 22.86 60.8754 22.86C61.3554 22.86 61.7887 22.78 62.1754 22.62C62.562 22.4467 62.902 22.1933 63.1954 21.86L64.8754 23.54C64.3954 24.1 63.8154 24.52 63.1354 24.8C62.4554 25.08 61.7087 25.22 60.8954 25.22ZM71.3724 25.22C70.4791 25.22 69.6857 25.04 68.9924 24.68C68.3124 24.3067 67.7791 23.8 67.3924 23.16C67.0057 22.5067 66.8124 21.76 66.8124 20.92V15.28H69.8724V20.88C69.8724 21.2133 69.9257 21.5 70.0324 21.74C70.1524 21.98 70.3257 22.1667 70.5524 22.3C70.7791 22.4333 71.0524 22.5 71.3724 22.5C71.8257 22.5 72.1857 22.36 72.4524 22.08C72.7191 21.7867 72.8524 21.3867 72.8524 20.88V15.28H75.9124V20.9C75.9124 21.7533 75.7191 22.5067 75.3324 23.16C74.9457 23.8 74.4124 24.3067 73.7324 24.68C73.0524 25.04 72.2657 25.22 71.3724 25.22ZM77.8337 25V15.28H80.8937V25H77.8337ZM80.8937 19.66L79.6137 18.66C79.867 17.5267 80.2937 16.6467 80.8937 16.02C81.4937 15.3933 82.327 15.08 83.3937 15.08C83.8603 15.08 84.267 15.1533 84.6137 15.3C84.9737 15.4333 85.287 15.6467 85.5537 15.94L83.7337 18.24C83.6003 18.0933 83.4337 17.98 83.2337 17.9C83.0337 17.82 82.807 17.78 82.5537 17.78C82.047 17.78 81.6403 17.94 81.3337 18.26C81.0403 18.5667 80.8937 19.0333 80.8937 19.66ZM90.7754 25.22C89.7754 25.22 88.8687 25 88.0554 24.56C87.2554 24.1067 86.622 23.4933 86.1554 22.72C85.6887 21.9467 85.4554 21.08 85.4554 20.12C85.4554 19.16 85.6887 18.3 86.1554 17.54C86.622 16.78 87.2554 16.18 88.0554 15.74C88.8554 15.2867 89.762 15.06 90.7754 15.06C91.7887 15.06 92.6954 15.28 93.4954 15.72C94.2954 16.16 94.9287 16.7667 95.3954 17.54C95.862 18.3 96.0954 19.16 96.0954 20.12C96.0954 21.08 95.862 21.9467 95.3954 22.72C94.9287 23.4933 94.2954 24.1067 93.4954 24.56C92.6954 25 91.7887 25.22 90.7754 25.22ZM90.7754 22.44C91.2154 22.44 91.602 22.3467 91.9354 22.16C92.2687 21.96 92.522 21.6867 92.6954 21.34C92.882 20.98 92.9754 20.5733 92.9754 20.12C92.9754 19.6667 92.882 19.2733 92.6954 18.94C92.5087 18.5933 92.2487 18.3267 91.9154 18.14C91.5954 17.94 91.2154 17.84 90.7754 17.84C90.3487 17.84 89.9687 17.94 89.6354 18.14C89.302 18.3267 89.042 18.5933 88.8554 18.94C88.6687 19.2867 88.5754 19.6867 88.5754 20.14C88.5754 20.58 88.6687 20.98 88.8554 21.34C89.042 21.6867 89.302 21.96 89.6354 22.16C89.9687 22.3467 90.3487 22.44 90.7754 22.44ZM97.8988 25V10.88H100.099L101.039 13.7V25H97.8988ZM107.639 25L99.3188 14.34L100.099 10.88L108.419 21.54L107.639 25ZM107.639 25L106.799 22.18V10.88H109.939V25H107.639ZM117.184 25.22C116.131 25.22 115.191 25.0067 114.364 24.58C113.551 24.14 112.911 23.5333 112.444 22.76C111.978 21.9867 111.744 21.1133 111.744 20.14C111.744 19.1667 111.971 18.3 112.424 17.54C112.891 16.7667 113.518 16.16 114.304 15.72C115.091 15.28 115.978 15.06 116.964 15.06C117.924 15.06 118.771 15.2667 119.504 15.68C120.238 16.0933 120.811 16.6667 121.224 17.4C121.651 18.1333 121.864 18.9733 121.864 19.92C121.864 20.0933 121.851 20.28 121.824 20.48C121.811 20.6667 121.778 20.8867 121.724 21.14L113.344 21.16V19.06L120.424 19.04L119.104 19.92C119.091 19.36 119.004 18.9 118.844 18.54C118.684 18.1667 118.444 17.8867 118.124 17.7C117.818 17.5 117.438 17.4 116.984 17.4C116.504 17.4 116.084 17.5133 115.724 17.74C115.378 17.9533 115.104 18.26 114.904 18.66C114.718 19.06 114.624 19.5467 114.624 20.12C114.624 20.6933 114.724 21.1867 114.924 21.6C115.138 22 115.431 22.3133 115.804 22.54C116.191 22.7533 116.644 22.86 117.164 22.86C117.644 22.86 118.078 22.78 118.464 22.62C118.851 22.4467 119.191 22.1933 119.484 21.86L121.164 23.54C120.684 24.1 120.104 24.52 119.424 24.8C118.744 25.08 117.998 25.22 117.184 25.22ZM129.108 25L126.768 21.22L126.108 20.8L122.288 15.28H125.868L128.048 18.82L128.688 19.22L132.648 25H129.108ZM122.108 25L126.088 19.34L127.828 21.3L125.448 25H122.108ZM128.668 20.78L126.928 18.82L129.128 15.28H132.448L128.668 20.78Z" fill="white"/>
</svg>
