<svg width="143" height="32" viewBox="0 0 143 32" fill="none" xmlns="http://www.w3.org/2000/svg">
<g clip-path="url(#clip0_5_155)">
<path d="M12.2616 28.5584C8.82811 31.992 3.01306 31.9783 1.38907 27.4022C1.07112 26.5063 0.816905 25.585 0.62993 24.6451C-0.133483 20.8071 0.258328 16.829 1.75582 13.2136C3.25331 9.59844 5.78922 6.50842 9.04287 4.3344C12.2966 2.16038 16.1218 1 20.035 1C23.9481 1 27.7733 2.16038 31.0269 4.3344C34.2806 6.50842 36.8165 9.59844 38.314 13.2138C39.8115 16.829 40.2033 20.8071 39.4399 24.6451C39.253 25.585 38.9987 26.5063 38.6807 27.4022C37.0567 31.9783 31.2417 31.992 27.8082 28.5584L22.5081 23.2583C22.0017 22.7519 22.054 21.9168 22.1937 21.2145C22.2786 20.7876 22.235 20.3451 22.0684 19.9429C21.9018 19.5407 21.6197 19.1969 21.2578 18.9551C20.8958 18.7133 20.4703 18.5841 20.035 18.5841C19.5996 18.5841 19.1741 18.7133 18.8121 18.9551C18.4501 19.1969 18.168 19.5407 18.0014 19.9429C17.8348 20.3451 17.7912 20.7876 17.8762 21.2145C18.0159 21.9168 18.0681 22.7519 17.5617 23.2583L12.2616 28.5584Z" fill="white"/>
<path d="M53.3001 23V20.24H56.8001C57.6534 20.24 58.4001 20.0733 59.0401 19.74C59.6801 19.3933 60.1734 18.8933 60.5201 18.24C60.8667 17.5867 61.0401 16.8133 61.0401 15.92C61.0401 15.0267 60.8601 14.26 60.5001 13.62C60.1534 12.98 59.6601 12.4867 59.0201 12.14C58.3934 11.7933 57.6534 11.62 56.8001 11.62H53.2001V8.88H56.8401C57.9067 8.88 58.8867 9.05333 59.7801 9.4C60.6867 9.73333 61.4734 10.22 62.1401 10.86C62.8201 11.4867 63.3401 12.2333 63.7001 13.1C64.0734 13.9533 64.2601 14.9 64.2601 15.94C64.2601 16.9667 64.0734 17.9133 63.7001 18.78C63.3401 19.6467 62.8267 20.3933 62.1601 21.02C61.4934 21.6467 60.7067 22.1333 59.8001 22.48C58.9067 22.8267 57.9334 23 56.8801 23H53.3001ZM51.1801 23V8.88H54.3201V23H51.1801ZM70.7782 23.22C69.7249 23.22 68.7849 23.0067 67.9582 22.58C67.1449 22.14 66.5049 21.5333 66.0382 20.76C65.5715 19.9867 65.3382 19.1133 65.3382 18.14C65.3382 17.1667 65.5649 16.3 66.0182 15.54C66.4849 14.7667 67.1115 14.16 67.8982 13.72C68.6849 13.28 69.5715 13.06 70.5582 13.06C71.5182 13.06 72.3649 13.2667 73.0982 13.68C73.8315 14.0933 74.4049 14.6667 74.8182 15.4C75.2449 16.1333 75.4582 16.9733 75.4582 17.92C75.4582 18.0933 75.4449 18.28 75.4182 18.48C75.4049 18.6667 75.3715 18.8867 75.3182 19.14L66.9382 19.16V17.06L74.0182 17.04L72.6982 17.92C72.6849 17.36 72.5982 16.9 72.4382 16.54C72.2782 16.1667 72.0382 15.8867 71.7182 15.7C71.4115 15.5 71.0315 15.4 70.5782 15.4C70.0982 15.4 69.6782 15.5133 69.3182 15.74C68.9715 15.9533 68.6982 16.26 68.4982 16.66C68.3115 17.06 68.2182 17.5467 68.2182 18.12C68.2182 18.6933 68.3182 19.1867 68.5182 19.6C68.7315 20 69.0249 20.3133 69.3982 20.54C69.7849 20.7533 70.2382 20.86 70.7582 20.86C71.2382 20.86 71.6715 20.78 72.0582 20.62C72.4449 20.4467 72.7849 20.1933 73.0782 19.86L74.7582 21.54C74.2782 22.1 73.6982 22.52 73.0182 22.8C72.3382 23.08 71.5915 23.22 70.7782 23.22ZM81.7352 23.22C80.6819 23.22 79.7419 23.0067 78.9152 22.58C78.1019 22.14 77.4619 21.5333 76.9952 20.76C76.5286 19.9867 76.2952 19.1133 76.2952 18.14C76.2952 17.1667 76.5219 16.3 76.9752 15.54C77.4419 14.7667 78.0686 14.16 78.8552 13.72C79.6419 13.28 80.5286 13.06 81.5152 13.06C82.4752 13.06 83.3219 13.2667 84.0552 13.68C84.7886 14.0933 85.3619 14.6667 85.7752 15.4C86.2019 16.1333 86.4152 16.9733 86.4152 17.92C86.4152 18.0933 86.4019 18.28 86.3752 18.48C86.3619 18.6667 86.3286 18.8867 86.2752 19.14L77.8952 19.16V17.06L84.9752 17.04L83.6552 17.92C83.6419 17.36 83.5552 16.9 83.3952 16.54C83.2352 16.1667 82.9952 15.8867 82.6752 15.7C82.3686 15.5 81.9886 15.4 81.5352 15.4C81.0552 15.4 80.6352 15.5133 80.2752 15.74C79.9286 15.9533 79.6552 16.26 79.4552 16.66C79.2686 17.06 79.1752 17.5467 79.1752 18.12C79.1752 18.6933 79.2752 19.1867 79.4752 19.6C79.6886 20 79.9819 20.3133 80.3552 20.54C80.7419 20.7533 81.1952 20.86 81.7152 20.86C82.1952 20.86 82.6286 20.78 83.0152 20.62C83.4019 20.4467 83.7419 20.1933 84.0352 19.86L85.7152 21.54C85.2352 22.1 84.6552 22.52 83.9752 22.8C83.2952 23.08 82.5486 23.22 81.7352 23.22ZM93.4923 23.2C92.8389 23.2 92.2389 23.0733 91.6923 22.82C91.1456 22.5667 90.6989 22.22 90.3523 21.78C90.0056 21.3267 89.8056 20.8133 89.7523 20.24V16.14C89.8056 15.5667 90.0056 15.0467 90.3523 14.58C90.6989 14.1133 91.1456 13.7467 91.6923 13.48C92.2389 13.2133 92.8389 13.08 93.4923 13.08C94.4123 13.08 95.2256 13.3 95.9323 13.74C96.6523 14.18 97.2123 14.78 97.6123 15.54C98.0256 16.3 98.2323 17.1667 98.2323 18.14C98.2323 19.1133 98.0256 19.98 97.6123 20.74C97.2123 21.5 96.6523 22.1 95.9323 22.54C95.2256 22.98 94.4123 23.2 93.4923 23.2ZM87.8923 27.1V13.28H90.9523V15.78L90.4523 18.14L90.9123 20.5V27.1H87.8923ZM92.9323 20.44C93.3723 20.44 93.7523 20.34 94.0723 20.14C94.4056 19.94 94.6656 19.6667 94.8523 19.32C95.0389 18.9733 95.1323 18.58 95.1323 18.14C95.1323 17.6867 95.0389 17.2867 94.8523 16.94C94.6656 16.5933 94.4056 16.3267 94.0723 16.14C93.7523 15.94 93.3789 15.84 92.9523 15.84C92.5256 15.84 92.1456 15.94 91.8123 16.14C91.4923 16.3267 91.2389 16.5933 91.0523 16.94C90.8656 17.2867 90.7723 17.6867 90.7723 18.14C90.7723 18.58 90.8589 18.9733 91.0323 19.32C91.2189 19.6667 91.4789 19.94 91.8123 20.14C92.1456 20.34 92.5189 20.44 92.9323 20.44ZM104.307 23.22C103.147 23.22 102.147 23.0333 101.307 22.66C100.48 22.2733 99.7201 21.6933 99.0268 20.92L101.067 18.9C101.52 19.42 102.02 19.8267 102.567 20.12C103.127 20.4 103.773 20.54 104.507 20.54C105.173 20.54 105.687 20.42 106.047 20.18C106.42 19.94 106.607 19.6067 106.607 19.18C106.607 18.7933 106.487 18.48 106.247 18.24C106.007 18 105.687 17.7933 105.287 17.62C104.9 17.4467 104.467 17.28 103.987 17.12C103.52 16.96 103.053 16.78 102.587 16.58C102.12 16.3667 101.687 16.1067 101.287 15.8C100.9 15.48 100.587 15.0867 100.347 14.62C100.107 14.14 99.9868 13.54 99.9868 12.82C99.9868 11.9533 100.193 11.2067 100.607 10.58C101.033 9.95333 101.62 9.48 102.367 9.16C103.113 8.82667 103.973 8.66 104.947 8.66C105.933 8.66 106.833 8.83333 107.647 9.18C108.473 9.52667 109.153 10 109.687 10.6L107.647 12.62C107.22 12.18 106.787 11.8533 106.347 11.64C105.92 11.4267 105.433 11.32 104.887 11.32C104.34 11.32 103.907 11.4267 103.587 11.64C103.267 11.84 103.107 12.1333 103.107 12.52C103.107 12.88 103.227 13.1733 103.467 13.4C103.707 13.6133 104.02 13.8 104.407 13.96C104.807 14.12 105.24 14.28 105.707 14.44C106.187 14.6 106.66 14.7867 107.127 15C107.593 15.2133 108.02 15.4867 108.407 15.82C108.807 16.14 109.127 16.5533 109.367 17.06C109.607 17.5533 109.727 18.1667 109.727 18.9C109.727 20.2467 109.247 21.3067 108.287 22.08C107.327 22.84 106 23.22 104.307 23.22ZM114.232 23.04L110.232 13.28H113.532L116.072 21.02H114.852L117.452 13.28H120.752L116.592 23.04H114.232ZM111.732 27.1L114.652 20.8L116.592 23.04L114.872 27.1H111.732ZM128.101 23V17.46C128.101 16.9533 127.941 16.5467 127.621 16.24C127.315 15.92 126.921 15.76 126.441 15.76C126.108 15.76 125.815 15.8333 125.561 15.98C125.308 16.1133 125.108 16.3133 124.961 16.58C124.815 16.8333 124.741 17.1267 124.741 17.46L123.561 16.88C123.561 16.12 123.728 15.4533 124.061 14.88C124.395 14.3067 124.855 13.8667 125.441 13.56C126.041 13.24 126.715 13.08 127.461 13.08C128.181 13.08 128.815 13.2533 129.361 13.6C129.921 13.9333 130.361 14.38 130.681 14.94C131.001 15.5 131.161 16.1133 131.161 16.78V23H128.101ZM121.681 23V13.28H124.741V23H121.681ZM137.827 23.22C136.827 23.22 135.92 23 135.107 22.56C134.293 22.12 133.653 21.5133 133.187 20.74C132.72 19.9667 132.487 19.1 132.487 18.14C132.487 17.1667 132.72 16.3 133.187 15.54C133.667 14.7667 134.313 14.16 135.127 13.72C135.94 13.28 136.853 13.06 137.867 13.06C138.627 13.06 139.32 13.1933 139.947 13.46C140.587 13.7133 141.153 14.1 141.647 14.62L139.687 16.58C139.46 16.3267 139.193 16.14 138.887 16.02C138.593 15.9 138.253 15.84 137.867 15.84C137.427 15.84 137.033 15.94 136.687 16.14C136.353 16.3267 136.087 16.5933 135.887 16.94C135.7 17.2733 135.607 17.6667 135.607 18.12C135.607 18.5733 135.7 18.9733 135.887 19.32C136.087 19.6667 136.36 19.94 136.707 20.14C137.053 20.34 137.44 20.44 137.867 20.44C138.267 20.44 138.62 20.3733 138.927 20.24C139.247 20.0933 139.52 19.8933 139.747 19.64L141.687 21.6C141.18 22.1333 140.607 22.54 139.967 22.82C139.327 23.0867 138.613 23.22 137.827 23.22Z" fill="white"/>
</g>
<defs>
<clipPath id="clip0_5_155">
<rect width="142.57" height="32" fill="white" transform="translate(0.249756)"/>
</clipPath>
</defs>
</svg>
