<svg width="136" height="40" viewBox="0 0 136 40" fill="none" xmlns="http://www.w3.org/2000/svg">
<g clip-path="url(#clip0_5_89)">
<path fill-rule="evenodd" clip-rule="evenodd" d="M8.55267 3.59787C7.12201 4.59823 5.82831 5.78098 4.70526 7.1124C9.29456 6.68633 15.1251 7.38204 21.8943 10.7667C29.1229 14.3809 34.9437 14.5031 38.9947 13.7217C38.6271 12.6088 38.1643 11.5392 37.6162 10.5224C32.9789 11.0115 27.0339 10.3641 20.1055 6.89998C15.7059 4.70018 11.8277 3.79401 8.55267 3.59787ZM34.9073 6.66665C31.2452 2.575 25.9233 0 19.9999 0C18.2604 0 16.5726 0.222107 14.9636 0.63948C17.1428 1.23409 19.4578 2.10399 21.8943 3.32227C26.9669 5.85853 31.3463 6.67516 34.9073 6.66665ZM39.8608 17.6281C34.9668 18.5945 28.2087 18.396 20.1055 14.3444C12.5299 10.5566 6.50037 10.6043 2.43384 11.508C2.22394 11.5546 2.01898 11.6036 1.81897 11.6546C1.28656 12.8125 0.861573 14.0301 0.556641 15.2945C0.882325 15.2075 1.21887 15.1248 1.5661 15.0476C6.49951 13.9513 13.47 13.9989 21.8943 18.2111C29.47 21.9989 35.4995 21.9512 39.5661 21.0475C39.7054 21.0166 39.8427 20.9846 39.9777 20.9516C39.9925 20.6363 39.9999 20.319 39.9999 20C39.9999 19.1975 39.9527 18.406 39.8608 17.6281ZM39.3247 25.1723C34.4782 26.0196 27.9169 25.6944 20.1055 21.7888C12.5299 18.001 6.50037 18.0487 2.43384 18.9524C1.53119 19.1529 0.719178 19.3972 0.00286897 19.6551C0.000915965 19.7698 -6.10352e-05 19.8848 -6.10352e-05 20C-6.10352e-05 31.0457 8.95423 40 19.9999 40C29.257 40 37.0452 33.7109 39.3247 25.1723Z" fill="white"/>
<path d="M53.0599 27.22C52.0066 27.22 51.0266 27.04 50.1199 26.68C49.2266 26.3067 48.4399 25.7867 47.7599 25.12C47.0932 24.4533 46.5732 23.68 46.1999 22.8C45.8266 21.9067 45.6399 20.9467 45.6399 19.92C45.6399 18.8933 45.8266 17.94 46.1999 17.06C46.5732 16.1667 47.0932 15.3933 47.7599 14.74C48.4266 14.0867 49.2066 13.58 50.0999 13.22C51.0066 12.8467 51.9866 12.66 53.0399 12.66C54.1599 12.66 55.1532 12.84 56.0199 13.2C56.8999 13.56 57.6666 14.0533 58.3199 14.68L56.2199 16.8C55.8466 16.4 55.3932 16.0867 54.8599 15.86C54.3399 15.6333 53.7332 15.52 53.0399 15.52C52.4266 15.52 51.8599 15.6267 51.3399 15.84C50.8332 16.04 50.3932 16.3333 50.0199 16.72C49.6599 17.1067 49.3732 17.5733 49.1599 18.12C48.9599 18.6667 48.8599 19.2667 48.8599 19.92C48.8599 20.5867 48.9599 21.1933 49.1599 21.74C49.3732 22.2867 49.6599 22.7533 50.0199 23.14C50.3932 23.5267 50.8332 23.8267 51.3399 24.04C51.8599 24.2533 52.4266 24.36 53.0399 24.36C53.7599 24.36 54.3866 24.2467 54.9199 24.02C55.4532 23.7933 55.9132 23.48 56.2999 23.08L58.4199 25.2C57.7399 25.8267 56.9599 26.32 56.0799 26.68C55.2132 27.04 54.2066 27.22 53.0599 27.22ZM64.3146 27.22C63.3146 27.22 62.4079 27 61.5946 26.56C60.7946 26.1067 60.1612 25.4933 59.6946 24.72C59.2279 23.9467 58.9946 23.08 58.9946 22.12C58.9946 21.16 59.2279 20.3 59.6946 19.54C60.1612 18.78 60.7946 18.18 61.5946 17.74C62.3946 17.2867 63.3012 17.06 64.3146 17.06C65.3279 17.06 66.2346 17.28 67.0346 17.72C67.8346 18.16 68.4679 18.7667 68.9346 19.54C69.4012 20.3 69.6346 21.16 69.6346 22.12C69.6346 23.08 69.4012 23.9467 68.9346 24.72C68.4679 25.4933 67.8346 26.1067 67.0346 26.56C66.2346 27 65.3279 27.22 64.3146 27.22ZM64.3146 24.44C64.7546 24.44 65.1412 24.3467 65.4746 24.16C65.8079 23.96 66.0612 23.6867 66.2346 23.34C66.4212 22.98 66.5146 22.5733 66.5146 22.12C66.5146 21.6667 66.4212 21.2733 66.2346 20.94C66.0479 20.5933 65.7879 20.3267 65.4546 20.14C65.1346 19.94 64.7546 19.84 64.3146 19.84C63.8879 19.84 63.5079 19.94 63.1746 20.14C62.8412 20.3267 62.5812 20.5933 62.3946 20.94C62.2079 21.2867 62.1146 21.6867 62.1146 22.14C62.1146 22.58 62.2079 22.98 62.3946 23.34C62.5812 23.6867 62.8412 23.96 63.1746 24.16C63.5079 24.3467 63.8879 24.44 64.3146 24.44ZM75.298 27.2C74.378 27.2 73.558 26.98 72.838 26.54C72.1314 26.1 71.5714 25.5 71.158 24.74C70.758 23.98 70.558 23.1133 70.558 22.14C70.558 21.1667 70.758 20.3 71.158 19.54C71.5714 18.78 72.1314 18.18 72.838 17.74C73.558 17.3 74.378 17.08 75.298 17.08C75.9647 17.08 76.5647 17.2067 77.098 17.46C77.6447 17.7133 78.0914 18.0667 78.438 18.52C78.798 18.96 78.998 19.4667 79.038 20.04V24.14C78.998 24.7133 78.8047 25.2333 78.458 25.7C78.1114 26.1533 77.6647 26.52 77.118 26.8C76.5714 27.0667 75.9647 27.2 75.298 27.2ZM75.838 24.44C76.278 24.44 76.658 24.3467 76.978 24.16C77.298 23.96 77.5514 23.6867 77.738 23.34C77.9247 22.9933 78.018 22.5933 78.018 22.14C78.018 21.6867 77.9247 21.2933 77.738 20.96C77.5647 20.6133 77.3114 20.34 76.978 20.14C76.658 19.94 76.2847 19.84 75.858 19.84C75.4314 19.84 75.0514 19.94 74.718 20.14C74.398 20.34 74.138 20.6133 73.938 20.96C73.7514 21.3067 73.658 21.7 73.658 22.14C73.658 22.58 73.7514 22.9733 73.938 23.32C74.1247 23.6667 74.3847 23.94 74.718 24.14C75.0514 24.34 75.4247 24.44 75.838 24.44ZM80.898 27H77.898V24.38L78.358 22.02L77.838 19.66V12.48H80.898V27ZM87.8525 27.22C86.7992 27.22 85.8592 27.0067 85.0325 26.58C84.2192 26.14 83.5792 25.5333 83.1125 24.76C82.6459 23.9867 82.4125 23.1133 82.4125 22.14C82.4125 21.1667 82.6392 20.3 83.0925 19.54C83.5592 18.7667 84.1859 18.16 84.9725 17.72C85.7592 17.28 86.6459 17.06 87.6325 17.06C88.5925 17.06 89.4392 17.2667 90.1725 17.68C90.9059 18.0933 91.4792 18.6667 91.8925 19.4C92.3192 20.1333 92.5325 20.9733 92.5325 21.92C92.5325 22.0933 92.5192 22.28 92.4925 22.48C92.4792 22.6667 92.4459 22.8867 92.3925 23.14L84.0125 23.16V21.06L91.0926 21.04L89.7725 21.92C89.7592 21.36 89.6725 20.9 89.5125 20.54C89.3525 20.1667 89.1125 19.8867 88.7925 19.7C88.4859 19.5 88.1059 19.4 87.6525 19.4C87.1725 19.4 86.7525 19.5133 86.3925 19.74C86.0459 19.9533 85.7725 20.26 85.5725 20.66C85.3859 21.06 85.2925 21.5467 85.2925 22.12C85.2925 22.6933 85.3925 23.1867 85.5925 23.6C85.8059 24 86.0992 24.3133 86.4725 24.54C86.8592 24.7533 87.3125 24.86 87.8325 24.86C88.3125 24.86 88.7459 24.78 89.1325 24.62C89.5192 24.4467 89.8592 24.1933 90.1525 23.86L91.8326 25.54C91.3525 26.1 90.7725 26.52 90.0925 26.8C89.4125 27.08 88.6659 27.22 87.8525 27.22ZM94.2896 27V12.88H96.4896L97.4296 15.7V27H94.2896ZM104.03 27L95.7096 16.34L96.4896 12.88L104.81 23.54L104.03 27ZM104.03 27L103.19 24.18V12.88H106.33V27H104.03ZM113.575 27.22C112.522 27.22 111.582 27.0067 110.755 26.58C109.942 26.14 109.302 25.5333 108.835 24.76C108.369 23.9867 108.135 23.1133 108.135 22.14C108.135 21.1667 108.362 20.3 108.815 19.54C109.282 18.7667 109.909 18.16 110.695 17.72C111.482 17.28 112.369 17.06 113.355 17.06C114.315 17.06 115.162 17.2667 115.895 17.68C116.629 18.0933 117.202 18.6667 117.615 19.4C118.042 20.1333 118.255 20.9733 118.255 21.92C118.255 22.0933 118.242 22.28 118.215 22.48C118.202 22.6667 118.169 22.8867 118.115 23.14L109.735 23.16V21.06L116.815 21.04L115.495 21.92C115.482 21.36 115.395 20.9 115.235 20.54C115.075 20.1667 114.835 19.8867 114.515 19.7C114.209 19.5 113.829 19.4 113.375 19.4C112.895 19.4 112.475 19.5133 112.115 19.74C111.769 19.9533 111.495 20.26 111.295 20.66C111.109 21.06 111.015 21.5467 111.015 22.12C111.015 22.6933 111.115 23.1867 111.315 23.6C111.529 24 111.822 24.3133 112.195 24.54C112.582 24.7533 113.035 24.86 113.555 24.86C114.035 24.86 114.469 24.78 114.855 24.62C115.242 24.4467 115.582 24.1933 115.875 23.86L117.555 25.54C117.075 26.1 116.495 26.52 115.815 26.8C115.135 27.08 114.389 27.22 113.575 27.22ZM123.272 27.24C122.699 27.24 122.132 27.1667 121.572 27.02C121.026 26.8733 120.512 26.6667 120.032 26.4C119.566 26.12 119.166 25.8 118.832 25.44L120.572 23.68C120.892 24.0267 121.272 24.3 121.712 24.5C122.152 24.6867 122.632 24.78 123.152 24.78C123.512 24.78 123.786 24.7267 123.972 24.62C124.172 24.5133 124.272 24.3667 124.272 24.18C124.272 23.94 124.152 23.76 123.912 23.64C123.686 23.5067 123.392 23.3933 123.032 23.3C122.672 23.1933 122.292 23.08 121.892 22.96C121.492 22.84 121.112 22.6733 120.752 22.46C120.392 22.2467 120.099 21.9533 119.872 21.58C119.646 21.1933 119.532 20.7067 119.532 20.12C119.532 19.4933 119.692 18.9533 120.012 18.5C120.332 18.0333 120.786 17.6667 121.372 17.4C121.959 17.1333 122.646 17 123.432 17C124.259 17 125.019 17.1467 125.712 17.44C126.419 17.72 126.992 18.14 127.432 18.7L125.692 20.46C125.386 20.1 125.039 19.8467 124.652 19.7C124.279 19.5533 123.912 19.48 123.552 19.48C123.206 19.48 122.946 19.5333 122.772 19.64C122.599 19.7333 122.512 19.8733 122.512 20.06C122.512 20.26 122.626 20.42 122.852 20.54C123.079 20.66 123.372 20.7667 123.732 20.86C124.092 20.9533 124.472 21.0667 124.872 21.2C125.272 21.3333 125.652 21.5133 126.012 21.74C126.372 21.9667 126.666 22.2733 126.892 22.66C127.119 23.0333 127.232 23.5267 127.232 24.14C127.232 25.0867 126.872 25.84 126.152 26.4C125.446 26.96 124.486 27.24 123.272 27.24ZM130.272 27V13.26H133.332V27H130.272ZM128.072 19.88V17.28H135.532V19.88H128.072Z" fill="white"/>
</g>
<defs>
<clipPath id="clip0_5_89">
<rect width="136" height="40" fill="white"/>
</clipPath>
</defs>
</svg>
