<svg width="121" height="36" viewBox="0 0 121 36" fill="none" xmlns="http://www.w3.org/2000/svg">
<g clip-path="url(#clip0_5_100)">
<path d="M0.598636 15.8915C1.67607 11.4965 4.17137 7.59361 7.68721 4.80445C11.2031 2.01524 15.5374 0.5 19.9999 0.5C24.4624 0.5 28.7967 2.01524 32.3125 4.80445C35.8284 7.59361 38.3236 11.4965 39.4011 15.8915H37.6487C34.6924 15.8473 31.7967 16.744 29.3683 18.4555C29.2281 18.5585 29.0817 18.6527 28.9301 18.7371H28.7257C28.5741 18.6527 28.4278 18.5585 28.2876 18.4555C25.8376 16.7835 22.9522 15.8906 19.9999 15.8906C17.0476 15.8906 14.1621 16.7835 11.7122 18.4555C11.572 18.5585 11.4257 18.6527 11.2741 18.7371H11.0696C10.918 18.6527 10.7717 18.5585 10.6315 18.4555C8.20302 16.744 5.30736 15.8473 2.3511 15.8915H0.598636ZM34.4942 25.1844C35.3938 24.4734 36.5088 24.1014 37.6487 24.1321H39.9999V19.3745H37.6487C35.6409 19.3498 33.6792 19.9841 32.0554 21.1826C31.1416 21.8664 30.0362 22.2353 28.9009 22.2353C27.7656 22.2353 26.6603 21.8664 25.7465 21.1826C24.0815 20.0064 22.1015 19.3758 20.0729 19.3758C18.0443 19.3758 16.0643 20.0064 14.3993 21.1826C13.4855 21.8664 12.3802 22.2353 11.2449 22.2353C10.1096 22.2353 9.00419 21.8664 8.09042 21.1826C6.44661 19.9686 4.45669 19.3337 2.42412 19.3745H-0.00012207V24.1321H2.3511C3.49095 24.1014 4.60594 24.4734 5.50554 25.1844C7.16746 26.3615 9.14526 26.9926 11.1718 26.9926C13.1984 26.9926 15.1762 26.3615 16.8381 25.1844C17.7389 24.4756 18.853 24.1039 19.9926 24.1321C21.1328 24.0989 22.2486 24.4712 23.147 25.1844C24.812 26.3608 26.792 26.9913 28.8206 26.9913C30.8492 26.9913 32.8292 26.3608 34.4942 25.1844ZM34.4942 33.6918C35.3938 32.9808 36.5088 32.6088 37.6487 32.6395H39.9999V27.8819H37.6487C35.6409 27.8573 33.6792 28.4915 32.0554 29.6901C31.1416 30.3738 30.0362 30.7427 28.9009 30.7427C27.7656 30.7427 26.6603 30.3738 25.7465 29.6901C24.0815 28.5138 22.1015 27.8833 20.0729 27.8833C18.0443 27.8833 16.0643 28.5138 14.3993 29.6901C13.4855 30.3738 12.3802 30.7427 11.2449 30.7427C10.1096 30.7427 9.00419 30.3738 8.09042 29.6901C6.44661 28.4762 4.45669 27.8411 2.42412 27.8819H-0.00012207V32.6395H2.3511C3.49095 32.6088 4.60594 32.9808 5.50554 33.6918C7.16746 34.8689 9.14526 35.5 11.1718 35.5C13.1984 35.5 15.1762 34.8689 16.8381 33.6918C17.7389 32.9831 18.853 32.6113 19.9926 32.6395C21.1328 32.6063 22.2486 32.9786 23.147 33.6918C24.812 34.8682 26.792 35.4987 28.8206 35.4987C30.8492 35.4987 32.8292 34.8682 34.4942 33.6918Z" fill="white"/>
<path d="M46.3599 25V10.88H48.5599L49.4999 13.7V25H46.3599ZM56.0999 25L47.7799 14.34L48.5599 10.88L56.8799 21.54L56.0999 25ZM56.0999 25L55.2599 22.18V10.88H58.3999V25H56.0999ZM65.6455 25.22C64.5922 25.22 63.6522 25.0067 62.8255 24.58C62.0122 24.14 61.3722 23.5333 60.9055 22.76C60.4388 21.9867 60.2055 21.1133 60.2055 20.14C60.2055 19.1667 60.4322 18.3 60.8855 17.54C61.3522 16.7667 61.9788 16.16 62.7655 15.72C63.5522 15.28 64.4388 15.06 65.4255 15.06C66.3855 15.06 67.2322 15.2667 67.9655 15.68C68.6988 16.0933 69.2722 16.6667 69.6855 17.4C70.1122 18.1333 70.3255 18.9733 70.3255 19.92C70.3255 20.0933 70.3122 20.28 70.2855 20.48C70.2722 20.6667 70.2388 20.8867 70.1855 21.14L61.8055 21.16V19.06L68.8855 19.04L67.5655 19.92C67.5522 19.36 67.4655 18.9 67.3055 18.54C67.1455 18.1667 66.9055 17.8867 66.5855 17.7C66.2788 17.5 65.8988 17.4 65.4455 17.4C64.9655 17.4 64.5455 17.5133 64.1855 17.74C63.8388 17.9533 63.5655 18.26 63.3655 18.66C63.1788 19.06 63.0855 19.5467 63.0855 20.12C63.0855 20.6933 63.1855 21.1867 63.3855 21.6C63.5988 22 63.8922 22.3133 64.2655 22.54C64.6522 22.7533 65.1055 22.86 65.6255 22.86C66.1055 22.86 66.5388 22.78 66.9255 22.62C67.3122 22.4467 67.6522 22.1933 67.9455 21.86L69.6255 23.54C69.1455 24.1 68.5655 24.52 67.8855 24.8C67.2055 25.08 66.4588 25.22 65.6455 25.22ZM77.5686 25L75.2286 21.22L74.5686 20.8L70.7486 15.28H74.3286L76.5086 18.82L77.1486 19.22L81.1086 25H77.5686ZM70.5686 25L74.5486 19.34L76.2886 21.3L73.9086 25H70.5686ZM77.1286 20.78L75.3886 18.82L77.5886 15.28H80.9086L77.1286 20.78ZM86.7913 25.22C85.6313 25.22 84.6313 25.0333 83.7913 24.66C82.9646 24.2733 82.2046 23.6933 81.5113 22.92L83.5513 20.9C84.0046 21.42 84.5046 21.8267 85.0513 22.12C85.6113 22.4 86.258 22.54 86.9913 22.54C87.658 22.54 88.1713 22.42 88.5313 22.18C88.9046 21.94 89.0913 21.6067 89.0913 21.18C89.0913 20.7933 88.9713 20.48 88.7313 20.24C88.4913 20 88.1713 19.7933 87.7713 19.62C87.3846 19.4467 86.9513 19.28 86.4713 19.12C86.0046 18.96 85.538 18.78 85.0713 18.58C84.6046 18.3667 84.1713 18.1067 83.7713 17.8C83.3846 17.48 83.0713 17.0867 82.8313 16.62C82.5913 16.14 82.4713 15.54 82.4713 14.82C82.4713 13.9533 82.678 13.2067 83.0913 12.58C83.518 11.9533 84.1046 11.48 84.8513 11.16C85.598 10.8267 86.458 10.66 87.4313 10.66C88.418 10.66 89.318 10.8333 90.1313 11.18C90.958 11.5267 91.638 12 92.1713 12.6L90.1313 14.62C89.7046 14.18 89.2713 13.8533 88.8313 13.64C88.4046 13.4267 87.918 13.32 87.3713 13.32C86.8246 13.32 86.3913 13.4267 86.0713 13.64C85.7513 13.84 85.5913 14.1333 85.5913 14.52C85.5913 14.88 85.7113 15.1733 85.9513 15.4C86.1913 15.6133 86.5046 15.8 86.8913 15.96C87.2913 16.12 87.7246 16.28 88.1913 16.44C88.6713 16.6 89.1446 16.7867 89.6113 17C90.078 17.2133 90.5046 17.4867 90.8913 17.82C91.2913 18.14 91.6113 18.5533 91.8513 19.06C92.0913 19.5533 92.2113 20.1667 92.2113 20.9C92.2113 22.2467 91.7313 23.3067 90.7713 24.08C89.8113 24.84 88.4846 25.22 86.7913 25.22ZM98.5528 25.22C97.5528 25.22 96.6462 25 95.8328 24.56C95.0328 24.1067 94.3995 23.4933 93.9328 22.72C93.4662 21.9467 93.2328 21.08 93.2328 20.12C93.2328 19.16 93.4662 18.3 93.9328 17.54C94.3995 16.78 95.0328 16.18 95.8328 15.74C96.6328 15.2867 97.5395 15.06 98.5528 15.06C99.5662 15.06 100.473 15.28 101.273 15.72C102.073 16.16 102.706 16.7667 103.173 17.54C103.64 18.3 103.873 19.16 103.873 20.12C103.873 21.08 103.64 21.9467 103.173 22.72C102.706 23.4933 102.073 24.1067 101.273 24.56C100.473 25 99.5662 25.22 98.5528 25.22ZM98.5528 22.44C98.9928 22.44 99.3795 22.3467 99.7128 22.16C100.046 21.96 100.3 21.6867 100.473 21.34C100.66 20.98 100.753 20.5733 100.753 20.12C100.753 19.6667 100.66 19.2733 100.473 18.94C100.286 18.5933 100.026 18.3267 99.6928 18.14C99.3728 17.94 98.9928 17.84 98.5528 17.84C98.1262 17.84 97.7462 17.94 97.4128 18.14C97.0795 18.3267 96.8195 18.5933 96.6328 18.94C96.4462 19.2867 96.3528 19.6867 96.3528 20.14C96.3528 20.58 96.4462 20.98 96.6328 21.34C96.8195 21.6867 97.0795 21.96 97.4128 22.16C97.7462 22.3467 98.1262 22.44 98.5528 22.44ZM106.441 25V14.44C106.441 13.6533 106.614 12.9467 106.961 12.32C107.321 11.68 107.821 11.18 108.461 10.82C109.101 10.4467 109.861 10.26 110.741 10.26C111.408 10.26 111.988 10.3733 112.481 10.6C112.988 10.8133 113.428 11.1133 113.801 11.5L111.881 13.42C111.748 13.2867 111.594 13.1867 111.421 13.12C111.261 13.04 111.068 13 110.841 13C110.428 13 110.101 13.12 109.861 13.36C109.621 13.6 109.501 13.9267 109.501 14.34V25H106.441ZM104.301 17.88V15.28H112.301V17.88H104.301ZM114.726 25V11.26H117.786V25H114.726ZM112.526 17.88V15.28H119.986V17.88H112.526Z" fill="white"/>
</g>
<defs>
<clipPath id="clip0_5_100">
<rect width="121" height="35" fill="white" transform="translate(-0.00012207 0.5)"/>
</clipPath>
</defs>
</svg>
