<svg width="141" height="40" viewBox="0 0 141 40" fill="none" xmlns="http://www.w3.org/2000/svg">
<g clip-path="url(#clip0_5_78)">
<path fill-rule="evenodd" clip-rule="evenodd" d="M19.9999 0C31.0456 0 39.9999 8.95427 39.9999 19.9999C39.9999 31.0457 31.0456 40 19.9999 40C8.95417 40 -0.00012207 31.0457 -0.00012207 19.9999C-0.00012207 8.95427 8.95417 0 19.9999 0ZM39.2322 19.9999C39.2322 9.37827 30.6216 0.767602 19.9999 0.767602C19.1431 0.767602 18.2995 0.823625 17.4723 0.932211C18.0067 0.885485 18.5475 0.861632 19.094 0.861632C29.2436 0.861632 37.4715 9.08952 37.4715 19.2391C37.4715 29.3886 29.2436 37.6165 19.094 37.6165C9.4851 37.6165 1.59859 30.2419 0.785666 20.8437C1.22728 31.074 9.6608 39.2323 19.9999 39.2323C30.6216 39.2323 39.2322 30.6217 39.2322 19.9999ZM36.7039 19.2391C36.7039 9.51342 28.8197 1.62924 19.094 1.62924C18.3044 1.62924 17.5268 1.68122 16.7646 1.78194C17.2339 1.74246 17.7087 1.72231 18.1882 1.72231C27.4418 1.72231 34.9432 9.22379 34.9432 18.4772C34.9432 27.7308 27.4418 35.2322 18.1882 35.2322C9.43882 35.2322 2.25576 28.5257 1.49919 19.9729C1.88386 29.3582 9.61421 36.849 19.094 36.849C28.8197 36.849 36.7039 28.9647 36.7039 19.2391ZM18.1882 2.48992C27.0178 2.48992 34.1756 9.6477 34.1756 18.4772C34.1756 27.3068 27.0178 34.4645 18.1882 34.4645C9.56331 34.4645 2.53348 27.6346 2.21241 19.0881C2.9056 26.8021 9.38805 32.8477 17.2826 32.8477C25.6394 32.8477 32.414 26.0732 32.414 17.7163C32.414 9.35944 25.6394 2.5849 17.2826 2.5849C16.8502 2.5849 16.4221 2.60304 15.999 2.63857C16.7148 2.54056 17.4456 2.48992 18.1882 2.48992ZM31.6463 17.7163C31.6463 9.78344 25.2155 3.35251 17.2826 3.35251C16.6123 3.35251 15.9527 3.39841 15.3069 3.48726C15.6595 3.45966 16.016 3.4456 16.3757 3.4456C23.8365 3.4456 29.8847 9.49371 29.8847 16.9545C29.8847 24.4152 23.8365 30.4634 16.3757 30.4634C9.35349 30.4634 3.58269 25.1053 2.92858 18.2545C3.21157 25.938 9.52977 32.0802 17.2826 32.0802C25.2155 32.0802 31.6463 25.6493 31.6463 17.7163ZM16.3757 4.2132C23.4125 4.2132 29.117 9.91771 29.117 16.9545C29.117 23.9913 23.4125 29.6958 16.3757 29.6958C9.47753 29.6958 3.85971 24.2139 3.64105 17.3688C4.23162 23.3814 9.3022 28.0791 15.4699 28.0791C22.0347 28.0791 27.3564 22.7573 27.3564 16.1926C27.3564 9.62798 22.0347 4.30627 15.4699 4.30627C15.1689 4.30627 14.8705 4.31746 14.575 4.33945C15.1633 4.25624 15.7645 4.2132 16.3757 4.2132ZM26.5888 16.1926C26.5888 10.0519 21.6107 5.07388 15.4699 5.07388C14.9094 5.07388 14.3586 5.11536 13.8203 5.19541C14.066 5.17782 14.3141 5.16886 14.5643 5.16886C20.2323 5.16886 24.8272 9.76373 24.8272 15.4317C24.8272 21.0998 20.2323 25.6946 14.5643 25.6946C9.25295 25.6946 4.88404 21.6601 4.35506 16.4884C4.51188 22.4925 9.42816 27.3115 15.4699 27.3115C21.6107 27.3115 26.5888 22.3334 26.5888 16.1926ZM14.5643 5.93647C19.8084 5.93647 24.0595 10.1876 24.0595 15.4317C24.0595 20.6759 19.8084 24.927 14.5643 24.927C9.38684 24.927 5.17729 20.7834 5.07098 15.6315C5.54925 19.9509 9.21154 23.3103 13.6585 23.3103C18.4304 23.3103 22.2988 19.4419 22.2988 14.6699C22.2988 9.898 18.4304 6.02954 13.6585 6.02954C13.476 6.02954 13.2948 6.0352 13.1151 6.04635C13.5876 5.974 14.0715 5.93647 14.5643 5.93647ZM21.5312 14.6699C21.5312 10.3219 18.0065 6.79715 13.6585 6.79715C13.2218 6.79715 12.7935 6.8327 12.3762 6.90105C12.5005 6.8945 12.6257 6.89118 12.7517 6.89118C16.6275 6.89118 19.7695 10.0332 19.7695 13.909C19.7695 17.7849 16.6275 20.9269 12.7517 20.9269C9.16788 20.9269 6.21149 18.2405 5.78633 14.7715C5.84077 19.0728 9.34439 22.5427 13.6585 22.5427C18.0065 22.5427 21.5312 19.018 21.5312 14.6699ZM12.7517 7.65878C16.2036 7.65878 19.0019 10.4571 19.0019 13.909C19.0019 17.361 16.2036 20.1592 12.7517 20.1592C9.29978 20.1592 6.50145 17.361 6.50145 13.909C6.50145 13.9008 6.50147 13.8924 6.5015 13.8842C6.86089 16.5147 9.11671 18.5416 11.8459 18.5416C14.8252 18.5416 17.2403 16.1264 17.2403 13.1472C17.2403 10.1679 14.8252 7.75283 11.8459 7.75283C11.7786 7.75283 11.7115 7.75406 11.6447 7.75651C12.004 7.6923 12.3739 7.65878 12.7517 7.65878ZM16.4726 13.1472C16.4726 10.5919 14.4012 8.52043 11.8459 8.52043C9.29064 8.52043 7.21918 10.5919 7.21918 13.1472C7.21918 15.7024 9.29064 17.7739 11.8459 17.7739C14.4012 17.7739 16.4726 15.7024 16.4726 13.1472Z" fill="white"/>
<path d="M45.2999 27L50.8999 12.88H53.7399L59.2799 27H55.9599L51.7199 15.28H52.8599L48.5599 27H45.2999ZM48.4799 24.44V21.88H56.1799V24.44H48.4799ZM60.6502 27V12.48H63.7102V27H60.6502ZM69.985 31.36C68.9184 31.36 67.9784 31.1733 67.165 30.8C66.365 30.44 65.7317 29.9267 65.265 29.26L67.145 27.38C67.4917 27.7933 67.8784 28.1067 68.305 28.32C68.745 28.5333 69.2717 28.64 69.885 28.64C70.645 28.64 71.2384 28.4533 71.665 28.08C72.105 27.7067 72.325 27.18 72.325 26.5V24.02L72.845 21.9L72.385 19.78V17.28H75.385V26.42C75.385 27.42 75.1517 28.2867 74.685 29.02C74.2184 29.7533 73.5784 30.3267 72.765 30.74C71.9517 31.1533 71.025 31.36 69.985 31.36ZM69.845 26.7C68.9517 26.7 68.1584 26.4867 67.465 26.06C66.7717 25.6333 66.225 25.0533 65.825 24.32C65.425 23.5867 65.225 22.7733 65.225 21.88C65.225 20.9733 65.425 20.16 65.825 19.44C66.225 18.7067 66.7717 18.1333 67.465 17.72C68.1584 17.2933 68.9517 17.08 69.845 17.08C70.5117 17.08 71.105 17.2067 71.625 17.46C72.1584 17.7 72.585 18.0467 72.905 18.5C73.2384 18.94 73.425 19.4533 73.465 20.04V23.74C73.425 24.3133 73.2384 24.8267 72.905 25.28C72.585 25.72 72.1584 26.0667 71.625 26.32C71.0917 26.5733 70.4984 26.7 69.845 26.7ZM70.425 23.98C70.8517 23.98 71.2184 23.8867 71.525 23.7C71.845 23.5133 72.085 23.2667 72.245 22.96C72.4184 22.64 72.505 22.28 72.505 21.88C72.505 21.48 72.4184 21.12 72.245 20.8C72.085 20.48 71.845 20.2267 71.525 20.04C71.2184 19.8533 70.8517 19.76 70.425 19.76C70.0117 19.76 69.645 19.8533 69.325 20.04C69.005 20.2267 68.7584 20.48 68.585 20.8C68.4117 21.12 68.325 21.48 68.325 21.88C68.325 22.2533 68.4117 22.6067 68.585 22.94C68.7584 23.26 68.9984 23.5133 69.305 23.7C69.625 23.8867 69.9984 23.98 70.425 23.98ZM82.2247 27.22C81.2247 27.22 80.3181 27 79.5047 26.56C78.7047 26.1067 78.0714 25.4933 77.6047 24.72C77.1381 23.9467 76.9047 23.08 76.9047 22.12C76.9047 21.16 77.1381 20.3 77.6047 19.54C78.0714 18.78 78.7047 18.18 79.5047 17.74C80.3047 17.2867 81.2114 17.06 82.2247 17.06C83.2381 17.06 84.1447 17.28 84.9447 17.72C85.7447 18.16 86.3781 18.7667 86.8447 19.54C87.3114 20.3 87.5447 21.16 87.5447 22.12C87.5447 23.08 87.3114 23.9467 86.8447 24.72C86.3781 25.4933 85.7447 26.1067 84.9447 26.56C84.1447 27 83.2381 27.22 82.2247 27.22ZM82.2247 24.44C82.6647 24.44 83.0514 24.3467 83.3847 24.16C83.7181 23.96 83.9714 23.6867 84.1447 23.34C84.3314 22.98 84.4247 22.5733 84.4247 22.12C84.4247 21.6667 84.3314 21.2733 84.1447 20.94C83.9581 20.5933 83.6981 20.3267 83.3647 20.14C83.0447 19.94 82.6647 19.84 82.2247 19.84C81.7981 19.84 81.4181 19.94 81.0847 20.14C80.7514 20.3267 80.4914 20.5933 80.3047 20.94C80.1181 21.2867 80.0247 21.6867 80.0247 22.14C80.0247 22.58 80.1181 22.98 80.3047 23.34C80.4914 23.6867 80.7514 23.96 81.0847 24.16C81.4181 24.3467 81.7981 24.44 82.2247 24.44ZM92.8682 27L88.3282 12.88H91.4482L94.7682 23.74H93.5482L96.7882 12.88H99.2482L102.488 23.74H101.288L104.588 12.88H107.688L103.148 27H100.688L97.4282 16.14H98.5882L95.3282 27H92.8682ZM111.917 27.2C111.024 27.2 110.224 26.98 109.517 26.54C108.824 26.1 108.271 25.5 107.857 24.74C107.457 23.98 107.257 23.1133 107.257 22.14C107.257 21.1667 107.457 20.3 107.857 19.54C108.271 18.78 108.824 18.18 109.517 17.74C110.224 17.3 111.024 17.08 111.917 17.08C112.571 17.08 113.157 17.2067 113.677 17.46C114.211 17.7133 114.644 18.0667 114.977 18.52C115.311 18.96 115.497 19.4667 115.537 20.04V24.24C115.497 24.8133 115.311 25.3267 114.977 25.78C114.657 26.22 114.231 26.5667 113.697 26.82C113.164 27.0733 112.571 27.2 111.917 27.2ZM112.537 24.44C113.191 24.44 113.717 24.2267 114.117 23.8C114.517 23.36 114.717 22.8067 114.717 22.14C114.717 21.6867 114.624 21.2867 114.437 20.94C114.264 20.5933 114.011 20.3267 113.677 20.14C113.357 19.94 112.984 19.84 112.557 19.84C112.131 19.84 111.751 19.94 111.417 20.14C111.097 20.3267 110.837 20.5933 110.637 20.94C110.451 21.2867 110.357 21.6867 110.357 22.14C110.357 22.58 110.451 22.9733 110.637 23.32C110.824 23.6667 111.084 23.94 111.417 24.14C111.751 24.34 112.124 24.44 112.537 24.44ZM114.597 27V24.38L115.057 22.02L114.597 19.66V17.28H117.597V27H114.597ZM122.812 27L118.692 17.28H121.992L124.792 25.38H123.352L126.152 17.28H129.392L125.272 27H122.812ZM135.021 27.22C133.967 27.22 133.027 27.0067 132.201 26.58C131.387 26.14 130.747 25.5333 130.281 24.76C129.814 23.9867 129.581 23.1133 129.581 22.14C129.581 21.1667 129.807 20.3 130.261 19.54C130.727 18.7667 131.354 18.16 132.141 17.72C132.927 17.28 133.814 17.06 134.801 17.06C135.761 17.06 136.607 17.2667 137.341 17.68C138.074 18.0933 138.647 18.6667 139.061 19.4C139.487 20.1333 139.701 20.9733 139.701 21.92C139.701 22.0933 139.687 22.28 139.661 22.48C139.647 22.6667 139.614 22.8867 139.561 23.14L131.181 23.16V21.06L138.261 21.04L136.941 21.92C136.927 21.36 136.841 20.9 136.681 20.54C136.521 20.1667 136.281 19.8867 135.961 19.7C135.654 19.5 135.274 19.4 134.821 19.4C134.341 19.4 133.921 19.5133 133.561 19.74C133.214 19.9533 132.941 20.26 132.741 20.66C132.554 21.06 132.461 21.5467 132.461 22.12C132.461 22.6933 132.561 23.1867 132.761 23.6C132.974 24 133.267 24.3133 133.641 24.54C134.027 24.7533 134.481 24.86 135.001 24.86C135.481 24.86 135.914 24.78 136.301 24.62C136.687 24.4467 137.027 24.1933 137.321 23.86L139.001 25.54C138.521 26.1 137.941 26.52 137.261 26.8C136.581 27.08 135.834 27.22 135.021 27.22Z" fill="white"/>
</g>
<defs>
<clipPath id="clip0_5_78">
<rect width="141" height="40" fill="white"/>
</clipPath>
</defs>
</svg>
