<svg width="146" height="40" viewBox="0 0 146 40" fill="none" xmlns="http://www.w3.org/2000/svg">
<g clip-path="url(#clip0_5_40)">
<path fill-rule="evenodd" clip-rule="evenodd" d="M20 40C31.0458 40 40 31.0457 40 20C40 8.9543 31.0458 0 20 0C8.95429 0 0 8.9543 0 20C0 31.0457 8.95429 40 20 40ZM23.087 15.4526C24.7918 13.7477 24.7918 10.9836 23.087 9.27866C21.3821 7.57378 18.618 7.57378 16.9131 9.27866C15.2083 10.9836 15.2083 13.7477 16.9131 15.4526L20 18.5395L23.087 15.4526ZM24.5475 23.087C26.2524 24.7919 29.0165 24.7919 30.7214 23.087C32.4262 21.3821 32.4262 18.618 30.7214 16.9131C29.0165 15.2083 26.2524 15.2083 24.5475 16.9131L21.4606 20.0001L24.5475 23.087ZM23.087 30.7214C24.7918 29.0165 24.7918 26.2524 23.087 24.5475L20 21.4606L16.9131 24.5475C15.2083 26.2524 15.2083 29.0165 16.9131 30.7214C18.618 32.4263 21.3821 32.4263 23.087 30.7214ZM9.27863 23.087C7.57379 21.3821 7.57379 18.618 9.27863 16.9131C10.9836 15.2083 13.7477 15.2083 15.4526 16.9131L18.5395 20.0001L15.4526 23.087C13.7477 24.7919 10.9836 24.7919 9.27863 23.087Z" fill="white"/>
<path d="M48.76 27V24.56H52.08C52.6933 24.56 53.1733 24.38 53.52 24.02C53.8666 23.66 54.04 23.22 54.04 22.7C54.04 22.34 53.96 22.02 53.8 21.74C53.64 21.46 53.4133 21.24 53.12 21.08C52.84 20.92 52.4933 20.84 52.08 20.84H48.76V18.46H51.82C52.34 18.46 52.76 18.3333 53.08 18.08C53.4 17.8133 53.56 17.4133 53.56 16.88C53.56 16.36 53.4 15.9733 53.08 15.72C52.76 15.4533 52.34 15.32 51.82 15.32H48.76V12.88H52.42C53.3266 12.88 54.0933 13.0467 54.72 13.38C55.36 13.7133 55.8466 14.16 56.18 14.72C56.5133 15.28 56.68 15.9 56.68 16.58C56.68 17.4467 56.4 18.18 55.84 18.78C55.28 19.38 54.4533 19.7933 53.36 20.02L53.44 18.96C54.6266 19.1867 55.54 19.6467 56.18 20.34C56.8333 21.0333 57.16 21.8867 57.16 22.9C57.16 23.6733 56.9666 24.3733 56.58 25C56.2066 25.6133 55.66 26.1 54.94 26.46C54.2333 26.82 53.38 27 52.38 27H48.76ZM46.36 27V12.88H49.46V27H46.36ZM61.8925 27.04L57.8925 17.28H61.1925L63.7325 25.02H62.5125L65.1125 17.28H68.4125L64.2525 27.04H61.8925ZM59.3925 31.1L62.3125 24.8L64.2525 27.04L62.5325 31.1H59.3925ZM70.7998 27V13.26H73.8598V27H70.7998ZM68.5998 19.88V17.28H76.0598V19.88H68.5998ZM82.0128 27.22C80.9594 27.22 80.0194 27.0067 79.1928 26.58C78.3794 26.14 77.7394 25.5333 77.2728 24.76C76.8061 23.9867 76.5728 23.1133 76.5728 22.14C76.5728 21.1667 76.7994 20.3 77.2528 19.54C77.7194 18.7667 78.3461 18.16 79.1328 17.72C79.9194 17.28 80.8061 17.06 81.7928 17.06C82.7528 17.06 83.5994 17.2667 84.3328 17.68C85.0661 18.0933 85.6394 18.6667 86.0528 19.4C86.4794 20.1333 86.6928 20.9733 86.6928 21.92C86.6928 22.0933 86.6794 22.28 86.6528 22.48C86.6394 22.6667 86.6061 22.8867 86.5528 23.14L78.1728 23.16V21.06L85.2528 21.04L83.9328 21.92C83.9194 21.36 83.8328 20.9 83.6728 20.54C83.5128 20.1667 83.2728 19.8867 82.9528 19.7C82.6461 19.5 82.2661 19.4 81.8128 19.4C81.3328 19.4 80.9128 19.5133 80.5528 19.74C80.2061 19.9533 79.9328 20.26 79.7328 20.66C79.5461 21.06 79.4528 21.5467 79.4528 22.12C79.4528 22.6933 79.5528 23.1867 79.7528 23.6C79.9661 24 80.2594 24.3133 80.6328 24.54C81.0194 24.7533 81.4728 24.86 81.9928 24.86C82.4728 24.86 82.9061 24.78 83.2928 24.62C83.6794 24.4467 84.0194 24.1933 84.3128 23.86L85.9928 25.54C85.5128 26.1 84.9328 26.52 84.2528 26.8C83.5728 27.08 82.8261 27.22 82.0128 27.22ZM90.8498 27V24.56H94.1698C94.7831 24.56 95.2631 24.38 95.6098 24.02C95.9565 23.66 96.1298 23.22 96.1298 22.7C96.1298 22.34 96.0498 22.02 95.8898 21.74C95.7298 21.46 95.5031 21.24 95.2098 21.08C94.9298 20.92 94.5831 20.84 94.1698 20.84H90.8498V18.46H93.9098C94.4298 18.46 94.8498 18.3333 95.1698 18.08C95.4898 17.8133 95.6498 17.4133 95.6498 16.88C95.6498 16.36 95.4898 15.9733 95.1698 15.72C94.8498 15.4533 94.4298 15.32 93.9098 15.32H90.8498V12.88H94.5098C95.4165 12.88 96.1831 13.0467 96.8098 13.38C97.4498 13.7133 97.9365 14.16 98.2698 14.72C98.6031 15.28 98.7698 15.9 98.7698 16.58C98.7698 17.4467 98.4898 18.18 97.9298 18.78C97.3698 19.38 96.5431 19.7933 95.4498 20.02L95.5298 18.96C96.7165 19.1867 97.6298 19.6467 98.2698 20.34C98.9231 21.0333 99.2498 21.8867 99.2498 22.9C99.2498 23.6733 99.0565 24.3733 98.6698 25C98.2965 25.6133 97.7498 26.1 97.0298 26.46C96.3231 26.82 95.4698 27 94.4698 27H90.8498ZM88.4498 27V12.88H91.5498V27H88.4498ZM100.982 27V12.48H104.042V27H100.982ZM110.877 27.22C109.877 27.22 108.97 27 108.157 26.56C107.357 26.1067 106.724 25.4933 106.257 24.72C105.79 23.9467 105.557 23.08 105.557 22.12C105.557 21.16 105.79 20.3 106.257 19.54C106.724 18.78 107.357 18.18 108.157 17.74C108.957 17.2867 109.864 17.06 110.877 17.06C111.89 17.06 112.797 17.28 113.597 17.72C114.397 18.16 115.03 18.7667 115.497 19.54C115.964 20.3 116.197 21.16 116.197 22.12C116.197 23.08 115.964 23.9467 115.497 24.72C115.03 25.4933 114.397 26.1067 113.597 26.56C112.797 27 111.89 27.22 110.877 27.22ZM110.877 24.44C111.317 24.44 111.704 24.3467 112.037 24.16C112.37 23.96 112.624 23.6867 112.797 23.34C112.984 22.98 113.077 22.5733 113.077 22.12C113.077 21.6667 112.984 21.2733 112.797 20.94C112.61 20.5933 112.35 20.3267 112.017 20.14C111.697 19.94 111.317 19.84 110.877 19.84C110.45 19.84 110.07 19.94 109.737 20.14C109.404 20.3267 109.144 20.5933 108.957 20.94C108.77 21.2867 108.677 21.6867 108.677 22.14C108.677 22.58 108.77 22.98 108.957 23.34C109.144 23.6867 109.404 23.96 109.737 24.16C110.07 24.3467 110.45 24.44 110.877 24.44ZM122.401 27.22C121.401 27.22 120.494 27 119.681 26.56C118.881 26.1067 118.247 25.4933 117.781 24.72C117.314 23.9467 117.081 23.08 117.081 22.12C117.081 21.16 117.314 20.3 117.781 19.54C118.247 18.78 118.881 18.18 119.681 17.74C120.481 17.2867 121.387 17.06 122.401 17.06C123.414 17.06 124.321 17.28 125.121 17.72C125.921 18.16 126.554 18.7667 127.021 19.54C127.487 20.3 127.721 21.16 127.721 22.12C127.721 23.08 127.487 23.9467 127.021 24.72C126.554 25.4933 125.921 26.1067 125.121 26.56C124.321 27 123.414 27.22 122.401 27.22ZM122.401 24.44C122.841 24.44 123.227 24.3467 123.561 24.16C123.894 23.96 124.147 23.6867 124.321 23.34C124.507 22.98 124.601 22.5733 124.601 22.12C124.601 21.6667 124.507 21.2733 124.321 20.94C124.134 20.5933 123.874 20.3267 123.541 20.14C123.221 19.94 122.841 19.84 122.401 19.84C121.974 19.84 121.594 19.94 121.261 20.14C120.927 20.3267 120.667 20.5933 120.481 20.94C120.294 21.2867 120.201 21.6867 120.201 22.14C120.201 22.58 120.294 22.98 120.481 23.34C120.667 23.6867 120.927 23.96 121.261 24.16C121.594 24.3467 121.974 24.44 122.401 24.44ZM129.244 27V17.28H132.304V27H129.244ZM135.464 27V21.32C135.464 20.8267 135.311 20.4467 135.004 20.18C134.711 19.9 134.344 19.76 133.904 19.76C133.597 19.76 133.324 19.8267 133.084 19.96C132.844 20.08 132.651 20.2533 132.504 20.48C132.371 20.7067 132.304 20.9867 132.304 21.32L131.124 20.8C131.124 20.0267 131.291 19.3667 131.624 18.82C131.957 18.26 132.411 17.8333 132.984 17.54C133.557 17.2333 134.204 17.08 134.924 17.08C135.604 17.08 136.211 17.2333 136.744 17.54C137.291 17.8467 137.724 18.2733 138.044 18.82C138.364 19.3667 138.524 20.02 138.524 20.78V27H135.464ZM141.684 27V21.32C141.684 20.8267 141.531 20.4467 141.224 20.18C140.931 19.9 140.564 19.76 140.124 19.76C139.817 19.76 139.544 19.8267 139.304 19.96C139.064 20.08 138.871 20.2533 138.724 20.48C138.591 20.7067 138.524 20.9867 138.524 21.32L136.764 21.08C136.791 20.2533 136.984 19.5467 137.344 18.96C137.717 18.36 138.204 17.9 138.804 17.58C139.417 17.2467 140.104 17.08 140.864 17.08C141.611 17.08 142.271 17.24 142.844 17.56C143.431 17.8667 143.891 18.3133 144.224 18.9C144.571 19.4733 144.744 20.1667 144.744 20.98V27H141.684Z" fill="white"/>
</g>
<defs>
<clipPath id="clip0_5_40">
<rect width="146" height="40" fill="white"/>
</clipPath>
</defs>
</svg>
