<svg width="155" height="40" viewBox="0 0 155 40" fill="none" xmlns="http://www.w3.org/2000/svg">
<g clip-path="url(#clip0_5_51)">
<path d="M25.1779 1.05386L21.2315 0L17.9058 12.3696L14.9033 1.20224L10.9568 2.2561L14.2008 14.3216L6.12075 6.26898L3.23174 9.14817L12.0946 17.981L1.05733 15.0336L-0.00012207 18.9666L12.0595 22.187C11.9214 21.5935 11.8483 20.9751 11.8483 20.3397C11.8483 15.8421 15.5068 12.1961 20.0197 12.1961C24.5326 12.1961 28.1911 15.8421 28.1911 20.3397C28.1911 20.971 28.1189 21.5856 27.9826 22.1756L38.9425 25.1023L39.9999 21.1693L27.8923 17.9361L38.9303 14.9885L37.8729 11.0555L25.7658 14.2885L33.8459 6.23592L30.9569 3.35673L22.217 12.067L25.1779 1.05386Z" fill="white"/>
<path d="M27.9719 22.2214C27.6335 23.647 26.9192 24.9277 25.9391 25.9538L33.879 33.8669L36.768 30.9877L27.9719 22.2214Z" fill="white"/>
<path d="M25.8587 26.0366C24.8667 27.0463 23.6132 27.7998 22.2074 28.1881L25.0966 38.9341L29.043 37.8802L25.8587 26.0366Z" fill="white"/>
<path d="M22.06 28.2274C21.4078 28.3945 20.7242 28.4833 20.0197 28.4833C19.2649 28.4833 18.534 28.3813 17.8402 28.1904L14.9484 38.9462L18.8948 40L22.06 28.2274Z" fill="white"/>
<path d="M17.7006 28.1506C16.3163 27.743 15.0851 26.9799 14.1134 25.9673L6.15384 33.8998L9.04284 36.779L17.7006 28.1506Z" fill="white"/>
<path d="M14.047 25.8973C13.0919 24.8783 12.3963 23.6147 12.0651 22.2111L1.06943 25.1474L2.12687 29.0804L14.047 25.8973Z" fill="white"/>
<path d="M53.0599 27.22C52.0065 27.22 51.0265 27.04 50.1199 26.68C49.2265 26.3067 48.4399 25.7867 47.7599 25.12C47.0932 24.4533 46.5732 23.68 46.1999 22.8C45.8265 21.9067 45.6399 20.9467 45.6399 19.92C45.6399 18.8933 45.8265 17.94 46.1999 17.06C46.5732 16.1667 47.0932 15.3933 47.7599 14.74C48.4265 14.0867 49.2065 13.58 50.0999 13.22C51.0065 12.8467 51.9865 12.66 53.0399 12.66C54.1599 12.66 55.1532 12.84 56.0199 13.2C56.8999 13.56 57.6665 14.0533 58.3199 14.68L56.2199 16.8C55.8465 16.4 55.3932 16.0867 54.8599 15.86C54.3399 15.6333 53.7332 15.52 53.0399 15.52C52.4265 15.52 51.8599 15.6267 51.3399 15.84C50.8332 16.04 50.3932 16.3333 50.0199 16.72C49.6599 17.1067 49.3732 17.5733 49.1599 18.12C48.9599 18.6667 48.8599 19.2667 48.8599 19.92C48.8599 20.5867 48.9599 21.1933 49.1599 21.74C49.3732 22.2867 49.6599 22.7533 50.0199 23.14C50.3932 23.5267 50.8332 23.8267 51.3399 24.04C51.8599 24.2533 52.4265 24.36 53.0399 24.36C53.7599 24.36 54.3865 24.2467 54.9199 24.02C55.4532 23.7933 55.9132 23.48 56.2999 23.08L58.4199 25.2C57.7399 25.8267 56.9599 26.32 56.0799 26.68C55.2132 27.04 54.2065 27.22 53.0599 27.22ZM59.8689 27V12.48H62.9289V27H59.8689ZM69.7638 27.22C68.7638 27.22 67.8571 27 67.0438 26.56C66.2438 26.1067 65.6105 25.4933 65.1438 24.72C64.6771 23.9467 64.4438 23.08 64.4438 22.12C64.4438 21.16 64.6771 20.3 65.1438 19.54C65.6105 18.78 66.2438 18.18 67.0438 17.74C67.8438 17.2867 68.7505 17.06 69.7638 17.06C70.7771 17.06 71.6838 17.28 72.4838 17.72C73.2838 18.16 73.9171 18.7667 74.3838 19.54C74.8505 20.3 75.0838 21.16 75.0838 22.12C75.0838 23.08 74.8505 23.9467 74.3838 24.72C73.9171 25.4933 73.2838 26.1067 72.4838 26.56C71.6838 27 70.7771 27.22 69.7638 27.22ZM69.7638 24.44C70.2038 24.44 70.5905 24.3467 70.9238 24.16C71.2571 23.96 71.5105 23.6867 71.6838 23.34C71.8705 22.98 71.9638 22.5733 71.9638 22.12C71.9638 21.6667 71.8705 21.2733 71.6838 20.94C71.4971 20.5933 71.2371 20.3267 70.9038 20.14C70.5838 19.94 70.2038 19.84 69.7638 19.84C69.3371 19.84 68.9571 19.94 68.6238 20.14C68.2905 20.3267 68.0305 20.5933 67.8438 20.94C67.6571 21.2867 67.5638 21.6867 67.5638 22.14C67.5638 22.58 67.6571 22.98 67.8438 23.34C68.0305 23.6867 68.2905 23.96 68.6238 24.16C68.9571 24.3467 69.3371 24.44 69.7638 24.44ZM80.9272 27.22C80.0339 27.22 79.2406 27.04 78.5472 26.68C77.8672 26.3067 77.3339 25.8 76.9472 25.16C76.5606 24.5067 76.3672 23.76 76.3672 22.92V17.28H79.4272V22.88C79.4272 23.2133 79.4806 23.5 79.5872 23.74C79.7072 23.98 79.8806 24.1667 80.1072 24.3C80.3339 24.4333 80.6072 24.5 80.9272 24.5C81.3806 24.5 81.7406 24.36 82.0072 24.08C82.2739 23.7867 82.4072 23.3867 82.4072 22.88V17.28H85.4672V22.9C85.4672 23.7533 85.2739 24.5067 84.8872 25.16C84.5006 25.8 83.9672 26.3067 83.2872 26.68C82.6072 27.04 81.8206 27.22 80.9272 27.22ZM91.5285 27.2C90.6085 27.2 89.7885 26.98 89.0685 26.54C88.3618 26.1 87.8018 25.5 87.3885 24.74C86.9885 23.98 86.7885 23.1133 86.7885 22.14C86.7885 21.1667 86.9885 20.3 87.3885 19.54C87.8018 18.78 88.3618 18.18 89.0685 17.74C89.7885 17.3 90.6085 17.08 91.5285 17.08C92.1951 17.08 92.7951 17.2067 93.3285 17.46C93.8751 17.7133 94.3218 18.0667 94.6685 18.52C95.0285 18.96 95.2285 19.4667 95.2685 20.04V24.14C95.2285 24.7133 95.0351 25.2333 94.6885 25.7C94.3418 26.1533 93.8951 26.52 93.3485 26.8C92.8018 27.0667 92.1951 27.2 91.5285 27.2ZM92.0685 24.44C92.5085 24.44 92.8885 24.3467 93.2085 24.16C93.5285 23.96 93.7818 23.6867 93.9685 23.34C94.1551 22.9933 94.2485 22.5933 94.2485 22.14C94.2485 21.6867 94.1551 21.2933 93.9685 20.96C93.7951 20.6133 93.5418 20.34 93.2085 20.14C92.8885 19.94 92.5151 19.84 92.0885 19.84C91.6618 19.84 91.2818 19.94 90.9485 20.14C90.6285 20.34 90.3685 20.6133 90.1685 20.96C89.9818 21.3067 89.8885 21.7 89.8885 22.14C89.8885 22.58 89.9818 22.9733 90.1685 23.32C90.3551 23.6667 90.6151 23.94 90.9485 24.14C91.2818 24.34 91.6551 24.44 92.0685 24.44ZM97.1285 27H94.1285V24.38L94.5885 22.02L94.0685 19.66V12.48H97.1285V27ZM103.803 27.22C102.643 27.22 101.643 27.0333 100.803 26.66C99.9763 26.2733 99.2163 25.6933 98.523 24.92L100.563 22.9C101.016 23.42 101.516 23.8267 102.063 24.12C102.623 24.4 103.27 24.54 104.003 24.54C104.67 24.54 105.183 24.42 105.543 24.18C105.916 23.94 106.103 23.6067 106.103 23.18C106.103 22.7933 105.983 22.48 105.743 22.24C105.503 22 105.183 21.7933 104.783 21.62C104.396 21.4467 103.963 21.28 103.483 21.12C103.016 20.96 102.55 20.78 102.083 20.58C101.616 20.3667 101.183 20.1067 100.783 19.8C100.396 19.48 100.083 19.0867 99.843 18.62C99.603 18.14 99.483 17.54 99.483 16.82C99.483 15.9533 99.6897 15.2067 100.103 14.58C100.53 13.9533 101.116 13.48 101.863 13.16C102.61 12.8267 103.47 12.66 104.443 12.66C105.43 12.66 106.33 12.8333 107.143 13.18C107.97 13.5267 108.65 14 109.183 14.6L107.143 16.62C106.716 16.18 106.283 15.8533 105.843 15.64C105.416 15.4267 104.93 15.32 104.383 15.32C103.836 15.32 103.403 15.4267 103.083 15.64C102.763 15.84 102.603 16.1333 102.603 16.52C102.603 16.88 102.723 17.1733 102.963 17.4C103.203 17.6133 103.516 17.8 103.903 17.96C104.303 18.12 104.736 18.28 105.203 18.44C105.683 18.6 106.156 18.7867 106.623 19C107.09 19.2133 107.516 19.4867 107.903 19.82C108.303 20.14 108.623 20.5533 108.863 21.06C109.103 21.5533 109.223 22.1667 109.223 22.9C109.223 24.2467 108.743 25.3067 107.783 26.08C106.823 26.84 105.496 27.22 103.803 27.22ZM116.543 27.2C115.89 27.2 115.29 27.0733 114.743 26.82C114.196 26.5667 113.75 26.22 113.403 25.78C113.056 25.3267 112.856 24.8133 112.803 24.24V20.14C112.856 19.5667 113.056 19.0467 113.403 18.58C113.75 18.1133 114.196 17.7467 114.743 17.48C115.29 17.2133 115.89 17.08 116.543 17.08C117.463 17.08 118.276 17.3 118.983 17.74C119.703 18.18 120.263 18.78 120.663 19.54C121.076 20.3 121.283 21.1667 121.283 22.14C121.283 23.1133 121.076 23.98 120.663 24.74C120.263 25.5 119.703 26.1 118.983 26.54C118.276 26.98 117.463 27.2 116.543 27.2ZM110.943 31.1V17.28H114.003V19.78L113.503 22.14L113.963 24.5V31.1H110.943ZM115.983 24.44C116.423 24.44 116.803 24.34 117.123 24.14C117.456 23.94 117.716 23.6667 117.903 23.32C118.09 22.9733 118.183 22.58 118.183 22.14C118.183 21.6867 118.09 21.2867 117.903 20.94C117.716 20.5933 117.456 20.3267 117.123 20.14C116.803 19.94 116.43 19.84 116.003 19.84C115.576 19.84 115.196 19.94 114.863 20.14C114.543 20.3267 114.29 20.5933 114.103 20.94C113.916 21.2867 113.823 21.6867 113.823 22.14C113.823 22.58 113.91 22.9733 114.083 23.32C114.27 23.6667 114.53 23.94 114.863 24.14C115.196 24.34 115.57 24.44 115.983 24.44ZM122.838 27V17.28H125.898V27H122.838ZM125.898 21.66L124.618 20.66C124.871 19.5267 125.298 18.6467 125.898 18.02C126.498 17.3933 127.331 17.08 128.398 17.08C128.864 17.08 129.271 17.1533 129.618 17.3C129.978 17.4333 130.291 17.6467 130.558 17.94L128.738 20.24C128.604 20.0933 128.438 19.98 128.238 19.9C128.038 19.82 127.811 19.78 127.558 19.78C127.051 19.78 126.644 19.94 126.338 20.26C126.044 20.5667 125.898 21.0333 125.898 21.66ZM131.373 27V17.28H134.433V27H131.373ZM132.913 15.94C132.433 15.94 132.033 15.78 131.713 15.46C131.406 15.1267 131.253 14.7267 131.253 14.26C131.253 13.78 131.406 13.38 131.713 13.06C132.033 12.74 132.433 12.58 132.913 12.58C133.393 12.58 133.786 12.74 134.093 13.06C134.4 13.38 134.553 13.78 134.553 14.26C134.553 14.7267 134.4 15.1267 134.093 15.46C133.786 15.78 133.393 15.94 132.913 15.94ZM143.008 27V21.46C143.008 20.9533 142.848 20.5467 142.528 20.24C142.221 19.92 141.828 19.76 141.348 19.76C141.014 19.76 140.721 19.8333 140.468 19.98C140.214 20.1133 140.014 20.3133 139.868 20.58C139.721 20.8333 139.648 21.1267 139.648 21.46L138.468 20.88C138.468 20.12 138.634 19.4533 138.968 18.88C139.301 18.3067 139.761 17.8667 140.348 17.56C140.948 17.24 141.621 17.08 142.368 17.08C143.088 17.08 143.721 17.2533 144.268 17.6C144.828 17.9333 145.268 18.38 145.588 18.94C145.908 19.5 146.068 20.1133 146.068 20.78V27H143.008ZM136.588 27V17.28H139.648V27H136.588ZM149.296 27V13.26H152.356V27H149.296ZM147.096 19.88V17.28H154.556V19.88H147.096Z" fill="white"/>
</g>
<defs>
<clipPath id="clip0_5_51">
<rect width="155" height="40" fill="white"/>
</clipPath>
</defs>
</svg>
