<svg width="30" height="30" viewBox="0 0 30 30" fill="none" xmlns="http://www.w3.org/2000/svg">
<path d="M14.7113 1.01975C14.7937 0.7287 15.2062 0.728699 15.2886 1.01975L18.2635 11.5294C18.2919 11.6297 18.3703 11.708 18.4705 11.7364L28.9802 14.7113C29.2712 14.7937 29.2712 15.2063 28.9802 15.2887L18.4705 18.2636C18.3703 18.292 18.2919 18.3703 18.2635 18.4706L15.2886 28.9802C15.2062 29.2713 14.7937 29.2713 14.7113 28.9802L11.7363 18.4706C11.708 18.3703 11.6296 18.292 11.5294 18.2636L1.01969 15.2887C0.728639 15.2063 0.728638 14.7937 1.01969 14.7113L11.5294 11.7364C11.6296 11.708 11.708 11.6297 11.7363 11.5294L14.7113 1.01975Z" fill="#9EFF00"/>
</svg>
