<svg width="44" height="44" viewBox="0 0 44 44" fill="none" xmlns="http://www.w3.org/2000/svg">
<path d="M26.6403 27.9664L16.0337 17.3598C15.6714 16.9974 15.6714 16.3964 16.0337 16.034C16.3961 15.6716 16.9972 15.6716 17.3596 16.034L27.9662 26.6406C28.3286 27.003 28.3286 27.604 27.9662 27.9664C27.6038 28.3288 27.0027 28.3288 26.6403 27.9664Z" fill="#9EFF00"/>
<path d="M16.0337 27.9664C15.6713 27.604 15.6713 27.003 16.0337 26.6406L26.6403 16.034C27.0027 15.6716 27.6037 15.6716 27.9661 16.034C28.3285 16.3964 28.3285 16.9974 27.9661 17.3598L17.3595 27.9664C16.9971 28.3288 16.3961 28.3288 16.0337 27.9664Z" fill="#9EFF00"/>
</svg>
